<svg id="f7cd15db-7c5b-49ef-91cd-aaefe51a94f4" data-name="Layer 1" xmlns="http://www.w3.org/2000/svg" xmlns:xlink="http://www.w3.org/1999/xlink" viewBox="0 0 381.85 447.11"><defs><style>.a47a477f-fde2-4972-9bd7-49c82dfa8609,.bf41d13a-3913-48f6-a724-4f0604227d3b{fill:none;}.bb81e12a-a6ae-45e4-a75f-8925fdbef271{clip-path:url(#afc69006-4180-4c0a-8a1b-783ffc0c616a);}.e69e43d8-b799-4599-970f-23bb1d046bf5,.edf513e9-6d67-4886-a0bb-cb961d152c21{fill:#13a538;}.a933de72-a24d-47a3-92ac-a68f11a4c656,.ad820118-9fcc-4836-b4e7-7471b26ab9a6,.b54318ec-bbd2-40fe-a502-5fd462b62474,.e69e43d8-b799-4599-970f-23bb1d046bf5{fill-rule:evenodd;}.a3c62663-cd91-457f-b62a-c46aeab956a1{fill:#fd0;}.eafbe183-a3f4-44b9-bcbb-a07b261dd329{clip-path:url(#b41f9482-10b3-4a61-8b8b-49646ed02d55);}.bf41d13a-3913-48f6-a724-4f0604227d3b{stroke:#13a538;stroke-miterlimit:3.86;stroke-width:4.67px;}.b54318ec-bbd2-40fe-a502-5fd462b62474{fill:#007047;}.a933de72-a24d-47a3-92ac-a68f11a4c656{fill:#e94f32;}.a8172d25-b933-41dc-8498-7bbe5a3d3100{fill:#1d1d1b;}.a2f14a0c-36a5-4924-bfdd-5ea6b175097f{fill:#e30d13;}.b3d82be2-4f4e-498e-9f1a-75be6ecd6776{fill:#f7e700;}.ad820118-9fcc-4836-b4e7-7471b26ab9a6,.e5f7fb5d-82d6-4c22-9a12-7751a4151f92{fill:#e95123;}.ba611971-0273-4136-8bf1-32a599d29cab{fill:#fff;}</style><clipPath id="afc69006-4180-4c0a-8a1b-783ffc0c616a" transform="translate(43.42 32.74)"><rect class="a47a477f-fde2-4972-9bd7-49c82dfa8609" width="338.43" height="414.37"/></clipPath><clipPath id="b41f9482-10b3-4a61-8b8b-49646ed02d55" transform="translate(43.42 32.74)"><path class="a47a477f-fde2-4972-9bd7-49c82dfa8609" d="M13.85,13.13V178.3c0,139.4,122.1,206.21,155.73,221.91C203.21,384.51,325.3,317.7,325.3,178.3V13.13Z"/></clipPath></defs><title>chaddy-logo</title><g class="bb81e12a-a6ae-45e4-a75f-8925fdbef271"><g class="bb81e12a-a6ae-45e4-a75f-8925fdbef271"><path class="e69e43d8-b799-4599-970f-23bb1d046bf5" d="M338.43,0V178c0,155.45-143.33,225.1-169.21,236.42C143.32,403.05,0,333.4,0,178V0Z" transform="translate(43.42 32.74)"/><path class="a3c62663-cd91-457f-b62a-c46aeab956a1" d="M325.31,178.29c0,139.41-122.1,206.22-155.73,221.92C136,384.51,13.85,317.7,13.85,178.29V13.13H325.31Z" transform="translate(43.42 32.74)"/></g><g class="eafbe183-a3f4-44b9-bcbb-a07b261dd329"><polygon class="bf41d13a-3913-48f6-a724-4f0604227d3b" points="320.34 362.23 3.1 82.92 57.98 3.48 375.24 282.79 320.34 362.23"/></g><g class="bb81e12a-a6ae-45e4-a75f-8925fdbef271"><path class="b54318ec-bbd2-40fe-a502-5fd462b62474" d="M46.81,81.89a.33.33,0,0,0-.15.16L45,86l-1.73-3.82a.56.56,0,0,0-.05-.08c.19-.19.39-.41.58-.63a1.62,1.62,0,0,1,2.21-.2ZM67.06,64.47a.08.08,0,0,1,0,0l3,3L66,67.62l-.36-.78a1.53,1.53,0,0,1,.7-2ZM30.89,41.61a.29.29,0,0,0,0-.24L29.87,37.3l3.78,2a.21.21,0,0,0,.17,0c-.09.48-.2,1-.31,1.72a.43.43,0,0,0,0,.11,1.11,1.11,0,0,1-1.35.75Zm26-2.26a.31.31,0,0,0,.28,0l3.78-2-1,4.07a.33.33,0,0,0,0,.22l-1.29.35-.12,0a1.19,1.19,0,0,1-1.36-1Zm-32,28.11h-.09l-4.29-.12,2.95-3a.33.33,0,0,0,.09-.21q.48.27,1.05.54l.18.1a1.56,1.56,0,0,1,.47,2.15Z" transform="translate(43.42 32.74)"/><path class="b54318ec-bbd2-40fe-a502-5fd462b62474" d="M61.79,63.77h0Zm-.91,1.76h0ZM45.69,52.26a6.42,6.42,0,1,1-6.42,6.42,6.41,6.41,0,0,1,6.42-6.42M50.8,63.52c.14-.14.26-.29.39-.44,3.13,2.86,6.13,4.34,7.94,3.74h0c-1.67,1.16-4.91-.24-8.32-3.31m-.44.43a4.12,4.12,0,0,0,.37-.35c.45.5.94,1.06,1.43,1.66a30.29,30.29,0,0,1,3.48,4.52,30.32,30.32,0,0,1-3.9-4.17c-.5-.58-1-1.14-1.38-1.66m-.57.46c.16-.11.31-.24.47-.36,2.44,3.84,3.29,7.25,1.86,8.7,0,0,0,0,0,0,.89-1.66-.06-4.83-2.32-8.35m-8.61-.32c-3.39,3-6.61,4.43-8.27,3.27a0,0,0,0,0,0,0c1.79.59,4.74-.86,7.84-3.65.14.13.28.26.44.39m.49.38c-.42.52-.89,1.08-1.39,1.66a29.92,29.92,0,0,1-3.89,4.17,30.12,30.12,0,0,1,3.47-4.52l1.39-1.62c.14.11.27.21.42.31m.62.38C40,68.4,39,71.61,39.91,73.29h0c-1.42-1.46-.57-4.88,1.88-8.73q.26.17.51.3m3.88-13.21c.63-4.48,2.17-7.58,4.18-7.78h0c-1.75.71-3.07,3.72-3.62,7.84a5.7,5.7,0,0,0-.58-.06m-.67,0c0-.64,0-1.34,0-2.07a29.76,29.76,0,0,1,.28-5.7,30.3,30.3,0,0,1,.27,5.7c0,.73,0,1.43,0,2.07H45.5Zm-.7,0c-.56-4.11-1.88-7.11-3.62-7.82h0c2,.2,3.55,3.3,4.18,7.77a5.44,5.44,0,0,0-.58,0m7.76,5.42c4.4-1.26,7.92-1.11,8.91.67h0c-1.37-1.33-4.74-1.32-8.81-.1,0-.2-.07-.39-.11-.58m-.18-.64,1.91-.86a29.26,29.26,0,0,1,5.33-2,30.08,30.08,0,0,1-5.1,2.54l-2,.86a2.85,2.85,0,0,0-.14-.5m-.26-.66c3.52-2.16,5.72-4.56,5.65-6.44,0,0,0,0,0,0,.64,1.92-1.58,4.59-5.43,7-.07-.18-.15-.37-.23-.55M39,56.45c-3.94-2.41-6.23-5.12-5.58-7.07v0c-.07,1.9,2.18,4.35,5.78,6.52a3.9,3.9,0,0,0-.21.57m-.17.57c-.66-.27-1.39-.58-2.15-.92a30.08,30.08,0,0,1-5.1-2.54,29.33,29.33,0,0,1,5.32,2l2.07.93c0,.17-.1.33-.14.49m-.13.71c-4.16-1.26-7.6-1.3-9,.05h0c1-1.8,4.59-1.93,9.07-.63,0,.2-.07.39-.1.59" transform="translate(43.42 32.74)"/><path class="a933de72-a24d-47a3-92ac-a68f11a4c656" d="M27.58,63.4a6.07,6.07,0,0,1-2-.4c-3.22-1.19-1.62-4-1.46-4.47a27.24,27.24,0,0,1,1.53-2.91A17.55,17.55,0,0,0,26.85,53a41.79,41.79,0,0,0,.84-4.3,18.65,18.65,0,0,1,.48-2.57,3,3,0,0,1,4.31-2A7.62,7.62,0,0,1,35,45.63a6.56,6.56,0,0,0-3.2-2.26,3.14,3.14,0,0,0-4.36,2.13,19,19,0,0,0-.52,2.68A45.85,45.85,0,0,1,26,52.7a21.22,21.22,0,0,1-1.3,2.76,32,32,0,0,0-1.59,3.06C23,59,21.3,62,24.51,63.16a4.81,4.81,0,0,0,3.07.24M57.24,44.83a5.94,5.94,0,0,1,1.9-.85c3.31-.89,3.65,2.36,3.76,2.8a27.21,27.21,0,0,1,.43,3.27,18.29,18.29,0,0,0,.49,2.85c.16.57,1.52,3.55,1.79,4a18.24,18.24,0,0,1,1.09,2.36,3,3,0,0,1-2.39,4.09,7.66,7.66,0,0,1-2.91.25,6.66,6.66,0,0,0,3.92,0,3.13,3.13,0,0,0,2.34-4.25,17.52,17.52,0,0,0-1.12-2.5,46.16,46.16,0,0,1-1.85-4.23,21.34,21.34,0,0,1-.53-3,30.52,30.52,0,0,0-.46-3.43c-.12-.45-.5-3.86-3.82-3a4.83,4.83,0,0,0-2.64,1.58M35.7,43.52a6.2,6.2,0,0,1-.32-2.05c0-3.43,3.23-2.92,3.69-2.92a25.52,25.52,0,0,1,3.25.44,18.17,18.17,0,0,0,2.89.25,40.48,40.48,0,0,0,4.34-.69,18,18,0,0,1,2.57-.44,3,3,0,0,1,3.33,3.36,8,8,0,0,1-.5,2.88,6.71,6.71,0,0,0,1-3.79,3.13,3.13,0,0,0-3.5-3.35,18.46,18.46,0,0,0-2.7.44c-.54.14-3.94.69-4.56.69a21.23,21.23,0,0,1-3-.25,28.77,28.77,0,0,0-3.43-.44c-.48,0-3.87-.52-3.87,2.91a4.94,4.94,0,0,0,.83,3M28.5,66.23a4.86,4.86,0,0,0-2.38,2c-1.95,2.81,1.12,4.33,1.52,4.6a25.84,25.84,0,0,0,3.06,1.6,22,22,0,0,1,2.63,1.52c.51.36,3,2.74,3.35,3.17a18.41,18.41,0,0,0,2,1.91,3.15,3.15,0,0,0,4.8-.76,6.54,6.54,0,0,0,1.32-3.68,7.69,7.69,0,0,1-1.22,2.65,3,3,0,0,1-4.66.84A16.61,16.61,0,0,1,37,78.21c-.35-.41-2.69-2.71-3.17-3a18.2,18.2,0,0,0-2.52-1.43,28.74,28.74,0,0,1-2.93-1.51c-.36-.25-3.3-1.68-1.35-4.5a6.24,6.24,0,0,1,1.44-1.49m33.93.09a5.87,5.87,0,0,1,1.43,1.49c2,2.82-1,4.25-1.35,4.5a26.79,26.79,0,0,1-2.93,1.51,18.1,18.1,0,0,0-2.51,1.43,41.72,41.72,0,0,0-3.17,3A16,16,0,0,1,52,80.13a3,3,0,0,1-4.65-.86,7.66,7.66,0,0,1-1.23-2.65,6.65,6.65,0,0,0,1.33,3.69,3.13,3.13,0,0,0,4.78.76,19.47,19.47,0,0,0,2-1.9A44,44,0,0,1,57.59,76a20.16,20.16,0,0,1,2.64-1.52,30.51,30.51,0,0,0,3.07-1.6c.38-.27,3.46-1.78,1.5-4.61a4.77,4.77,0,0,0-2.37-1.94M39.3,55.68l-.74-.47a16.15,16.15,0,0,1-3.19-2.56,8.12,8.12,0,0,1-.85-1,2.77,2.77,0,0,1-.22-.29,4.61,4.61,0,0,1-.73-2.76c0-.47-.06-.85-.06-.85l-.18.87c-.31,1.59-.41,2.18.5,3.6a8,8,0,0,0,1.27,1.54,17.67,17.67,0,0,0,2,1.69c-1.22-.53-2.25-1-3.48-1.46A15.68,15.68,0,0,0,32,53.39l-.29-.06h-.15l-.09,0-.06.08a.25.25,0,0,0,0,.21.46.46,0,0,0,.16.18l.25.17.61.33,1.36.67c1.11.53,2,1,3.16,1.45a18.35,18.35,0,0,0-2.1-.33,9.41,9.41,0,0,0-3,.09,4.53,4.53,0,0,0-.86.25c-1.09.44-1.28.91-2,1.81-.26.32-.4.51-.4.51l1.55-1.09a2.88,2.88,0,0,1,1.1-.48,5.9,5.9,0,0,1,1.45-.2,12.6,12.6,0,0,1,2.74.19,25.81,25.81,0,0,1,3.2.74,4.56,4.56,0,0,0,0,.73,7.07,7.07,0,0,0,1.95,4.87l-.62.54a17,17,0,0,1-3.36,2.34,10.75,10.75,0,0,1-1.21.52l-.34.13A4.56,4.56,0,0,1,32.2,67l-.84-.18.79.42c1.43.75,2,1,3.58.54A7.6,7.6,0,0,0,37.57,67a15.77,15.77,0,0,0,2.19-1.42c-.86,1-1.57,1.88-2.4,2.92a16.2,16.2,0,0,0-1,1.4l-.14.25a.44.44,0,0,0,0,.15v.08l0,.09a.28.28,0,0,0,.19.07.5.5,0,0,0,.23-.09l.23-.2.49-.48,1-1.11c.81-.92,1.5-1.69,2.29-2.63-.35.66-.63,1.23-.92,1.92A9.52,9.52,0,0,0,39,70.79a4.41,4.41,0,0,0,0,.89,4.08,4.08,0,0,0,1.17,2.4l.38.52L40,72.82a3.2,3.2,0,0,1-.16-1.2A7.81,7.81,0,0,1,40,70.17a14,14,0,0,1,1-2.57A26.42,26.42,0,0,1,42.48,65a7.07,7.07,0,0,0,3.21.77,6.93,6.93,0,0,0,3.92-1.2A22.87,22.87,0,0,1,51,67.08a12.77,12.77,0,0,1,1,2.57,6.45,6.45,0,0,1,.23,1.45,3.15,3.15,0,0,1-.15,1.19c0,.13-.6,1.79-.6,1.79l.37-.52A4.09,4.09,0,0,0,53,71.16a4.41,4.41,0,0,0,0-.89,9.6,9.6,0,0,0-.76-2.87c-.28-.68-.56-1.25-.91-1.92.79.94,1.46,1.72,2.28,2.63l1,1.11.5.49.22.19a.46.46,0,0,0,.22.11.36.36,0,0,0,.2-.08l0-.09v-.09a.56.56,0,0,0,0-.15l-.15-.25a13.77,13.77,0,0,0-1-1.39c-.82-1-1.54-1.91-2.39-2.92a17.26,17.26,0,0,0,2.18,1.41,8,8,0,0,0,1.84.79c1.62.46,2.16.21,3.59-.55l.78-.41-.83.18a4.66,4.66,0,0,1-2.86.08l-.33-.12a11.69,11.69,0,0,1-1.21-.53,16.53,16.53,0,0,1-3.36-2.33l-.74-.66a7,7,0,0,0,1.41-4.23c0-.26,0-.52,0-.77a24.28,24.28,0,0,1,3-.7A12.51,12.51,0,0,1,58.45,57a6.06,6.06,0,0,1,1.47.2,2.79,2.79,0,0,1,1.08.48l1.55,1.09-.39-.51c-.69-.9-.89-1.37-2-1.81a4.32,4.32,0,0,0-.86-.25,9.42,9.42,0,0,0-3-.09,18.53,18.53,0,0,0-2.11.33c1.12-.49,2.07-.92,3.17-1.45l1.37-.67.59-.33.26-.17a.46.46,0,0,0,.16-.18.3.3,0,0,0,0-.21l-.07-.08-.08,0h-.15l-.28.06A15,15,0,0,0,57.6,54c-1.24.49-2.27.93-3.49,1.46a16,16,0,0,0,2-1.69,8.45,8.45,0,0,0,1.28-1.54c.9-1.42.82-2,.5-3.6l-.18-.87s0,.38-.06.85a4.62,4.62,0,0,1-.74,2.76c-.06.1-.13.19-.2.29a10.41,10.41,0,0,1-.86,1,17,17,0,0,1-3.18,2.56L52,55.6A7.06,7.06,0,0,0,47,51.74a28.15,28.15,0,0,1,.55-2.83,13.44,13.44,0,0,1,.93-2.58,7.37,7.37,0,0,1,.78-1.26,2.82,2.82,0,0,1,.88-.81l1.61-1-.61.16a4.06,4.06,0,0,0-2.45,1.07,3.8,3.8,0,0,0-.57.68,9.5,9.5,0,0,0-1.29,2.66c-.22.72-.38,1.33-.54,2.07,0-1.22,0-2.26,0-3.49l-.07-1.52-.06-.68,0-.29a.49.49,0,0,0-.11-.23.37.37,0,0,0-.2-.07l-.09,0-.07.06a.64.64,0,0,0-.06.14l-.06.29a16.37,16.37,0,0,0-.11,1.72c0,1.32-.07,2.45-.07,3.77a18.27,18.27,0,0,0-.75-2.49,7.9,7.9,0,0,0-.9-1.79c-.93-1.4-1.5-1.55-3.09-1.9l-.86-.19s.34.17.75.4a4.66,4.66,0,0,1,2.23,1.78l.18.32A9.93,9.93,0,0,1,43.4,47a16.84,16.84,0,0,1,1.06,4c0,.28.08.55.12.79a7.05,7.05,0,0,0-5.28,4M65.46,68a.3.3,0,0,0,0,.1c.2.43.37.87.57,1.35a4.32,4.32,0,0,1,.19,3.41,7.19,7.19,0,0,1-.58,1.26,12,12,0,0,1-1.57,2.17,23.72,23.72,0,0,1-8.07,6,15.38,15.38,0,0,1-2.29.86,8.4,8.4,0,0,1-2.18.33,4.74,4.74,0,0,1-3-1L46.4,80.78a2.24,2.24,0,0,0-3.07.28,7.68,7.68,0,0,1-2,1.72C39.2,84,35.91,82.67,34,81.64a25.32,25.32,0,0,1-7.71-6.16,11.58,11.58,0,0,1-1.37-2,4.2,4.2,0,0,1-.59-2l0-1a3,3,0,0,1,.27-1.41l1.16-1.8a2.18,2.18,0,0,0-.64-3,1.91,1.91,0,0,0-.28-.15A11.91,11.91,0,0,1,23,63a5.47,5.47,0,0,1-2.32-2.91,5.92,5.92,0,0,1-.24-1.82A29.24,29.24,0,0,1,23.11,47.1c1-2.23,3.11-5.3,5.88-5.26a3.09,3.09,0,0,1,.59.08l2.4.65a1.71,1.71,0,0,0,2.11-1.2.83.83,0,0,0,0-.15c.19-1,.75-4.13.88-4.4a5,5,0,0,1,2.65-2.12A13.53,13.53,0,0,1,40.43,34a26.37,26.37,0,0,1,4.94-.34h0a22.8,22.8,0,0,1,5.94.55,10.9,10.9,0,0,1,2.37.82,4.11,4.11,0,0,1,2,1.84A6.22,6.22,0,0,1,56,37.89l.52,3.19a1.82,1.82,0,0,0,2.09,1.51l.19,0,2.4-.63a2.43,2.43,0,0,1,.55-.08,4.11,4.11,0,0,1,2.25.67,7.22,7.22,0,0,1,1.72,1.54,15.46,15.46,0,0,1,2.36,4.09,29.34,29.34,0,0,1,2.18,10.17,10.2,10.2,0,0,1-.14,2,4.12,4.12,0,0,1-1.58,2.55,6.11,6.11,0,0,1-1.16.73L66,64.29a2.15,2.15,0,0,0-1,2.82l.42.91" transform="translate(43.42 32.74)"/><path class="b54318ec-bbd2-40fe-a502-5fd462b62474" d="M271.55,279.65a.39.39,0,0,0-.15.16l-1.65,4L268,279.94s0,0-.05-.07c.2-.19.39-.41.59-.64a1.64,1.64,0,0,1,2.21-.19Zm20.26-17.44a.33.33,0,0,0,0,.06l3,3-4.08.12c-.1-.24-.23-.5-.36-.78a1.53,1.53,0,0,1,.7-2Zm-36.18-22.84a.32.32,0,0,0,0-.25l-1.06-4.07,3.78,2a.39.39,0,0,0,.18,0c-.09.48-.2,1.05-.32,1.73,0,0,0,.06,0,.1a1.09,1.09,0,0,1-1.34.75Zm26-2.27a.31.31,0,0,0,.28,0l3.78-2-1.05,4.07a.44.44,0,0,0,0,.23c-.35.09-.77.19-1.28.35l-.12,0a1.19,1.19,0,0,1-1.36-1Zm-32,28.11h-.08l-4.29-.13,2.95-3a.34.34,0,0,0,.09-.22,11.24,11.24,0,0,0,1,.55l.19.1a1.56,1.56,0,0,1,.47,2.15Z" transform="translate(43.42 32.74)"/><path class="b54318ec-bbd2-40fe-a502-5fd462b62474" d="M286.53,261.52h0Zm-.91,1.76h0ZM270.43,250a6.42,6.42,0,1,1-6.41,6.41,6.4,6.4,0,0,1,6.41-6.41m5.12,11.27c.14-.15.26-.29.39-.45,3.13,2.86,6.14,4.35,7.94,3.74h0c-1.68,1.17-4.91-.24-8.32-3.3m-.44.42a4,4,0,0,0,.36-.35c.46.5.94,1.07,1.44,1.65a31,31,0,0,1,3.48,4.53,29.62,29.62,0,0,1-3.9-4.17l-1.38-1.66m-.57.46c.15-.12.32-.23.46-.36,2.44,3.84,3.3,7.25,1.88,8.7l0,0c.88-1.67-.06-4.84-2.32-8.36m-8.61-.31c-3.39,3-6.61,4.42-8.27,3.26,0,0,0,0,0,0,1.77.6,4.75-.84,7.83-3.65a4.28,4.28,0,0,0,.45.41m.49.36c-.43.52-.89,1.1-1.39,1.68a27.92,27.92,0,0,1-3.9,4.16,31.51,31.51,0,0,1,3.48-4.52l1.4-1.62a3.91,3.91,0,0,0,.41.3m.62.4c-2.3,3.55-3.28,6.75-2.39,8.44v0c-1.42-1.45-.58-4.86,1.89-8.72.16.11.33.21.5.31m3.87-13.22c.63-4.47,2.19-7.59,4.19-7.77h0c-1.74.7-3.07,3.71-3.62,7.83-.2,0-.39,0-.59-.06m-.66,0c0-.64,0-1.34,0-2.06a29.68,29.68,0,0,1,.28-5.7,28.74,28.74,0,0,1,.28,5.7c0,.72,0,1.42,0,2.06h-.51Zm-.71.05c-.55-4.12-1.87-7.11-3.61-7.81h0c2,.18,3.56,3.29,4.19,7.76a5.87,5.87,0,0,0-.59.05m7.76,5.41c4.41-1.25,7.93-1.1,8.92.69h0c-1.37-1.34-4.73-1.32-8.81-.11,0-.2-.07-.4-.12-.59m-.17-.63,1.9-.86a29.49,29.49,0,0,1,5.34-2,30.41,30.41,0,0,1-5.11,2.55c-.7.31-1.37.59-2,.84,0-.16-.09-.32-.14-.49m-.25-.66c3.51-2.16,5.7-4.56,5.65-6.43v0c.63,1.91-1.59,4.58-5.43,7-.08-.19-.15-.38-.22-.56m-13.13.65c-3.94-2.41-6.23-5.12-5.59-7.06v0c-.06,1.9,2.19,4.33,5.79,6.51a3.51,3.51,0,0,0-.21.57m-.17.58-2.15-.92a30.41,30.41,0,0,1-5.11-2.55,29.26,29.26,0,0,1,5.33,2c.75.32,1.44.64,2.07.93a2.85,2.85,0,0,0-.14.5m-.13.7c-4.16-1.26-7.6-1.3-9,.06h0c1-1.81,4.6-1.94,9.08-.63a5,5,0,0,0-.1.58" transform="translate(43.42 32.74)"/><path class="a933de72-a24d-47a3-92ac-a68f11a4c656" d="M252.32,261.15a6,6,0,0,1-2-.4c-3.22-1.19-1.62-4-1.47-4.46a29.46,29.46,0,0,1,1.54-2.92,19.78,19.78,0,0,0,1.24-2.62c.19-.55.8-3.77.84-4.31a15.28,15.28,0,0,1,.49-2.56,3,3,0,0,1,4.29-2,8.05,8.05,0,0,1,2.53,1.47,6.66,6.66,0,0,0-3.21-2.26,3.14,3.14,0,0,0-4.35,2.12,16.87,16.87,0,0,0-.52,2.69c-.06.57-.72,3.93-.93,4.52a19.42,19.42,0,0,1-1.29,2.76,29.87,29.87,0,0,0-1.59,3.06c-.16.45-1.81,3.45,1.4,4.64a4.78,4.78,0,0,0,3.06.24M282,242.57a5.94,5.94,0,0,1,1.9-.84c3.31-.88,3.65,2.37,3.76,2.81a27,27,0,0,1,.43,3.26,17.48,17.48,0,0,0,.49,2.86c.15.56,1.52,3.54,1.79,4a17,17,0,0,1,1.09,2.36,3,3,0,0,1-2.39,4.09,7.94,7.94,0,0,1-2.91.26,6.71,6.71,0,0,0,3.91,0,3.14,3.14,0,0,0,2.34-4.27,21.11,21.11,0,0,0-1.1-2.49,41.08,41.08,0,0,1-1.85-4.22,20.49,20.49,0,0,1-.54-3,29.32,29.32,0,0,0-.46-3.43c-.13-.46-.5-3.87-3.83-3a4.73,4.73,0,0,0-2.63,1.56m-21.54-1.3a6.2,6.2,0,0,1-.32-2.05c0-3.43,3.22-2.92,3.68-2.92a26.31,26.31,0,0,1,3.27.44A19,19,0,0,0,270,237a40.27,40.27,0,0,0,4.35-.7,17.45,17.45,0,0,1,2.57-.43,3,3,0,0,1,3.33,3.35,7.76,7.76,0,0,1-.51,2.89,6.67,6.67,0,0,0,1-3.79,3.14,3.14,0,0,0-3.5-3.36,18.59,18.59,0,0,0-2.71.44c-.53.14-3.94.69-4.55.69a21.11,21.11,0,0,1-3-.25,28.77,28.77,0,0,0-3.43-.44c-.48,0-3.87-.51-3.87,2.92a4.84,4.84,0,0,0,.83,3M253.25,264a4.77,4.77,0,0,0-2.38,1.94c-2,2.81,1.12,4.34,1.51,4.61a32.61,32.61,0,0,0,3.07,1.6,20.23,20.23,0,0,1,2.63,1.52,46.08,46.08,0,0,1,3.35,3.18,17.42,17.42,0,0,0,2,1.9,3.15,3.15,0,0,0,4.8-.76,6.75,6.75,0,0,0,1.32-3.69,7.69,7.69,0,0,1-1.23,2.66,3,3,0,0,1-4.65.84,15.91,15.91,0,0,1-1.85-1.83,41.76,41.76,0,0,0-3.18-3,17.22,17.22,0,0,0-2.51-1.44,30.88,30.88,0,0,1-2.93-1.5c-.37-.26-3.31-1.69-1.35-4.51a6,6,0,0,1,1.44-1.48m33.91.07a6.12,6.12,0,0,1,1.44,1.5c2,2.82-1,4.24-1.35,4.51a28.65,28.65,0,0,1-2.93,1.5,19.44,19.44,0,0,0-2.51,1.44,39.72,39.72,0,0,0-3.16,3.05,15.86,15.86,0,0,1-1.86,1.82,3,3,0,0,1-4.65-.85,7.8,7.8,0,0,1-1.24-2.65,6.63,6.63,0,0,0,1.34,3.69,3.15,3.15,0,0,0,4.79.76,19.33,19.33,0,0,0,2-1.9,44,44,0,0,1,3.35-3.18,20.25,20.25,0,0,1,2.64-1.53,30.29,30.29,0,0,0,3.06-1.59c.39-.27,3.47-1.8,1.51-4.61a4.92,4.92,0,0,0-2.39-2M264,253.43l-.74-.47a16,16,0,0,1-3.18-2.56,8.34,8.34,0,0,1-.86-1l-.21-.29a4.64,4.64,0,0,1-.74-2.76c0-.47-.06-.84-.06-.84s-.08.37-.17.86c-.33,1.59-.41,2.18.5,3.6a8.33,8.33,0,0,0,1.26,1.54,21.17,21.17,0,0,0,2,1.69c-1.21-.53-2.25-1-3.48-1.46-.56-.23-1.05-.41-1.63-.59l-.29-.06a.64.64,0,0,0-.14,0l-.08,0-.07.06a.24.24,0,0,0,0,.22.58.58,0,0,0,.16.19l.25.16.6.32,1.36.68c1.11.53,2,1,3.17,1.45-.74-.15-1.36-.25-2.1-.33a9.8,9.8,0,0,0-3,.09,3.81,3.81,0,0,0-.85.25c-1.09.44-1.28.91-2,1.81l-.39.51,1.54-1.09A3,3,0,0,1,256,255a6.5,6.5,0,0,1,1.46-.2,13.16,13.16,0,0,1,2.73.19,25,25,0,0,1,3.2.75,5.79,5.79,0,0,0,0,.72,7,7,0,0,0,1.95,4.87l-.62.54a16.65,16.65,0,0,1-3.37,2.34,12.85,12.85,0,0,1-1.2.53l-.34.12a4.59,4.59,0,0,1-2.86-.09l-.84-.17.8.4c1.42.77,2,1,3.58.56a8.73,8.73,0,0,0,1.84-.79,17.26,17.26,0,0,0,2.18-1.41c-.85,1-1.57,1.88-2.38,2.91a14,14,0,0,0-1,1.4l-.15.25a1.31,1.31,0,0,0,0,.15v.09l.05.08a.26.26,0,0,0,.2.08.39.39,0,0,0,.22-.11l.23-.18.48-.49,1-1.11c.81-.92,1.49-1.69,2.28-2.63a19,19,0,0,0-.92,1.93,9.58,9.58,0,0,0-.75,2.86,5.2,5.2,0,0,0,0,.88,4.23,4.23,0,0,0,1.17,2.4l.38.52s-.55-1.66-.6-1.78a3.17,3.17,0,0,1-.15-1.19,7.26,7.26,0,0,1,.22-1.46,13.3,13.3,0,0,1,1-2.57,24.55,24.55,0,0,1,1.49-2.64,7,7,0,0,0,3.2.77,7.2,7.2,0,0,0,3.94-1.19,27.4,27.4,0,0,1,1.41,2.53,13.3,13.3,0,0,1,1,2.57,7.37,7.37,0,0,1,.22,1.46,3.2,3.2,0,0,1-.15,1.2c-.05.11-.6,1.77-.6,1.77l.37-.51a4.12,4.12,0,0,0,1.18-2.4,3.8,3.8,0,0,0,0-.89,9.87,9.87,0,0,0-.74-2.87c-.3-.68-.57-1.26-.92-1.92.78.94,1.47,1.72,2.28,2.63l1,1.12.49.48.22.18a.45.45,0,0,0,.23.11.26.26,0,0,0,.19-.07l.05-.09v-.09a.89.89,0,0,0,0-.14l-.15-.26a13.87,13.87,0,0,0-1-1.39c-.81-1-1.53-1.91-2.38-2.92a17.73,17.73,0,0,0,2.18,1.42,8.77,8.77,0,0,0,1.85.78c1.61.47,2.14.21,3.57-.55l.79-.41-.83.18a4.66,4.66,0,0,1-2.86.08l-.34-.12a10.6,10.6,0,0,1-1.2-.52,16.7,16.7,0,0,1-3.36-2.34c-.28-.24-.52-.45-.75-.67a6.9,6.9,0,0,0,1.42-4.22c0-.25,0-.52-.05-.77a23.14,23.14,0,0,1,3-.7,13.21,13.21,0,0,1,2.74-.19,6.49,6.49,0,0,1,1.45.2,3,3,0,0,1,1.1.48l1.54,1.09-.39-.51c-.69-.9-.88-1.37-2-1.81a4.15,4.15,0,0,0-.85-.25,9.8,9.8,0,0,0-3-.09c-.75.08-1.37.18-2.11.33,1.13-.49,2.06-.92,3.16-1.45l1.37-.68.6-.32.25-.16a.77.77,0,0,0,.17-.19.41.41,0,0,0,0-.22l-.08-.06-.08,0a.74.74,0,0,0-.15,0l-.28.06c-.58.18-1.07.36-1.63.59-1.23.49-2.26.93-3.47,1.46a19.85,19.85,0,0,0,2-1.69,8.33,8.33,0,0,0,1.26-1.54c.91-1.42.83-2,.5-3.6-.09-.49-.17-.86-.17-.86s0,.37-.07.84a4.63,4.63,0,0,1-.73,2.76l-.21.29a9.26,9.26,0,0,1-.85,1,16.37,16.37,0,0,1-3.19,2.56l-.62.39a7,7,0,0,0-5.06-3.86,23.56,23.56,0,0,1,.56-2.83,11.92,11.92,0,0,1,.92-2.59,6.71,6.71,0,0,1,.78-1.25,3,3,0,0,1,.88-.82l1.61-1-.62.15a4.24,4.24,0,0,0-2.45,1.07,4.87,4.87,0,0,0-.57.69,9.75,9.75,0,0,0-1.28,2.66c-.22.72-.38,1.34-.54,2.06,0-1.22,0-2.26-.05-3.47l-.06-1.52-.06-.69-.05-.29a.7.7,0,0,0-.11-.23.31.31,0,0,0-.2-.07l-.1,0-.06.06a1,1,0,0,0-.06.14l-.06.28a16.38,16.38,0,0,0-.12,1.72c-.05,1.33-.06,2.46-.06,3.79a20.46,20.46,0,0,0-.75-2.5,8.12,8.12,0,0,0-.9-1.79c-.93-1.39-1.51-1.55-3.09-1.91l-.87-.18.75.4a4.64,4.64,0,0,1,2.24,1.78l.18.31a9.33,9.33,0,0,1,.58,1.19,16.84,16.84,0,0,1,1.06,3.95c0,.29.08.54.11.8a7.06,7.06,0,0,0-5.28,4m26.17,12.34,0,.1c.2.43.38.88.57,1.35a4.24,4.24,0,0,1,.19,3.41,7.24,7.24,0,0,1-.57,1.27,12.89,12.89,0,0,1-1.57,2.17,23.85,23.85,0,0,1-8.07,6,15.45,15.45,0,0,1-2.3.85,8.26,8.26,0,0,1-2.17.33,4.63,4.63,0,0,1-3-1l-2.17-1.67a2.23,2.23,0,0,0-3.06.29,7.68,7.68,0,0,1-2,1.72c-2.17,1.24-5.47-.11-7.36-1.14a25.34,25.34,0,0,1-7.7-6.17,11,11,0,0,1-1.38-2,4.38,4.38,0,0,1-.59-2v-1a2.89,2.89,0,0,1,.28-1.42c.4-.64.74-1.17,1.16-1.79a2.2,2.2,0,0,0-.65-3l-.27-.15a11.28,11.28,0,0,1-1.85-1.05,5.43,5.43,0,0,1-2.32-2.9,6.23,6.23,0,0,1-.23-1.82,29.1,29.1,0,0,1,2.64-11.21c1-2.23,3.11-5.29,5.87-5.26a3,3,0,0,1,.59.08l2.4.65a1.72,1.72,0,0,0,2.12-1.2c0-.05,0-.09,0-.15.2-1,.75-4.12.89-4.4a5,5,0,0,1,2.65-2.11,13.38,13.38,0,0,1,2.77-.76,27.13,27.13,0,0,1,4.93-.34h0a22.31,22.31,0,0,1,5.94.56,11,11,0,0,1,2.38.81,4.09,4.09,0,0,1,2,1.84,5.45,5.45,0,0,1,.29,1.07l.52,3.2a1.83,1.83,0,0,0,2.09,1.5.53.53,0,0,0,.18,0l2.4-.63a2.61,2.61,0,0,1,.55-.08,4.05,4.05,0,0,1,2.26.68,6.8,6.8,0,0,1,1.72,1.54,15.31,15.31,0,0,1,2.35,4.07A29.5,29.5,0,0,1,295,256.06a11,11,0,0,1-.15,2,4.06,4.06,0,0,1-1.57,2.55,7.11,7.11,0,0,1-1.16.74l-1.38.69a2.16,2.16,0,0,0-1,2.83c.16.32.28.61.43.91" transform="translate(43.42 32.74)"/><path class="a8172d25-b933-41dc-8498-7bbe5a3d3100" d="M85.84,285c-.1.41.3.37.55.82-1.57.11-3.78-.45-5.68,0-.27.37.14.6.44.7-2,.16-5.17.78-6.56-1.15-1.29-1.6,1.69-5.07-1-5.25-.78-1-2.76-2.09-3.71-1.72a5.46,5.46,0,0,1,1.5,3c-1.09,2.75.88,3.17,1.22,5.26-.85.4-2.31-.49-2.79-1.23-.92-1.61-2.27-2.54-3.51-.57a3,3,0,0,0-2.71,3.51,10.29,10.29,0,0,1,2.38-.71c.3.48,0,1,.84,1,.45-.33,1.3-.66,1.57-.22a2.58,2.58,0,0,0,2.93,1c-.61,1.72-4.29,1.2-3.77,2.92-.75,1.26-1.3,3.43,0,4.47a4.17,4.17,0,0,1,1.69-2.27c.68.48,1.36-.12,2.08-1.13.57-.66.75-1.56,2.1-2,.75,1.11,2.21,1.34,3,2,.11,1.12.11,2.23,1,2.57s.68-.34,1.56-.07a7.73,7.73,0,0,1,.54,3c1.2,0,2.22-2.75,1.64-4.36.85-1.49-2.07-1.82-2.32-3.32.65-1,1.43-.82,2.66-.29.79,1.23,2.92-.71,3.44-.82.2.78-.86,1.11-.65,1.94a5.53,5.53,0,0,0,4-.94c-.31.38-.51.71-.85,1.16,1.16.45,2.65-.71,3.6-1.49.17.44-.33.6-.14,1.19a6.78,6.78,0,0,0,3.68-3.69c1,.23.55,1.45,1.16,2,.75,0,.2-1.12.64-1.12a8.12,8.12,0,0,0,4.15,2.21,2.75,2.75,0,0,0,.55-.6c-.55-.23-1.06-.38-1.3-1.12,1.57.33,2.66,1.9,4.46,1.83.38-.6-.37-.6-.37-1.27,1.35,0,2.34,2.9,4,2.09,0-.34-.51-1.09-.07-1.42.75,1.83,3.57,2.16,3.4,4.51-5.84-1.16-12.85-2.58-18.2.93a12.11,12.11,0,0,1-3.22.52,4.83,4.83,0,0,0,1.93,1.56c-.68,1.87-3.2,1.53-4.76,2,.17,1.38,2.48.67,2.89,1.61-.51,2.37-.3,6.55-2.41,6.89-2.08.56-4.94,1.82-6.7.4-1.23-1,1.46-4.68-2.45-3.79-3-.89-3.88-.23-4.79,1a17.18,17.18,0,0,1,2.38.48c.31.68-.69,1.05.06,1.6,1.5.83,2.87.9,3.57,2.31-3.32,2-6.39-4.17-7.14-.34-2,.46-2.72,2-2.75,4.11.75-.41,2-1.19,3.13-.75.12.9.26,1.57,1.42,1.45a5.75,5.75,0,0,1,4.49-.55c.15.89-.3,2.16-1,2.27a1.57,1.57,0,0,0-.3,2.61,3.76,3.76,0,0,0,1.26,4.06c.72.67.45-.26.85-.26-.4-.11-.4-.78-.4-1.12.4-.6.4-1.75,1.25-1.75s1.34-.23,1.43-.89c0-1.16-.61-2.2-.09-2.87.61.22,1.59-.34,1.79.6a2.1,2.1,0,0,0,.24,2.27c.82.56,1.43-.34,1.63.33a2.49,2.49,0,0,1,.24,3.1c.82.33,1.66-.41,2-1.16.61-1.49,1-3.65.3-4.47a4.9,4.9,0,0,1-2.52-3.17c5.72-4.88,9.25-.63,9.83.41.82-2.65.65-4.36,1.47-5,.74-.11,1,.67,1.56.67a7.19,7.19,0,0,1,3.27-5.74c.4.38,0,1.09.3,1.71a8.32,8.32,0,0,1,4.76-3.19c0,.59-.61,2,.31,2.08.85-1.23,2.79-1.9,4.35-2.24-.21,6.15,2.07,7.27,1.29,8.19a7.42,7.42,0,0,1-2.51,2.88c.24.71,1.26.78,2,.56s1-.78,1.56-.41a3.34,3.34,0,0,0,1,2.46c.68.37,1.91,1.38,2.21.37-.74-.37-.74-2.09-.44-2.83,1,1.34,3.74,1.05,4,3,.07,1.15-1.23,5.63-2.21,6.41-1.32-1-2-3.13-2.92-2.57-1.61-1.16-3.44-.53-3.61.41a14.18,14.18,0,0,0,2,1.67c-.4.45-.54,1.23.25,1.45,1,.24,2.07.08,2.82.68-1,1.26-5-1.08-4.46,1.52-1,.86-2.28,1.57-1.83,3.77.51-.56,1.46-1.71,2.48-1.26.55.48.44,1.59,1.15,1.37,1.47,0,1.2-2.31,2.32-2.05,1.46.56,1.7-.89,3-1,.68,1.12-1.4,1.72-1.06,3.31,1.67.83.52,3.59,2.18,4.1a4.94,4.94,0,0,0,.75-.14c-1-.76,0-2.58.38-3.47.53-.82,1.9-1.38,1.28-2.68-.3-.56-1-1-.53-1.83a1.54,1.54,0,0,1,2-.78c1.36.34.37,2.05,1.36,2.61.54.15,1.06-.34,1.25.4.35.68.58,1.46.93,2.06a4.69,4.69,0,0,0,.92-4.21,1.38,1.38,0,0,0-.72-1.9c-1.13-.22-2.07-.46-2.28-1.72a8.31,8.31,0,0,1,.34-6.08,5.44,5.44,0,0,1,.62,2.5c2-.55.43-5.22.81-5.55.82-1-.88-4.25-2-5.29.34-.71.64.45,1.16,0-.11-1.61-1.87-2-2-3.46.38,0,1,.78,1.23,0a17.45,17.45,0,0,1-2.45-4c.54,0,1,1.15,1.6.49.14-1.68-.85-3.25-1.4-4.81a3.85,3.85,0,0,0,1.4,1.11c.51-.82-.75-1.93-1.06-2.83,3.54,2.16,4.12,9.14,9.6,9.28,5.88-.23,5.88-1.86,8-.48.1.59.1,1.15.54,1.15.82-.71.58-2.05.51-2.87-.23-.7-1.26-.78-.81-1.37,3.43-8.84-5-17.48.78-24,1.43-1.65,2.71-2.42,3-5.12-.67.16-.88,1.12-1.87,1.38,1.56-2.87,3.37-7.34,1.91-11-.52-1.34-2.42-1.67-3.54-1.26a2.25,2.25,0,0,0-1.4,2.68c.72.71,1.17-.82,1.91-.23,1.26,2.05.31,4.36-.51,6.3-2.38,4-7.79,10.37-3.81,21.77-1,.26-2,.67-2.27,1.61,1.22.44,2.85.88,3.33,2.45,1.15,4-3.44,7.34-6.7,5.74-1.5-.74-5.89-8.16-7.82-9.95S119.92,287.75,114,284c3.23,0,6.9-.26,9.73-2.16-.55-.41-2.35-.11-3.51-.49,2.82-.62,7.69-.78,10-3.16-2.54-.45-5.33-.12-7.85-1.31,2.73-.52,11.5-1.27,13.37-5.6a36.92,36.92,0,0,1-10.55.68c4.49-1.6,9.19-4.22,12-8.12.06-.38,0-.71.2-.9l-6.63,1.46c1.56-1.2,13.67-11.15,13.09-14.1-2.38.64-4.57,2.61-7.86,3.51,4.25-4.47,8.54-9.17,11-15.46.13-.68.78-1.16.24-1.24-2.48,2.62-5,4.55-8.27,7.79,1-2.3,2.52-4.13,3.68-6.63,1.66-2.09,2.27-5.4,2.27-7.72-.81.34-.81,1.43-1.73,2.2a55.44,55.44,0,0,1-13.78,11,18,18,0,0,0,3.71-6.56c-2.48,2.16-3.19,3.65-7.75,7.95,2.76-4.18,7.28-10,8.44-15-4.33,4.2-8.55,9.82-14.09,14.82a20.93,20.93,0,0,0,2.92-6.82c-5.58,7.45-12,7.75-17.14,13.93a8.63,8.63,0,0,0-1.39-4c1.77-.37,5-2.13,3.78-3.1,1.18-.81,3-3,2.38-3.8,1.12-1.48,2.75-4.36,2.65-5.25-.2-1.08-4.46.6-6.19,1.6a24.77,24.77,0,0,0,1-3c-.85-1.6-10.27,4-10.51,6.86-3.37-.71-9.76-1-8.91,1-1.09.38-3.09.71-3.78,2.09-.44,1.12-.1,3.35,1.56,3.91.15-.59,0-1.64.69-1.71,2.48.33,3.23,3.27,5.31,4.43-1.57.71-4,1.08-5-.3a2.2,2.2,0,0,0,.55,2.51c.95.92,2.17,1,3,1.48a6,6,0,0,0-2.42,2.54c.31.41.75.41.81.33-.58,1.79-3.12,1.16-4.25,2.61.2.49.58.49.92.74-1.16,1-2.72,2.12-2.93,4.07a.72.72,0,0,0,.52.26c.13.81-.72.33-1.13.33-.94-1-.75-2.83-1.35-4a15.53,15.53,0,0,1-.82,1.71c-1.13-.14.07-3.05-.89-3.35-.51-.15-.61,1-1.15.26-1.67-4.32-3.91-9.32-1.5-13,1.12-1.72,3.61-.6,4.55-2.36.32-1.26-.33-.48,0-1.41.43-2.05-.24-3.46-1.1-4-.37,0,.48.44-1.12,2-2-.38-1.56,2.53-3.94,2.61.13-.9,2-3.17-.44-3.7a6.93,6.93,0,0,0-3.31-2.72c-.74,0-1.66.08-1.22.64,1.13.45,1.7,1.72,2.11,2.79-1.57-.18-1.84.71-1.39,1.72.61,1,1.32,2.53.68,3.36-2.08-.56-3,.37-3.34,1.08-1.09-.08-4.18.07-4.18,1.29a5.71,5.71,0,0,1,3.88,1.64c.2.79.44,1.24,1.56,1.13.72-.34,1.16-.9,2.21-.9-2.21,1.23-.74,5.59-3.33,6.75-1,.94-.1,2.08-.44,2.54-.65,1.29-2.11.22-2.8.7.69,1,2.59,1.49,3.82,1.49.75-.9,2.62-.9,2.75-2.19.31-1.84.31-3.7,1.56-4.7.62,2.64-.4,5.25.32,7.86-.46,1.19-2.08.4-2.53.86A5.67,5.67,0,0,0,73,266.65c-.7,1.13-2.17-.1-2.51-.1.3,1.6,1.77,2.31,3,3.23-.31.57-1,.45-1.67.34.75,2.21,2.59,2.76,4.49,3.77-.34.38-1,.15-1.66.38a5,5,0,0,0,4.12,3A6.39,6.39,0,0,1,77,278.29c2,1.33,4.48,1.83,7.1,2.72,1,.48.45,1.68,1.06,2.57.14.6.37,1.64.71,1.38" transform="translate(43.42 32.74)"/><path class="a2f14a0c-36a5-4924-bfdd-5ea6b175097f" d="M111.25,328.91c.47-.73,1.9,0,2.24-.31.07-1.15-1.43-.93-1.7-.55a6.9,6.9,0,0,0-.54.86" transform="translate(43.42 32.74)"/><path class="b3d82be2-4f4e-498e-9f1a-75be6ecd6776" d="M99.75,265.27v.1h0a.54.54,0,0,1,0-.1" transform="translate(43.42 32.74)"/><path class="e5f7fb5d-82d6-4c22-9a12-7751a4151f92" d="M79,260.63c-.75.6-.48,2-1.19,2.76-.72-.52-.83-2.05-1.47-2.95-.41,1.12.45,3.66-.81,4a9,9,0,0,0-.85-2.19c-.75.59-.24,2-.75,2.76a2.5,2.5,0,0,0-2.18-.94c0,1.49,1.87,1.71,2,3-.68.59-1.56.26-1.81.82.41,1.16,2.22.9,2.73,1.61-.37.67-1.26.89-1.67,1.26.71,1.83,3,1.57,4,3.06a1.22,1.22,0,0,1-1.25.71,3.36,3.36,0,0,0,2.52,2.09,4.9,4.9,0,0,0,.75-.08c.34-.07.61-.12.82.08a12,12,0,0,1-.82,1,2.94,2.94,0,0,1-.89.59,2.89,2.89,0,0,0,.89.52,27.29,27.29,0,0,0,3.74,1.31,2.67,2.67,0,0,0,.54.07c.82-1.23-.54-3.61.31-5.58-.65.34-.31,1.87-.85,2.16a.48.48,0,0,1-.44,0,20.18,20.18,0,0,1,.44-6.23c0-.07.07-.19.1-.29a.14.14,0,0,1-.1,0c-.51.29-.48,1.35-.82,1.91-1-1,.1-3.44.55-4.93l.27-.56a.47.47,0,0,0,.1-.15h-.1c-1,0-1.49-.67-1.87-1.9,0-.48-.14-.59-.14-1.19-.27.26,0,.93-.61,1.27A2.5,2.5,0,0,1,79,262.72,7.06,7.06,0,0,1,79,261c0-.14.07-.29.1-.44,0,0-.07,0-.1.07" transform="translate(43.42 32.74)"/><path class="e5f7fb5d-82d6-4c22-9a12-7751a4151f92" d="M73.42,281.39c-.17.23-.38.49-.51.53-.47.14-1.08,0-1,.18.17,1.57,1.26,2.65,1.56,4.17l.1.38H75c-2.38-2.76-.28-4.93-1-5.52-.17-.15-.38,0-.61.26" transform="translate(43.42 32.74)"/><path class="e5f7fb5d-82d6-4c22-9a12-7751a4151f92" d="M107.09,278.22a4.42,4.42,0,0,1-1.46-.56,2.86,2.86,0,0,0,1.46,2,10.8,10.8,0,0,0,2.58,1,11.7,11.7,0,0,0,4,.3c.07,0,.1,0,.13,0a.37.37,0,0,0-.13-.11c-.91-1.19-2.48-1.45-4-2.09a.53.53,0,0,1-.21-.11,21.71,21.71,0,0,1-2.37-.41" transform="translate(43.42 32.74)"/><path class="e5f7fb5d-82d6-4c22-9a12-7751a4151f92" d="M109.48,275.77l-.55-.22a2.38,2.38,0,0,0,.55.67,4.47,4.47,0,0,0,2.82,1c.3.6-.11.87-.62,1a15.17,15.17,0,0,0,1.74.19,19.74,19.74,0,0,0,2.44,0,6.31,6.31,0,0,0,1.5-.33,3.23,3.23,0,0,0,.62-.3c-.21-.08-.41-.19-.62-.27a12,12,0,0,0-1.5-.48,18.17,18.17,0,0,0-2.44-.48,27.37,27.37,0,0,1-3.94-.74" transform="translate(43.42 32.74)"/><path class="e5f7fb5d-82d6-4c22-9a12-7751a4151f92" d="M115.86,271.1a12.79,12.79,0,0,1-1.8,1.16c.58,0,1.2,0,1.8,0s1-.1,1.5-.19a5.83,5.83,0,0,0,1-.15c.3,0,.61-.1.88-.14a32,32,0,0,0,4.08-1.19c.55-.19,1.06-.37,1.57-.6-.51-.15-1-.26-1.57-.37a13.56,13.56,0,0,0-4.08-.07l-.88.1-1,.23c-.14,0-.27.07-.37.11a5,5,0,0,1-1.13,1.15" transform="translate(43.42 32.74)"/><path class="e5f7fb5d-82d6-4c22-9a12-7751a4151f92" d="M115.86,268.46a3.06,3.06,0,0,1-.81.22h.81c.55,0,1,0,1.5,0l1-.12a4.92,4.92,0,0,0,.88-.11,19.49,19.49,0,0,0,4.08-1,25.15,25.15,0,0,0,2.41-.86c-.68-.08-1.52-.3-2.41-.48-1.45-.37-3.06-.63-4-.06h0a0,0,0,0,0,0,0h0v0a5.55,5.55,0,0,1-.88,1,5.13,5.13,0,0,1-1,.67,5.24,5.24,0,0,1-1.5.67" transform="translate(43.42 32.74)"/><path class="e5f7fb5d-82d6-4c22-9a12-7751a4151f92" d="M113.42,279.12h-.18a.81.81,0,0,0,.18.26,4.27,4.27,0,0,0,2.44.93c.51.08,1,.15,1.5.26.21,0,.41.11.62.15a1,1,0,0,0,.34,0,8,8,0,0,0,.88-.07c1.33-.11,2.73-.19,4.08-.41a17.71,17.71,0,0,0,2.59-.49,12.24,12.24,0,0,0,3.19-1.3,14.63,14.63,0,0,1-3.19-.15,20.83,20.83,0,0,1-2.59-.52c-1.33-.33-2.69-.71-4.08-1a7.58,7.58,0,0,0-.88-.19c-.17,0-.39-.1-.58-.15a3,3,0,0,0,.58.41,1.67,1.67,0,0,1,.88.93.71.71,0,0,1,.1.31.13.13,0,0,1-.1,0,7.57,7.57,0,0,1-.88.3c-.31.1-.62.18-1,.26s-1,.22-1.5.33a17.38,17.38,0,0,1-2.44.19" transform="translate(43.42 32.74)"/><path class="e5f7fb5d-82d6-4c22-9a12-7751a4151f92" d="M115.86,265.81h1.5a7.47,7.47,0,0,0,1,0,5.36,5.36,0,0,0,.68-.06c-.21,0-.44,0-.68-.09s-.62,0-1-.07-1,0-1.5-.08a5.2,5.2,0,0,1-1-.1c.14.34.51.1,1,.44h0" transform="translate(43.42 32.74)"/><path class="e5f7fb5d-82d6-4c22-9a12-7751a4151f92" d="M118.32,257a1.93,1.93,0,0,1-.34.19,1.15,1.15,0,0,0,.34.36,3.85,3.85,0,0,0,.88.45,4,4,0,0,0,1.77.23c.44,0,.51.67.13.82-.54.55-1,.55-1.56,1.11a15.07,15.07,0,0,0,3.74-1.45,26.94,26.94,0,0,0,2.59-1.49c.64-.41,1.26-.86,1.84-1.27-.61,0-1.2-.1-1.84-.1a18.1,18.1,0,0,0-6.67.77l-.88.38" transform="translate(43.42 32.74)"/><path class="e5f7fb5d-82d6-4c22-9a12-7751a4151f92" d="M119.2,255.52a.48.48,0,0,1-.11.19s.08,0,.11,0a19.33,19.33,0,0,0,4.08-2.61,34.27,34.27,0,0,0,2.59-2.35c.54-.52,1-1.08,1.6-1.64a5.83,5.83,0,0,0-1.6-.15,6.66,6.66,0,0,0-2.59.71,21.51,21.51,0,0,0-4.08,2.83c-.24.22-.47.41-.71.6a.85.85,0,0,0,.71.07c.57-.19,1.16-.67,1.7-.29-.34,1.22-1,1.67-1.7,2.67" transform="translate(43.42 32.74)"/><path class="e5f7fb5d-82d6-4c22-9a12-7751a4151f92" d="M117.36,273c-.48,0-1,0-1.5,0-.81,0-1.63,0-2.44,0a14.26,14.26,0,0,1-1.87-.24,2.16,2.16,0,0,0,1.87.64c.88,0,1.77-.18,2.21-.15-.07.9-1.26,1-1.26,1.9.44,0,1-.06,1.49-.11l1.5-.22a7.11,7.11,0,0,0,1-.26,6.07,6.07,0,0,0,.88-.3,5.16,5.16,0,0,0,1.26-.82,12.24,12.24,0,0,0-1.26-.22l-.88-.12c-.31,0-.62,0-1-.07" transform="translate(43.42 32.74)"/><path class="e5f7fb5d-82d6-4c22-9a12-7751a4151f92" d="M123.28,268.23a4.94,4.94,0,0,1-1.57.34,7.26,7.26,0,0,1,1.57.19c.89.11,1.7.33,2.59.48h.27a1.39,1.39,0,0,1-.27.6c-.55.81-1.87.9-2.48,1.38a15.38,15.38,0,0,0,2.48-.34,18.62,18.62,0,0,0,11-7.49c-3.12,1.27-7.54,1.19-9.92,2.79a11.69,11.69,0,0,1-1.09.75,11.86,11.86,0,0,1-2.59,1.3" transform="translate(43.42 32.74)"/><path class="a2f14a0c-36a5-4924-bfdd-5ea6b175097f" d="M120.05,334.12c0-1.15,1.15-3,.92-3.46-.72-.49-1.23,1.37-1.13,2.16a3.43,3.43,0,0,0,.21,1.3" transform="translate(43.42 32.74)"/><path class="e5f7fb5d-82d6-4c22-9a12-7751a4151f92" d="M123.28,264.58a14.19,14.19,0,0,1-1.35.45,4.61,4.61,0,0,0,1.35.3,23.79,23.79,0,0,1,2.59.38,1.88,1.88,0,0,0,.37.06,19,19,0,0,1,3.84-1.52c5.82-5.63,10.55-8.17,13-13.12a44.84,44.84,0,0,1-7.27,3.39,78.8,78.8,0,0,1-9.9,6.67,3.25,3.25,0,0,1-.59.37,3.23,3.23,0,0,0,.59.16c.57.1,1.09.18,1.39.78a6.21,6.21,0,0,1-1.39,1,15.06,15.06,0,0,1-2.59,1.08" transform="translate(43.42 32.74)"/><path class="e5f7fb5d-82d6-4c22-9a12-7751a4151f92" d="M117.36,275.29a4.07,4.07,0,0,1-.58.14,3.28,3.28,0,0,0,.58.16c.34,0,.65,0,1,.06a6,6,0,0,1,.88.16,1.89,1.89,0,0,1,.44.11,23.6,23.6,0,0,0,3.64-.05,23,23,0,0,0,2.59-.28c3.36-.5,6.8-1.61,9-3.59a58.38,58.38,0,0,1-9,.56c-.82,0-1.7-.07-2.59-.19-.72,0-1.42-.15-2.18-.25a5.16,5.16,0,0,1-1.7.22,3.92,3.92,0,0,1,2.31.89,4.72,4.72,0,0,1-2.51,1.56c-.27.09-.58.19-.88.27l-1,.23" transform="translate(43.42 32.74)"/><path class="e5f7fb5d-82d6-4c22-9a12-7751a4151f92" d="M123.28,259.44a24.79,24.79,0,0,1-2.82,1.19c.88.27,1.7,0,2.58.56a.73.73,0,0,0,.24-.07,20.83,20.83,0,0,0,2.59-1c8.5-3.86,17.1-13.78,20.85-21.86-6.06,6.1-12.32,11.58-18.84,17,.33.37,1-.56,1,.37a15.64,15.64,0,0,1-3,2.34,25.89,25.89,0,0,1-2.59,1.46" transform="translate(43.42 32.74)"/><path class="e5f7fb5d-82d6-4c22-9a12-7751a4151f92" d="M123.28,253.84c-.54.46-1.12.9-1.64,1.31a7.67,7.67,0,0,0,1.64.08,12,12,0,0,0,2.59-.41c5.54-1.53,9.42-7.09,13.23-11.37,2-3.65,4.35-6.63,5.23-11-5.13,6.37-11.93,10.25-18.46,15.06-.31.22-.62.44-.89.66a6.93,6.93,0,0,1,.89,0,5.57,5.57,0,0,0,2.85-.26,11.48,11.48,0,0,1-2.85,3.69,31,31,0,0,1-2.59,2.23" transform="translate(43.42 32.74)"/><path class="e5f7fb5d-82d6-4c22-9a12-7751a4151f92" d="M117.36,263.73c-.58.41-1.09.74-1.19.85a8.79,8.79,0,0,0,1.19.15h1a8.34,8.34,0,0,0,.88,0,17.74,17.74,0,0,0,4.08-.79,17.42,17.42,0,0,0,2.59-1,1,1,0,0,0,.27-.14.65.65,0,0,1-.27-.08,18.16,18.16,0,0,0-2.59-.71,30.33,30.33,0,0,0-4.08-.52,6.7,6.7,0,0,1-.88,0h-1c-.48,0-1,0-1.5,0h-.44a2.92,2.92,0,0,0,.44.41,4.54,4.54,0,0,0,1.5.56,2.14,2.14,0,0,0,1-.11,1.54,1.54,0,0,0,.47-.3c.38.23.07.63-.47,1a6.32,6.32,0,0,1-1,.68" transform="translate(43.42 32.74)"/><path class="e5f7fb5d-82d6-4c22-9a12-7751a4151f92" d="M115.86,322.61a7.08,7.08,0,0,0-.54-.57c-.27.6-.27,2-1.36,1.76.44.52,1.23.41,1.9.48a1.46,1.46,0,0,1,1.06.48.32.32,0,0,0,.44,0,4.3,4.3,0,0,0,.37-.37,1.92,1.92,0,0,1-.37-.15,8.32,8.32,0,0,1-1.5-1.6" transform="translate(43.42 32.74)"/><path class="a2f14a0c-36a5-4924-bfdd-5ea6b175097f" d="M114.06,322.9c.75.11.72-1,.31-1.34a1.93,1.93,0,0,0-1.94-.11,5.89,5.89,0,0,1,1.63,1.45" transform="translate(43.42 32.74)"/><path class="e5f7fb5d-82d6-4c22-9a12-7751a4151f92" d="M109.48,281.5a3.56,3.56,0,0,1-1.16-.56,3,3,0,0,0,1.16,1,14.49,14.49,0,0,0,3.94,1.08l1.09.22h1.35c.51,0,1,0,1.5-.08s.65,0,1-.07a4.9,4.9,0,0,0,.88-.16,12.35,12.35,0,0,0,2.62-.7c-.85-.11-1.74-.22-2.62-.29-.27,0-.58,0-.88-.08l-1-.12c-.48-.07-1-.14-1.5-.26a8.46,8.46,0,0,1-1-.26c-.44.15-.89.3-1.39.42a7.76,7.76,0,0,1-3.94-.12" transform="translate(43.42 32.74)"/><path class="a2f14a0c-36a5-4924-bfdd-5ea6b175097f" d="M86.48,322.42a3.65,3.65,0,0,0,1-2.65c-.23-1.2-1.26-1.16-1.56-.33.07,1,.95,1.49.61,3" transform="translate(43.42 32.74)"/><path class="e5f7fb5d-82d6-4c22-9a12-7751a4151f92" d="M106.89,282.47a2.66,2.66,0,0,0,1.43-.14,4.21,4.21,0,0,1-1.43-1.05c-.75-.78-1.5-1.6-2.92-1.23-.45-.11-.86-.26-1.3-.41a2.94,2.94,0,0,1-1.53-1,6.33,6.33,0,0,0,1.53,1.79,8.88,8.88,0,0,0,4.22,2.05" transform="translate(43.42 32.74)"/><path class="ba611971-0273-4136-8bf1-32a599d29cab" d="M94.57,246.21a3.46,3.46,0,0,0,1.27-.67c-.25-.37-.75-.37-1.27-.37a1.33,1.33,0,0,1,0,1" transform="translate(43.42 32.74)"/><path class="a2f14a0c-36a5-4924-bfdd-5ea6b175097f" d="M78.55,322.42c0-1.08,1.13-1.75,1.06-2.57-.75-.52-1.26-.23-1.5.14a2.45,2.45,0,0,0,.44,2.43" transform="translate(43.42 32.74)"/><path class="e5f7fb5d-82d6-4c22-9a12-7751a4151f92" d="M78.65,306.1c-.19.49.21,1.3-.4,1.49-.71.37-1.57,0-1.7.48A27.55,27.55,0,0,1,79,309.35a3.1,3.1,0,0,1,1.12,1.1,3.43,3.43,0,0,0,.54.28,1.74,1.74,0,0,0,.72-.12c-.81-.6-1.88-1.08-1.88-2.54-.23-.82.32-1.49-.13-1.83l-.37-.1a1.75,1.75,0,0,1-.35,0" transform="translate(43.42 32.74)"/><path class="a2f14a0c-36a5-4924-bfdd-5ea6b175097f" d="M77.09,306.92h.62c-.17-.34.23-1-.41-1a4.73,4.73,0,0,0-2.42.21c.85-.21,1.36.35,2.21.83" transform="translate(43.42 32.74)"/><path class="a2f14a0c-36a5-4924-bfdd-5ea6b175097f" d="M127.77,330.1a3.28,3.28,0,0,0,.51-2.21c-.17-.66-1.26-1-1.29,0,.11.75.65,1.05.78,2.21" transform="translate(43.42 32.74)"/><path class="e5f7fb5d-82d6-4c22-9a12-7751a4151f92" d="M79,316.68a2.66,2.66,0,0,1-.75,1c-.65,0-.82.41-.71.89.37.2.94,0,1.46-.1s.85,0,1,.37.31,1,.68,1.11c1.19-.37-.51-3.08.44-4,.65-.25,1,.18,1.57.34a1.4,1.4,0,0,0,.85,0c1,.7,0,2.3.71,2.91a2.61,2.61,0,0,1,3.23-.75c-1.11-1.13-2.58-2.35-3-4.43,2.17-1.94,6-3.1,8.67-1.94.82.22,1.06,1.38,1.77,1.38.07-.37.14-.86.21-1.38.2-1.16.48-2.43,1.36-3,.74-.22.84.2,1.3.2a10.87,10.87,0,0,1,1.9-4.07A3.51,3.51,0,0,1,102,304c.31.1.1.56.17,1l.48-.41a14,14,0,0,1,4.22-2.08,2.38,2.38,0,0,0,.47-.16c.51.45-.17,1.05-.31,1.75a6.46,6.46,0,0,1,2.43-1.23,4.74,4.74,0,0,0,1.76-.85c-.1-2.2.44-4.25-.31-5.89l-1.45-.34c-.86-.18-1.71-.36-2.59-.51a31.46,31.46,0,0,0-4.22-.45,24,24,0,0,0-2.92.08,16.09,16.09,0,0,0-7.39,2.6,1.06,1.06,0,0,0-.71.16c.07.77,1.12,0,1.49.66-.54.82-1.8,1.16-2.44,2-.61.22-1,.22-1.46.41.1.6,1.25.37,1.56.15.09,1.48-.82,4-1,6.18-.54,2.2-2.65,3.1-4.43,3.32a22.49,22.49,0,0,0-2.61.63A29.49,29.49,0,0,1,79,312.06a4.51,4.51,0,0,1-4.12-1.12c-.44-.49-.95-.33-1.12-.81-.89,1,1,1.71.3,3.2-.3.15-.75.59-.54,1,1.39.57,3.78-1.07,5.48-.07.07,0,.1.07.16.07a3.48,3.48,0,0,1-.16,2.39" transform="translate(43.42 32.74)"/><path class="a2f14a0c-36a5-4924-bfdd-5ea6b175097f" d="M80,298a3.4,3.4,0,0,0,.89-2.61c-.41-1-1.68-1-1.53-.1A13.91,13.91,0,0,1,80,298" transform="translate(43.42 32.74)"/><path class="e5f7fb5d-82d6-4c22-9a12-7751a4151f92" d="M73.42,287.51c-2-.16-3.88-.79-5-2.91-.38-.67-1.43-.07-1.64.33.48.37,1.12,1.05.62,1.72-.34.56-.66.7-.79,1,.68.44,1.43-.89,2-.15.85,2,2.72.59,3.91,1.38-.64,1.86-3.26,2.2-4.33,3.2.42,0,1.41-.14,1.51.6s-.24.49.06,1.23c1.4-.6,2-3,3.68-3.35a1.11,1.11,0,0,0,.34,0c.85,1.49,3,1.26,3.44,2.87.1.86.1,1.56.61,1.93,1.12.05.88-1.41,1.69-1.48.35,0,1.07.37,1.16.1-.54-.93-2.41-1.11-2.65-2.75a1.28,1.28,0,0,1,1.09-1.38,8.83,8.83,0,0,1,2.15.19,3.09,3.09,0,0,1,1.39-2.35c-2.63-.93-6.16,0-9.22-.18" transform="translate(43.42 32.74)"/><path class="a2f14a0c-36a5-4924-bfdd-5ea6b175097f" d="M67.37,295.77c0-1.11,1.66-1.22,1.56-2.34-.54-.49-1.47-.11-1.36.33a2.59,2.59,0,0,0-.2,2" transform="translate(43.42 32.74)"/><path class="a2f14a0c-36a5-4924-bfdd-5ea6b175097f" d="M67.46,261.12c.66,0,1.47.07,1.78-.49s-.11-.78-.11-1.15c-.2,1-1.35,1.15-1.67,1.64" transform="translate(43.42 32.74)"/><path class="e5f7fb5d-82d6-4c22-9a12-7751a4151f92" d="M73.42,242a.84.84,0,0,1-.61.15c-.45-.12-1.36-.6-1.36.1.06,1.38,1.11,2.12.81,3.62-.07.48.24.7.34,1-.95.7-2.86-.6-3.67.48,1,1-.54,1.94-.24,3.1,1.26,0,2.55-1.6,3.81-.34.58.9-.31,1.12-.64,1.49-2,1.12-.55,4.25-2.49,5.6-.68.36-1,.7-1,1.26.44,0,.64-.56,1.19-.34.5.6.61,1.61,1,1.83.61-1.83.51-4.81,2.38-5.7a2.87,2.87,0,0,1,.41.67c.89,1.87-.3,5,.51,7,.13-.26.13-.82.45-.82.6.33.3,1.16,1.15,1.26.2-.93,0-2.2.47-2.9.89.37,1,1.3,1.54,2-1.37-4.69-4.36-10.5-1.13-14.87,1.06-1.41,3.41-.64,4-2.09-.34-.89-1.91-.11-2-1a5.24,5.24,0,0,1-.21-1c-1.16.1-1.16,2.42-2.82,2.42-.65.11-.65,1.61-1.26,1.11a2.29,2.29,0,0,1,.21-2.59c.3-.61.94-1.83.3-2s-.89.32-1.26.6" transform="translate(43.42 32.74)"/><path class="a2f14a0c-36a5-4924-bfdd-5ea6b175097f" d="M80.46,243.12a2.78,2.78,0,0,0-.34-2.57,5.09,5.09,0,0,0-1,2.12c-.21.68.81.9,1.36.45" transform="translate(43.42 32.74)"/><path class="b3d82be2-4f4e-498e-9f1a-75be6ecd6776" d="M84.54,280.35a4.33,4.33,0,0,0,.07-.53c0,.12-.07.3-.07.53" transform="translate(43.42 32.74)"/><path class="ba611971-0273-4136-8bf1-32a599d29cab" d="M93.21,246.28h.62c-.82,0-.62-1.45-.92-1.45s-.44-.11-.55-.26a1.92,1.92,0,0,0,.85,1.71" transform="translate(43.42 32.74)"/><path class="e5f7fb5d-82d6-4c22-9a12-7751a4151f92" d="M99.75,239.32a14.43,14.43,0,0,0-1.5,2.31,14,14,0,0,0,1.5.49c.51.1,1,.26,1.63.43a11.25,11.25,0,0,0,1.29-1.52,12.33,12.33,0,0,1,2.86-2.94,14.24,14.24,0,0,0,1.36-3,1.28,1.28,0,0,0,.1-.34.1.1,0,0,1-.1,0,43.85,43.85,0,0,0-4.22,2,11.66,11.66,0,0,0-2.92,2.58" transform="translate(43.42 32.74)"/><path class="e5f7fb5d-82d6-4c22-9a12-7751a4151f92" d="M95.19,241.69a11.64,11.64,0,0,0-6,.16c1,2.2,3.73,2,6,2.46a9.56,9.56,0,0,1,1.59.52,4.48,4.48,0,0,0,3-.6,4.69,4.69,0,0,0,1.39-1.22,9.48,9.48,0,0,1-1.39-.27c-1.47-.3-3-.74-4.56-1.05" transform="translate(43.42 32.74)"/><path class="e5f7fb5d-82d6-4c22-9a12-7751a4151f92" d="M99.75,267.94s0,.07,0,.07a12,12,0,0,0-.51-2.3c-.33.66-.74,2.19-.24,3a.89.89,0,0,0,.79.74c.51.12,1.08.09,1.22.38-.34.38-.51,1.08-1.19,1.3,0,.34.75,0,.75.68s-.21.71-.45.82c1.06-.34,1.26.63,1.8,1.49a5.51,5.51,0,0,0,.79-.49c1.25-.82,2.58-1.94,4.22-2.16a3.83,3.83,0,0,1,.68-.08,5.16,5.16,0,0,0,1.91-2.16,17.43,17.43,0,0,0,1.63-6.07,14.34,14.34,0,0,1,2.31-6.33,20.12,20.12,0,0,1,2.44-3c.51-.47,1-.92,1.5-1.37.34-.26.65-.53,1-.78s.61-.45.88-.67c1.36-1,2.78-1.94,4.08-2.8.91-.6,1.8-1.19,2.59-1.75a2.92,2.92,0,0,0,.54-.38c2.65-2,4.11-4.46,5.68-7.33a46.31,46.31,0,0,1-6.22,6.74,25.91,25.91,0,0,1-2.59,2.08,23.49,23.49,0,0,1-2.59,1.69c.75-.72,1.63-1.69,2.59-2.77s1.73-2,2.59-3.12c3-3.77,5.88-8.2,7.13-11.59-2.48,2.38-4.76,5.22-7.13,8-.82,1-1.7,1.93-2.59,2.83a27.48,27.48,0,0,1-4.08,3.65,6.51,6.51,0,0,1-.88.6,8.58,8.58,0,0,1-1,.6,10.11,10.11,0,0,1-1.5.78,3.41,3.41,0,0,1-.67.3,7.25,7.25,0,0,0,.67-.49,12.63,12.63,0,0,0,1.5-1.26,10.94,10.94,0,0,0,1-1,8.85,8.85,0,0,0,.88-1.08,16.2,16.2,0,0,0,2.62-5.07,13.7,13.7,0,0,1-2.62,3c-.27.26-.58.49-.88.75s-.62.44-1,.7-1,.68-1.5,1c-.77.52-1.59,1-2.44,1.49a37.16,37.16,0,0,0-3.94,2.65,17.38,17.38,0,0,0-2.59,2.56,11.62,11.62,0,0,0-1.36,2.24c-.1,1.38-.31,2.87-1.29,3.35-.85,1.27-.72,3.31-1.57,4.62a2.39,2.39,0,0,1-.79.79c-.4-.26-.1-.75-.54-1-.47,1.83-.47,4.51-1.59,6.16" transform="translate(43.42 32.74)"/><path class="e5f7fb5d-82d6-4c22-9a12-7751a4151f92" d="M109.48,277.85a5,5,0,0,0,1-.11,5.71,5.71,0,0,1-1-.44,5.35,5.35,0,0,1-2.43-3.1,9.16,9.16,0,0,1,2.43.64c1.35.4,2.82.81,3.94.11a2.86,2.86,0,0,0,.75-.63c-.25-.05-.48-.05-.75-.08-1.16-.11-2.55-.19-3.2-1.54.54-.74,1.91-.78,3.2-1a3.71,3.71,0,0,0,2.44-1.16.57.57,0,0,0,.22-.22.45.45,0,0,1-.22,0,3.7,3.7,0,0,1-2.44-.41,3.22,3.22,0,0,1-1.12-1,1.41,1.41,0,0,1-.24-.89c.44,0,.88,0,1.36,0a13.19,13.19,0,0,0,2.44-.37,5.78,5.78,0,0,0,1.5-.67,3.54,3.54,0,0,0,.48-.34,2,2,0,0,1-.48.08,5.06,5.06,0,0,1-1.5,0,4.29,4.29,0,0,1-2.44-1.2,2.63,2.63,0,0,1-.28-.4c-.34-.64-.1-1,.28-1.08a1.2,1.2,0,0,1,.37,0,6,6,0,0,0,2.07-.19,2.4,2.4,0,0,0,.92-.64,3.77,3.77,0,0,1-.92-.33,3.73,3.73,0,0,1-1.9-1.64c-.33-1,.75-1.23,1.09-.75a5.56,5.56,0,0,0,.81,0,6.23,6.23,0,0,0,1.5-.18,5,5,0,0,0,1-.26,4.87,4.87,0,0,0,.88-.45,3.87,3.87,0,0,0,.64-.41,3.18,3.18,0,0,1-.64-.19l-.88-.33a3,3,0,0,0-1-.3,2.43,2.43,0,0,0-1.5.15.28.28,0,0,1-.13.07c-.1,0-.31-.33-.31-.67l.44-.37c.51-.42,1-.78,1.5-1.2a10.17,10.17,0,0,0,1-.85,5.68,5.68,0,0,0,.88-1,5.32,5.32,0,0,0,.54-.75c-.2,0-.37,0-.54.07s-.58.08-.88.16a5.22,5.22,0,0,0-1,.33,7.82,7.82,0,0,0-3.94,3.8c-.18.34-.3.71-.45,1.05-1.59,3.92-1.29,8.68-3.49,11.4a5.21,5.21,0,0,1-1.91,1.54c-.24,0-.48,0-.68,0-1.91.22-2.82,1.83-4.22,2.54a2.51,2.51,0,0,1-1.09.29c-.71-.33-.61-1.79-1.5-1.48a2.08,2.08,0,0,0-.33.21c-.85.64-1.54,1.32-1.4,2.21-.21,2.23.06,3.95,1.4,5a2.69,2.69,0,0,0,.57.34c.55-1-.41-2.87.14-3.62a24,24,0,0,0,2.21,1.12,7.27,7.27,0,0,0,2.76.67,6.66,6.66,0,0,1-1.06-2.82c.71.21,1.6.55,2.52.82a11,11,0,0,0,2.59.4" transform="translate(43.42 32.74)"/><path class="b3d82be2-4f4e-498e-9f1a-75be6ecd6776" d="M111.25,328.91a0,0,0,0,1,0,0,0,0,0,0,0,0,0" transform="translate(43.42 32.74)"/><path class="a2f14a0c-36a5-4924-bfdd-5ea6b175097f" d="M70.39,313.7c.55-1.11,2.42-.37,2.92-1-.23-.49-.3-1.27-.71-1.38a3.34,3.34,0,0,0-2.21,1.94Z" transform="translate(43.42 32.74)"/><path class="a2f14a0c-36a5-4924-bfdd-5ea6b175097f" d="M64.07,287.69c1-.89,2.14-.22,2.48-1.12,0-.93-.65-1.18-1.19-.93a2.34,2.34,0,0,0-1.29,2.05" transform="translate(43.42 32.74)"/><path class="a2f14a0c-36a5-4924-bfdd-5ea6b175097f" d="M72.4,281.2c.38-.1.91-.59.61-.92-.41-.52-1.26-1.31-1.91-1.31.59.71.78,2.2,1.3,2.23" transform="translate(43.42 32.74)"/><path class="a2f14a0c-36a5-4924-bfdd-5ea6b175097f" d="M67.87,249.3c.52,0,.72-.56.25-1-1-.71-2.25-.34-3-.15a9.52,9.52,0,0,1,2.75,1.19" transform="translate(43.42 32.74)"/><path class="a2f14a0c-36a5-4924-bfdd-5ea6b175097f" d="M72.56,241c.28.56,1.37.23.83-.82-.69-.89-1.53-1.75-2.46-1.75.93.42,1.09,1.53,1.63,2.57" transform="translate(43.42 32.74)"/><path class="ad820118-9fcc-4836-b4e7-7471b26ab9a6" d="M106.81,239.92a10.38,10.38,0,0,1,2.48-1.08,19.57,19.57,0,0,0-2.18,3.42c-.09.18-.2.37-.3.56-.64,1.26-1.66,2.49-3,2.35-.75-.08-.51-1.23-.11-2a7.85,7.85,0,0,1,3.13-3.2m-7.14,5c-.15.16-.33.31-.46.44-1.71,0-2.77,1-4,1.54a3.31,3.31,0,0,1-2.42.21c-.91-.26-1.12-1.75-1.32-2.65-1.09.23-1.61-.55-2.35-1-1.74-.44-3.91.42-4.12,1.49a2.63,2.63,0,0,0,.85,2.61A1.34,1.34,0,0,1,87,246.06c2.66,0,4.15,5.63,8.2,5.11a.36.36,0,0,0,.2,0,.51.51,0,0,1-.2.59,1,1,0,0,1-.62.12c-2-.6-4.69,1.15-6.76.26,1.26,2,4.66,2,7.38,1.86,1-.07,1.83-.15,2.52-.19a3,3,0,0,1-2.52,1,6.13,6.13,0,0,1-.82-.08c-1.6.12-3.67.2-4.39,1.83.11,0,.72,0,.51.82-.71,1.57-2.72,2-4.18,2.83.21.45.92.12,1,.6-.94,1.16-3,1.38-3,2.87.34,0,.95-.79,1.57-.26-.75,1.6-2.65,2.87-3.23,4.58a2.83,2.83,0,0,0-.1,1.42l.1,0c.47-.3.79-.86,1.36-.57-.61,1.49-1.6,3.7-1,5.41.54-.49.74-1.26,1.49-1.26-.34,2-1.26,4-.34,5.95.41-.48.54-1.15,1.15-1.23.07,1.57-.4,3.28.25,4.55.57-.44.57-1.38,1.35-1.38-.64,1-1.49,2.39-.64,4,.78-.45,1.36-.19,2.38-.07-.17-2.88-1.46-6.5.1-9.81.64-.93,1.57-1.68,2.42-1.2-.11.71-.92.12-1.37.83-2.71,3-1.15,7.56-.3,10.85-.75.25-2.18-.79-2.83-.12,0,0,.24.22.24.37s.18.67,0,1.16a9.65,9.65,0,0,0-4.21-.82,7.84,7.84,0,0,0-1,.11c.07.67.52.81,1,1.12a2.66,2.66,0,0,1,.54.48,1.6,1.6,0,0,1-.54.93,2.27,2.27,0,0,0-.82,1.94,1.39,1.39,0,0,0,.82.11c1-.22,2-1.23,2.93-1.16-.52.6-.32,1.49-.82,2,1.57.19,3.12-1,4.19-1.64a4.39,4.39,0,0,1-.52,1.94c1.9-.71,2.28-2.13,3.64-2.94,0,.81-.28,1.57-.28,2.15a6.56,6.56,0,0,0,2.49-3.31c.48-.18.68.15.82.48s.24.45.4.53c-.2-.41,0-1.35-.31-2.27.65-1.61,2.66-2.65,2.73-4.75,1.2,2.25-2.48,3.4-1.73,6,.68,1.23,2.07,2.54,3.3,2.64a3,3,0,0,1-.37-1.41,2.5,2.5,0,0,1,.54,0c1.08.18,1.93,1.27,2.92,1.78a2,2,0,0,0,.68.26c.31-.36-.14-.89.4-1.34,1.5,0,2,1.8,3.14,2.28a.25.25,0,0,0,.16,0c.52-.16-.06-.75.31-1.34.25-1.05.85.34,2.12,1.52a6,6,0,0,0,1.66,1c2.1,4.62-.82,11.66,2.1,17.06.55,1.9-1.18,3-2,3.89a3.69,3.69,0,0,0,2.18-.68,5.45,5.45,0,0,1,1-.37,4.91,4.91,0,0,0-.31,1.75c.31.9.85,1.79,1.57,1.79a3.37,3.37,0,0,1,.23-2.32,3.25,3.25,0,0,1,.61-.85,2.19,2.19,0,0,0,.89,1c.31.18.62.37,1,.53a5.43,5.43,0,0,1,.88.41l.85.44c.92.6.92,2.2.44,3.73-.3,1-.68,2.05-1.29,3.62-.13.4-.34.85-.5,1.3a4.15,4.15,0,0,1-.38.56,2.59,2.59,0,0,1-1,.82,3.38,3.38,0,0,1-1.5.41c-.77.11-1.63,0-2.44.15-.18,0-.34,0-.48,0a2.88,2.88,0,0,0,.48.44c.16.15.34.34.54.56s.21,1.27-.1,2.09c-.07.56.31.56.65.56.4-.71.54-1.65,1.35-2.05v0a1.49,1.49,0,0,0,1.5-.15c.34-.18.65-.4,1-.59a1.91,1.91,0,0,1,.88-.22,2.15,2.15,0,0,1,.64.11c.62,1-.2,1.9-.64,2.68-.2.37-.34.75-.11,1.08l.11-.22a4.52,4.52,0,0,1,.44-.6c.61-1.57,2.52.75,2.82-.89-.44-.23-.53-1.12-1-1.83-.07-1,.74-1.27,1.29-1.94a.89.89,0,0,1,.51-.19,2.77,2.77,0,0,1,1.87.64c1.06.45.48,1.38.72,2a.51.51,0,0,0,.16.19c.31-.27.31-.71.62-1.27.31-.81.95.08,1.33-.15v-.41c0-1-1.36-.63-2.08-1.41-1.26-1.42-1.36-4-.92-6.45.37-.41.37-1.38.89-1.79a.91.91,0,0,0,.16-.11c.82.18.62,1.15,1,1.56a6.61,6.61,0,0,0-.5-4.31c-.34-.49.17-.49.6-.6a10.11,10.11,0,0,0-1.28-3.05,6.83,6.83,0,0,0-1.64-1.87c.11-.9,1-.15,1.36-.49-.54-1.23-2.41-2-2-3.27a.88.88,0,0,0,.64.18,6.34,6.34,0,0,0-1-2.2,4.26,4.26,0,0,1-.61-1.67.51.51,0,0,1,.61,0c.34.18.65.52,1,.55a14,14,0,0,0-1-3.46,8.3,8.3,0,0,1-.37-1.57.43.43,0,0,1,.37.12c.24.14.45.33.75.1a6.24,6.24,0,0,0-.75-1.48,1.86,1.86,0,0,1-.31-1.35l.31.22a8.58,8.58,0,0,1,2.59,2.43c1.26,1.68,2.21,3.65,3.47,5.36,2.1,3.66,6.5,2.36,10.16,1.39a2,2,0,0,1,2.63,1c1-1.13-.62-2-1.06-2.95,3.16-6.07-1.91-12.89-1-20,.48-4,3.54-4.69,4.28-7.37-.74.49-1.25,1.08-2.1,1.15,1.19-3.2,4.56-7.35,2.81-12.22a2.21,2.21,0,0,0-2.47-1.08c-.68.26-1.36,1.08-1.06,1.37a1.45,1.45,0,0,1,1.91.79c1.39,5.22-2.89,8.9-4.63,13.08-2,4.76-1.46,10.88.31,15.47-.58-.19-2.08-.08-2.08.7,3,1,3.81,3.89,2.08,6.6-1.26,2.72-5.65,3.91-7.45,1.71-1.7-2-4.18-5.55-5.78-7.64-.45-.59-.82-1.08-1.09-1.37s-.78-.71-1.5-1.27a50.55,50.55,0,0,0-4.08-3.06,7.5,7.5,0,0,0-.88-.59c-.31-.23-.62-.42-1-.63s-1-.6-1.5-.9a22.09,22.09,0,0,0-2.44-1.31,20.53,20.53,0,0,0-3.74-1.41.49.49,0,0,1-.2,0,12.37,12.37,0,0,1-2.59-.25,16.2,16.2,0,0,1-4.22-1.76c-.55-.3-1.09-.63-1.6-1-.61.33,0,1.26-.3,1.82a2.17,2.17,0,0,1-1-.26c-1-.56-1.44-1.75-2.11-2.72-.55-.34-.45.7-1,.26,2-1.86.2-5.18,2.62-7,.51-.9-1.26-.9-.74-1.84.43-.22,1,.27,1-.32-.52-.12-.52-.57-1.12-.79-1-1.86,0-3.92.5-5.4.68-.1.65.58.75,1.08v.3c1.18-1.87.67-4.33,1.08-6.3,1.26-.34.72,1.56,1.33,2.05a3.2,3.2,0,0,0,.48-1c.84-2.23-.11-5.32.88-6.81.65.67.31,1.82.92,2.3a1,1,0,0,0,.2-.36c1-2.28.27-5.37-1.3-7.61a9.48,9.48,0,0,0,3.51-1.3,2.07,2.07,0,0,0,.58-.63c-.06-.15-.31-.27-.58-.49a.64.64,0,0,1-.13-.18.93.93,0,0,1,.13-.15c1-.94,2.08-1.12,2.59-2.47l.1-.22c0-.18,0-.25-.1-.29s-.54.07-.54-.56c.16-.19.37-.42.54-.63a22,22,0,0,0,2.92-4.52h-.61a14.16,14.16,0,0,0-2.31.64,13.08,13.08,0,0,0-2.59,1.3,26,26,0,0,0-4.21,3.65c-1,1-1.91,2.06-2.93,3.06Z" transform="translate(43.42 32.74)"/><path class="a8172d25-b933-41dc-8498-7bbe5a3d3100" d="M231.4,80.62c-.09.41.31.37.55.82-1.57.11-3.77-.45-5.68,0-.27.37.14.59.44.71-2,.15-5.17.78-6.56-1.16-1.3-1.6,1.7-5.07-1-5.25-.77-1-2.75-2.09-3.7-1.72a5.39,5.39,0,0,1,1.5,3c-1.09,2.76.88,3.17,1.22,5.26-.85.41-2.31-.49-2.79-1.24-.92-1.6-2.28-2.53-3.5-.56A3,3,0,0,0,209.12,84a10.2,10.2,0,0,1,2.39-.71c.3.48,0,1,.85,1,.44-.33,1.29-.66,1.56-.22a2.6,2.6,0,0,0,2.93,1c-.61,1.71-4.29,1.19-3.78,2.91-.75,1.26-1.29,3.42,0,4.47a4.33,4.33,0,0,1,1.71-2.28c.68.49,1.35-.11,2.07-1.11.57-.67.75-1.57,2.1-2,.76,1.12,2.22,1.35,3,2.05.11,1.12.11,2.24,1,2.57s.68-.33,1.57-.07a7.93,7.93,0,0,1,.54,3c1.19,0,2.2-2.76,1.63-4.36.86-1.49-2.07-1.82-2.31-3.32.65-1,1.43-.82,2.65-.29.78,1.22,2.93-.71,3.44-.83.2.79-.85,1.12-.65,2a5.52,5.52,0,0,0,4-.94c-.31.38-.51.71-.85,1.16,1.16.45,2.66-.71,3.6-1.49.17.44-.34.59-.12,1.19A6.88,6.88,0,0,0,240.11,84c1,.22.55,1.45,1.15,2,.76,0,.21-1.12.65-1.12a8,8,0,0,0,4.15,2.2,2.34,2.34,0,0,0,.55-.59c-.55-.22-1.06-.38-1.3-1.12,1.57.33,2.66,1.9,4.46,1.83.38-.6-.37-.6-.37-1.27,1.36,0,2.34,2.91,4,2.09,0-.34-.51-1.09-.07-1.42.75,1.83,3.58,2.16,3.41,4.51-5.86-1.16-12.86-2.58-18.2.93a12.67,12.67,0,0,1-3.24.52,5.18,5.18,0,0,0,1.94,1.57c-.68,1.86-3.2,1.52-4.76,2,.18,1.38,2.49.67,2.9,1.61-.51,2.38-.31,6.55-2.42,6.89-2.08.56-4.93,1.82-6.7.4-1.22-1,1.46-4.69-2.45-3.79-3-.9-3.87-.22-4.79,1a15.77,15.77,0,0,1,2.38.49c.3.66-.68,1,.06,1.6,1.5.82,2.86.89,3.58,2.31-3.34,2-6.4-4.17-7.14-.34-2,.45-2.73,2-2.76,4.1.75-.41,2-1.19,3.12-.75.15.9.28,1.57,1.44,1.46a5.71,5.71,0,0,1,4.49-.56c.13.89-.31,2.16-1,2.27a1.57,1.57,0,0,0-.31,2.61,3.75,3.75,0,0,0,1.27,4.06c.71.68.44-.25.85-.25-.41-.12-.41-.79-.41-1.13.41-.59.41-1.74,1.25-1.74s1.34-.23,1.43-.9c0-1.16-.61-2.2-.09-2.87.6.22,1.59-.33,1.8.6a2.08,2.08,0,0,0,.23,2.27c.82.56,1.43-.34,1.63.34a2.46,2.46,0,0,1,.24,3.09c.82.34,1.66-.41,2-1.16.61-1.49,1-3.65.3-4.47a4.9,4.9,0,0,1-2.52-3.17c5.72-4.88,9.26-.63,9.84.41.81-2.64.64-4.36,1.46-5,.75-.1,1,.67,1.56.67a7.15,7.15,0,0,1,3.27-5.74c.41.38,0,1.08.31,1.72A8.26,8.26,0,0,1,252.09,99c0,.6-.62,2,.3,2.09.85-1.23,2.79-1.9,4.36-2.23-.21,6.14,2.07,7.26,1.28,8.19a7.45,7.45,0,0,1-2.51,2.87c.24.71,1.26.78,2,.56s1-.78,1.56-.41a3.31,3.31,0,0,0,1,2.46c.68.37,1.91,1.38,2.21.37-.74-.37-.74-2.08-.44-2.83,1,1.34,3.75,1,4,3,.07,1.16-1.23,5.63-2.21,6.41-1.32-1-2-3.13-2.92-2.57-1.6-1.16-3.44-.52-3.61.41a13.2,13.2,0,0,0,2,1.67c-.4.45-.55,1.24.24,1.46,1,.22,2.07.08,2.82.67-1,1.26-5-1.08-4.45,1.53-1,.86-2.28,1.56-1.83,3.76.5-.56,1.45-1.71,2.47-1.27.54.49.44,1.61,1.15,1.38,1.47,0,1.2-2.31,2.32-2,1.46.56,1.7-.89,3-1,.68,1.12-1.39,1.71-1,3.32,1.67.81.51,3.57,2.17,4.09a3.28,3.28,0,0,0,.75-.15c-1-.74,0-2.56.38-3.46.53-.82,1.91-1.38,1.28-2.68-.3-.56-1.05-1-.53-1.83a1.55,1.55,0,0,1,2-.78c1.36.33.38,2,1.36,2.61.54.15,1.06-.34,1.26.41s.58,1.45.91,2a4.64,4.64,0,0,0,.92-4.21,1.36,1.36,0,0,0-.71-1.9c-1.12-.23-2.07-.45-2.28-1.72a8.23,8.23,0,0,1,.35-6.07,5.48,5.48,0,0,1,.61,2.49c2-.56.43-5.21.82-5.55.81-1-.89-4.25-2-5.3.34-.7.64.46,1.16,0-.11-1.59-1.87-2-2-3.45.38,0,1,.78,1.22,0a17.32,17.32,0,0,1-2.44-4c.53,0,.94,1.16,1.6.49.13-1.68-.86-3.25-1.4-4.82a3.52,3.52,0,0,0,1.4,1.12c.5-.81-.76-1.93-1.07-2.83,3.55,2.17,4.12,9.13,9.6,9.28,5.88-.23,5.88-1.86,8-.49.1.6.1,1.16.54,1.16.81-.71.58-2.05.51-2.87-.23-.7-1.25-.78-.81-1.37,3.43-8.84-5-17.49.78-24,1.42-1.64,2.72-2.42,3-5.1-.67.15-.88,1.12-1.87,1.38,1.57-2.87,3.37-7.35,1.91-11-.51-1.35-2.41-1.68-3.54-1.27a2.25,2.25,0,0,0-1.4,2.68c.72.71,1.16-.82,1.91-.22,1.26,2,.3,4.36-.51,6.3-2.38,4-7.78,10.36-3.81,21.76A2.88,2.88,0,0,0,281.5,89c1.23.45,2.86.9,3.34,2.46,1.15,4-3.44,7.34-6.7,5.74-1.5-.75-5.88-8.16-7.82-9.95s-4.84-3.88-10.72-7.64c3.23,0,6.9-.26,9.73-2.17-.55-.4-2.35-.11-3.51-.48,2.82-.63,7.69-.78,10-3.16-2.56-.45-5.33-.12-7.86-1.3,2.72-.53,11.5-1.28,13.37-5.59a36.85,36.85,0,0,1-10.54.67c4.48-1.61,9.18-4.22,12-8.13.07-.37,0-.71.2-.89l-6.63,1.45C278,58.86,290.11,48.91,289.53,46c-2.38.64-4.56,2.61-7.85,3.51,4.25-4.47,8.53-9.17,11-15.47.13-.67.79-1.15.24-1.23-2.48,2.61-5,4.55-8.26,7.79.94-2.31,2.51-4.14,3.67-6.63,1.66-2.09,2.27-5.4,2.27-7.71-.81.33-.81,1.41-1.73,2.19a55.3,55.3,0,0,1-13.77,11,18.1,18.1,0,0,0,3.71-6.55c-2.49,2.16-3.2,3.65-7.76,7.94,2.76-4.18,7.27-10,8.44-15-4.33,4.22-8.54,9.84-14.08,14.84a21.36,21.36,0,0,0,2.91-6.82c-5.57,7.45-12,7.75-17.13,13.93a8.81,8.81,0,0,0-1.4-4c1.77-.37,5-2.12,3.78-3.09,1.18-.82,3-3,2.37-3.8,1.13-1.49,2.77-4.35,2.66-5.25-.2-1.08-4.46.59-6.19,1.6a25.36,25.36,0,0,0,1-3c-.85-1.6-10.27,4-10.51,6.85-3.36-.7-9.76-1-8.91,1-1.09.37-3.1.71-3.77,2.09-.44,1.12-.11,3.35,1.56,3.91.14-.6,0-1.64.69-1.72,2.48.34,3.23,3.29,5.3,4.44-1.56.71-4,1.08-5-.3a2.17,2.17,0,0,0,.54,2.5c.95.93,2.18,1,3,1.49a6.16,6.16,0,0,0-2.41,2.53c.31.41.75.41.82.33-.59,1.79-3.13,1.16-4.26,2.62.21.48.58.48.93.74-1.16,1-2.73,2.12-2.93,4.06a.68.68,0,0,0,.51.27c.14.81-.71.33-1.13.33-.94-1-.75-2.83-1.35-4a15.65,15.65,0,0,1-.82,1.72c-1.12-.15.07-3.06-.88-3.36-.51-.15-.62,1-1.16.27-1.67-4.32-3.91-9.32-1.5-13,1.12-1.71,3.61-.6,4.56-2.35.3-1.27-.34-.49,0-1.41.43-2-.25-3.47-1.1-4-.37,0,.48.45-1.11,2-2-.37-1.57,2.54-4,2.61.14-.89,2-3.17-.44-3.69a6.84,6.84,0,0,0-3.3-2.72c-.75,0-1.67.08-1.22.64a4.45,4.45,0,0,1,2.1,2.79c-1.56-.19-1.83.71-1.39,1.71.61,1,1.32,2.54.68,3.36-2.07-.56-3,.37-3.34,1.08-1.09-.07-4.18.07-4.18,1.3A5.62,5.62,0,0,1,213.21,46c.21.79.44,1.23,1.57,1.12.71-.33,1.15-.89,2.2-.89-2.2,1.23-.74,5.59-3.33,6.74-1,.93-.1,2.09-.44,2.54-.65,1.3-2.11.22-2.79.7.68,1,2.58,1.5,3.81,1.5.75-.9,2.62-.9,2.75-2.2.31-1.83.31-3.69,1.57-4.7.61,2.64-.41,5.26.3,7.87-.43,1.19-2.07.4-2.51.85a5.59,5.59,0,0,0,2.21,2.83c-.71,1.12-2.18-.11-2.52-.11.31,1.61,1.77,2.31,3,3.24-.3.56-1,.45-1.66.34.74,2.2,2.58,2.76,4.48,3.77-.34.36-1,.14-1.66.36a5.07,5.07,0,0,0,4.11,3,6.06,6.06,0,0,1-1.8,1c2,1.34,4.48,1.83,7.11,2.72,1,.48.44,1.67,1.05,2.57.13.59.37,1.64.71,1.38" transform="translate(43.42 32.74)"/><path class="a2f14a0c-36a5-4924-bfdd-5ea6b175097f" d="M256.81,124.58c.47-.74,1.9,0,2.24-.31.07-1.16-1.43-.94-1.7-.56a5.67,5.67,0,0,0-.54.87" transform="translate(43.42 32.74)"/><path class="b3d82be2-4f4e-498e-9f1a-75be6ecd6776" d="M245.3,60.93V61h0a.3.3,0,0,1,0-.1" transform="translate(43.42 32.74)"/><path class="e5f7fb5d-82d6-4c22-9a12-7751a4151f92" d="M224.56,56.29c-.75.6-.48,2-1.2,2.76-.7-.52-.81-2-1.46-2.94-.41,1.12.45,3.65-.81,4a9.54,9.54,0,0,0-.86-2.21c-.74.6-.24,2-.74,2.76a2.54,2.54,0,0,0-2.17-.93c0,1.49,1.87,1.71,2,3-.68.59-1.56.25-1.81.81.41,1.16,2.22.9,2.72,1.61-.36.67-1.25.89-1.66,1.26.72,1.83,3,1.57,4,3.06a1.23,1.23,0,0,1-1.26.71,3.33,3.33,0,0,0,2.52,2.08,4.76,4.76,0,0,0,.75-.07c.34-.08.61-.12.82.07a12.11,12.11,0,0,1-.82,1,2.9,2.9,0,0,1-.88.6,2.68,2.68,0,0,0,.88.52,30.76,30.76,0,0,0,3.74,1.3,3.93,3.93,0,0,0,.54.08c.82-1.23-.54-3.62.31-5.59-.65.33-.31,1.86-.85,2.16a.48.48,0,0,1-.44,0,20.49,20.49,0,0,1,.44-6.23,2.24,2.24,0,0,0,.11-.29.15.15,0,0,1-.11,0c-.51.3-.48,1.35-.82,1.9-1-1,.1-3.43.55-4.91.1-.19.2-.41.27-.56a1,1,0,0,0,.11-.15h-.11c-1,0-1.5-.68-1.87-1.9,0-.49-.14-.6-.14-1.2-.27.27,0,.93-.61,1.27a2.53,2.53,0,0,1-1.12-1.93,7.07,7.07,0,0,1,0-1.72c0-.15.07-.3.1-.45,0,0-.07,0-.1.07" transform="translate(43.42 32.74)"/><path class="e5f7fb5d-82d6-4c22-9a12-7751a4151f92" d="M219,77.05c-.17.23-.38.49-.51.52-.48.15-1.08,0-1.06.19.17,1.57,1.26,2.65,1.57,4.18,0,.11.06.26.1.37h1.46c-2.37-2.76-.27-4.92-.94-5.51-.18-.16-.38,0-.62.25" transform="translate(43.42 32.74)"/><path class="e5f7fb5d-82d6-4c22-9a12-7751a4151f92" d="M252.65,73.89a5.66,5.66,0,0,1-1.46-.56,2.9,2.9,0,0,0,1.46,2,10.93,10.93,0,0,0,6.53,1.33c.07,0,.1,0,.14,0a.57.57,0,0,0-.14-.11c-.92-1.18-2.49-1.45-4-2.08-.07,0-.13,0-.2-.11-.95-.15-1.67-.23-2.38-.41" transform="translate(43.42 32.74)"/><path class="e5f7fb5d-82d6-4c22-9a12-7751a4151f92" d="M255,71.43c-.17-.08-.38-.15-.54-.23a2.22,2.22,0,0,0,.54.67,4.37,4.37,0,0,0,2.81,1c.31.6-.1.86-.6,1,.47.07,1.09.15,1.73.19a19.94,19.94,0,0,0,2.45,0,7.59,7.59,0,0,0,1.5-.34,3.45,3.45,0,0,0,.61-.3c-.21-.07-.41-.18-.61-.26a8.77,8.77,0,0,0-1.5-.48,16.1,16.1,0,0,0-2.45-.49,28.81,28.81,0,0,1-3.94-.74" transform="translate(43.42 32.74)"/><path class="e5f7fb5d-82d6-4c22-9a12-7751a4151f92" d="M261.43,66.77a13.58,13.58,0,0,1-1.81,1.15c.59,0,1.2,0,1.81,0s1-.12,1.5-.19a7,7,0,0,0,.95-.15c.31,0,.61-.11.88-.15a29.21,29.21,0,0,0,4.08-1.19c.55-.19,1.06-.37,1.57-.6-.51-.15-1-.26-1.57-.37a13.23,13.23,0,0,0-4.08-.07l-.88.11-.95.22c-.14,0-.28.07-.38.11a5,5,0,0,1-1.12,1.16" transform="translate(43.42 32.74)"/><path class="e5f7fb5d-82d6-4c22-9a12-7751a4151f92" d="M261.43,64.12a3.15,3.15,0,0,1-.82.23h.82c.54,0,1,0,1.5,0s.64-.07.95-.12a4.81,4.81,0,0,0,.88-.11,19.34,19.34,0,0,0,4.08-1,22.55,22.55,0,0,0,2.41-.85c-.68-.07-1.53-.3-2.41-.48-1.45-.38-3-.63-4-.06v0h0a5.24,5.24,0,0,1-.88,1,4.28,4.28,0,0,1-.95.67,5.21,5.21,0,0,1-1.5.67" transform="translate(43.42 32.74)"/><path class="e5f7fb5d-82d6-4c22-9a12-7751a4151f92" d="M259,74.78h-.17A.59.59,0,0,0,259,75a4.28,4.28,0,0,0,2.45.93c.51.08,1,.15,1.5.26.2,0,.4.12.61.15a1.31,1.31,0,0,0,.34,0,6,6,0,0,0,.88-.08c1.33-.11,2.73-.18,4.08-.41a21.19,21.19,0,0,0,2.59-.48,12.84,12.84,0,0,0,3.2-1.31,14.69,14.69,0,0,1-3.2-.15,22.4,22.4,0,0,1-2.59-.52c-1.33-.33-2.68-.71-4.08-1a5.69,5.69,0,0,0-.88-.19c-.17,0-.38-.11-.58-.15a3.37,3.37,0,0,0,.58.41,1.74,1.74,0,0,1,.88.93.89.89,0,0,1,.11.3.14.14,0,0,1-.11,0,7,7,0,0,1-.88.3,7.38,7.38,0,0,1-.95.26c-.48.15-1,.22-1.5.33a17.75,17.75,0,0,1-2.45.19" transform="translate(43.42 32.74)"/><path class="e5f7fb5d-82d6-4c22-9a12-7751a4151f92" d="M261.43,61.47h1.5c.34,0,.64,0,.95,0a5.23,5.23,0,0,0,.68-.07c-.2,0-.44,0-.68-.08s-.61,0-.95-.07-1,0-1.5-.08a4.4,4.4,0,0,1-.95-.11c.13.34.51.11.95.44h0" transform="translate(43.42 32.74)"/><path class="e5f7fb5d-82d6-4c22-9a12-7751a4151f92" d="M263.88,52.68a1.45,1.45,0,0,1-.34.19,1.08,1.08,0,0,0,.34.37,3.85,3.85,0,0,0,.88.45,4,4,0,0,0,1.77.22c.44,0,.51.67.13.82-.53.56-1.05.56-1.56,1.12a14.92,14.92,0,0,0,3.74-1.45,25.78,25.78,0,0,0,2.59-1.49c.64-.41,1.26-.86,1.84-1.27-.61,0-1.2-.11-1.84-.11a17.88,17.88,0,0,0-6.67.78c-.27.11-.58.26-.88.37" transform="translate(43.42 32.74)"/><path class="e5f7fb5d-82d6-4c22-9a12-7751a4151f92" d="M264.76,51.19a1.06,1.06,0,0,1-.11.19s.07,0,.11,0a18.11,18.11,0,0,0,4.08-2.61,29,29,0,0,0,2.59-2.35c.54-.51,1.05-1.08,1.6-1.63a5.46,5.46,0,0,0-1.6-.15,6.55,6.55,0,0,0-2.59.7,21.88,21.88,0,0,0-4.08,2.84c-.24.22-.47.4-.72.59a.84.84,0,0,0,.72.08c.58-.19,1.16-.67,1.7-.3-.33,1.23-1,1.67-1.7,2.68" transform="translate(43.42 32.74)"/><path class="e5f7fb5d-82d6-4c22-9a12-7751a4151f92" d="M262.93,68.63c-.48,0-1,0-1.5,0-.82,0-1.63,0-2.45,0a14.26,14.26,0,0,1-1.87-.22A2.18,2.18,0,0,0,259,69c.89,0,1.77-.19,2.21-.14-.07.89-1.26,1-1.26,1.89l1.5-.11,1.5-.22a7,7,0,0,0,.95-.26,5.68,5.68,0,0,0,.88-.3A4.72,4.72,0,0,0,266,69c-.41-.07-.82-.18-1.26-.23l-.88-.11c-.31,0-.61,0-.95-.07" transform="translate(43.42 32.74)"/><path class="e5f7fb5d-82d6-4c22-9a12-7751a4151f92" d="M268.84,63.9a5.29,5.29,0,0,1-1.57.34,7.33,7.33,0,0,1,1.57.18c.88.11,1.7.33,2.59.49h.27a1.29,1.29,0,0,1-.27.59c-.54.82-1.87.9-2.48,1.38a15.06,15.06,0,0,0,2.48-.33,18.69,18.69,0,0,0,11-7.49c-3.13,1.26-7.55,1.19-9.93,2.79a11.59,11.59,0,0,1-1.09.74,12.61,12.61,0,0,1-2.59,1.31" transform="translate(43.42 32.74)"/><path class="a2f14a0c-36a5-4924-bfdd-5ea6b175097f" d="M265.61,129.78c0-1.15,1.16-3,.91-3.46-.71-.49-1.22,1.37-1.11,2.16a3.45,3.45,0,0,0,.2,1.3" transform="translate(43.42 32.74)"/><path class="e5f7fb5d-82d6-4c22-9a12-7751a4151f92" d="M268.84,60.25c-.47.18-.95.33-1.35.44a4.61,4.61,0,0,0,1.35.3c.88.11,1.94.23,2.59.38a2.13,2.13,0,0,0,.37.07,18.39,18.39,0,0,1,3.84-1.53c5.83-5.62,10.55-8.16,13-13.11a44.72,44.72,0,0,1-7.27,3.38,80.56,80.56,0,0,1-9.9,6.68,5.72,5.72,0,0,1-.58.37,3.8,3.8,0,0,0,.58.15c.58.11,1.09.19,1.39.78a5.23,5.23,0,0,1-1.39,1,16.32,16.32,0,0,1-2.59,1.09" transform="translate(43.42 32.74)"/><path class="e5f7fb5d-82d6-4c22-9a12-7751a4151f92" d="M262.93,70.94a3.55,3.55,0,0,1-.58.15,2.23,2.23,0,0,0,.58.15c.34,0,.64,0,.95.07a5.74,5.74,0,0,1,.88.16,4,4,0,0,1,.44.11,24.82,24.82,0,0,0,3.64,0,21.2,21.2,0,0,0,2.59-.3c3.37-.49,6.79-1.6,9-3.58a55.93,55.93,0,0,1-9,.56c-.82,0-1.71-.08-2.59-.19a19,19,0,0,1-2.18-.26A5,5,0,0,1,265,68a3.86,3.86,0,0,1,2.31.89,4.79,4.79,0,0,1-2.51,1.57c-.27.07-.57.18-.88.26l-.95.22" transform="translate(43.42 32.74)"/><path class="e5f7fb5d-82d6-4c22-9a12-7751a4151f92" d="M268.84,55.11A27.57,27.57,0,0,1,266,56.29c.89.27,1.7,0,2.58.57a.57.57,0,0,0,.24-.08,23.19,23.19,0,0,0,2.59-1c8.5-3.87,17.1-13.78,20.85-21.87a253.07,253.07,0,0,1-18.85,17c.35.37,1-.56,1,.37a15.69,15.69,0,0,1-3,2.35,25.64,25.64,0,0,1-2.59,1.46" transform="translate(43.42 32.74)"/><path class="e5f7fb5d-82d6-4c22-9a12-7751a4151f92" d="M268.84,49.51c-.54.45-1.12.9-1.63,1.31a8.21,8.21,0,0,0,1.63.08,11.22,11.22,0,0,0,2.59-.42c5.54-1.52,9.43-7.07,13.23-11.36,2-3.66,4.35-6.63,5.24-11-5.14,6.37-11.94,10.25-18.47,15.05-.31.22-.61.45-.89.68.28,0,.58,0,.89,0a5.58,5.58,0,0,0,2.85-.26,11.55,11.55,0,0,1-2.85,3.69,32.65,32.65,0,0,1-2.59,2.23" transform="translate(43.42 32.74)"/><path class="e5f7fb5d-82d6-4c22-9a12-7751a4151f92" d="M262.93,59.39c-.58.41-1.1.75-1.2.86.37.07.78.11,1.2.15h.95a6.19,6.19,0,0,0,.88,0,16.65,16.65,0,0,0,4.08-.79,16,16,0,0,0,2.59-1,1.06,1.06,0,0,0,.27-.15.64.64,0,0,1-.27-.07,16.62,16.62,0,0,0-2.59-.71,30.12,30.12,0,0,0-4.08-.53c-.27,0-.57,0-.88,0h-.95c-.48,0-1,0-1.5,0H261a2.55,2.55,0,0,0,.44.42,4.46,4.46,0,0,0,1.5.56,2,2,0,0,0,.95-.12,1.92,1.92,0,0,0,.48-.29c.36.22.06.63-.48,1a5.56,5.56,0,0,1-.95.67" transform="translate(43.42 32.74)"/><path class="e5f7fb5d-82d6-4c22-9a12-7751a4151f92" d="M261.43,118.27a7.2,7.2,0,0,0-.55-.56c-.27.59-.27,2-1.36,1.75.44.52,1.23.41,1.91.48a1.43,1.43,0,0,1,1.05.49.35.35,0,0,0,.45,0,4.3,4.3,0,0,0,.37-.37,1.69,1.69,0,0,1-.37-.15,7.76,7.76,0,0,1-1.5-1.6" transform="translate(43.42 32.74)"/><path class="a2f14a0c-36a5-4924-bfdd-5ea6b175097f" d="M259.62,118.56c.75.12.72-1,.3-1.33a1.92,1.92,0,0,0-1.94-.12,6,6,0,0,1,1.64,1.45" transform="translate(43.42 32.74)"/><path class="e5f7fb5d-82d6-4c22-9a12-7751a4151f92" d="M255,77.17a3.68,3.68,0,0,1-1.16-.57,2.85,2.85,0,0,0,1.16,1A14,14,0,0,0,259,78.66l1.09.22h1.36c.51,0,1,0,1.5-.07s.64,0,.95-.08a5.76,5.76,0,0,0,.88-.15,12.22,12.22,0,0,0,2.62-.71c-.85-.11-1.73-.22-2.62-.3-.27,0-.57,0-.88-.07l-.95-.11c-.48-.08-1-.15-1.5-.26-.34-.08-.72-.15-1.06-.26a12,12,0,0,1-1.39.41,8,8,0,0,1-3.94-.11" transform="translate(43.42 32.74)"/><path class="a2f14a0c-36a5-4924-bfdd-5ea6b175097f" d="M232,118.08c.62-.37,1-1.75,1-2.65-.23-1.19-1.26-1.15-1.56-.33.07,1,.95,1.49.61,3" transform="translate(43.42 32.74)"/><path class="e5f7fb5d-82d6-4c22-9a12-7751a4151f92" d="M252.45,78.13a2.58,2.58,0,0,0,1.43-.14,4.08,4.08,0,0,1-1.43-1c-.75-.78-1.5-1.6-2.92-1.23-.45-.11-.86-.26-1.3-.41a2.94,2.94,0,0,1-1.53-1,6.47,6.47,0,0,0,1.53,1.78,8.84,8.84,0,0,0,4.22,2" transform="translate(43.42 32.74)"/><path class="ba611971-0273-4136-8bf1-32a599d29cab" d="M240.13,41.87a3.47,3.47,0,0,0,1.26-.66c-.23-.38-.74-.38-1.26-.38a1.33,1.33,0,0,1,0,1" transform="translate(43.42 32.74)"/><path class="a2f14a0c-36a5-4924-bfdd-5ea6b175097f" d="M224.11,118.08c0-1.08,1.13-1.75,1.06-2.57-.74-.52-1.26-.23-1.49.15a2.39,2.39,0,0,0,.43,2.42" transform="translate(43.42 32.74)"/><path class="e5f7fb5d-82d6-4c22-9a12-7751a4151f92" d="M224.22,101.76c-.2.49.2,1.31-.41,1.49-.71.38-1.56,0-1.7.49a26.17,26.17,0,0,1,2.45,1.27,3.21,3.21,0,0,1,1.12,1.11,3.9,3.9,0,0,0,.54.26,1.88,1.88,0,0,0,.72-.11c-.81-.6-1.87-1.08-1.87-2.53-.24-.82.31-1.5-.14-1.83l-.37-.12a1.68,1.68,0,0,1-.34,0" transform="translate(43.42 32.74)"/><path class="a2f14a0c-36a5-4924-bfdd-5ea6b175097f" d="M222.66,102.58h.6c-.16-.34.25-1-.4-1a4.61,4.61,0,0,0-2.42.22c.85-.22,1.37.34,2.22.82" transform="translate(43.42 32.74)"/><path class="a2f14a0c-36a5-4924-bfdd-5ea6b175097f" d="M273.34,125.76a3.26,3.26,0,0,0,.5-2.2c-.16-.67-1.26-1-1.29,0,.11.74.64,1,.79,2.2" transform="translate(43.42 32.74)"/><path class="e5f7fb5d-82d6-4c22-9a12-7751a4151f92" d="M224.56,112.34a2.57,2.57,0,0,1-.75,1c-.64,0-.81.41-.71.9.37.18,1,0,1.46-.12s.85,0,1.05.38.32,1,.68,1.12c1.19-.37-.5-3.1.44-4,.65-.26,1,.19,1.57.34a1.4,1.4,0,0,0,.85,0c1,.71,0,2.31.72,2.9a2.63,2.63,0,0,1,3.23-.74c-1.12-1.12-2.59-2.35-3-4.43,2.18-1.94,6.06-3.09,8.67-1.94.82.23,1.06,1.38,1.78,1.38.07-.38.13-.86.2-1.38.2-1.15.47-2.42,1.36-3,.75-.22.85.19,1.29.19a11,11,0,0,1,1.9-4.07,3.69,3.69,0,0,1,2.28-1.27c.31.12.11.56.17,1l.48-.41a14.11,14.11,0,0,1,4.22-2.09,2,2,0,0,0,.48-.15c.5.45-.18,1.05-.32,1.76A6.05,6.05,0,0,1,255,98.52a4.83,4.83,0,0,0,1.76-.86c-.1-2.2.45-4.25-.3-5.89L255,91.43c-.86-.18-1.7-.37-2.59-.52a31.11,31.11,0,0,0-4.22-.44,26.28,26.28,0,0,0-2.93.07,17.71,17.71,0,0,0-4.55,1.12,18.61,18.61,0,0,0-2.82,1.49,1.15,1.15,0,0,0-.72.15c.07.78,1.12,0,1.5.67-.55.82-1.81,1.16-2.45,2-.61.23-1.06.23-1.47.41.11.6,1.27.38,1.57.15.1,1.49-.82,4-1,6.19-.56,2.2-2.66,3.1-4.43,3.32a22.65,22.65,0,0,0-2.62.63,29,29,0,0,1-3.74,1.08,4.53,4.53,0,0,1-4.12-1.11c-.45-.49-.95-.34-1.12-.82-.89,1,1,1.71.3,3.2-.3.15-.75.59-.54,1,1.4.55,3.78-1.08,5.48-.08.07,0,.1.08.16.08a3.46,3.46,0,0,1-.16,2.38" transform="translate(43.42 32.74)"/><path class="a2f14a0c-36a5-4924-bfdd-5ea6b175097f" d="M225.54,93.63a3.39,3.39,0,0,0,.89-2.6c-.41-1-1.67-1-1.53-.12a14.21,14.21,0,0,1,.64,2.72" transform="translate(43.42 32.74)"/><path class="e5f7fb5d-82d6-4c22-9a12-7751a4151f92" d="M219,83.16a5.59,5.59,0,0,1-5-2.91c-.38-.66-1.43-.06-1.64.34.48.38,1.12,1,.62,1.71-.34.57-.65.72-.79,1,.68.45,1.43-.9,2-.15.85,2,2.72.6,3.92,1.38-.66,1.86-3.27,2.2-4.33,3.2.41,0,1.4-.15,1.5.6s-.24.48.06,1.23c1.4-.6,2-3,3.68-3.36a1.42,1.42,0,0,0,.34,0c.85,1.49,3,1.27,3.44,2.87.1.86.1,1.56.6,1.94,1.13,0,.89-1.42,1.71-1.49.34,0,1.06.37,1.15.1-.54-.93-2.41-1.11-2.65-2.75a1.28,1.28,0,0,1,1.09-1.38,8.64,8.64,0,0,1,2.14.19,3.14,3.14,0,0,1,1.4-2.35c-2.62-.93-6.16,0-9.22-.19" transform="translate(43.42 32.74)"/><path class="a2f14a0c-36a5-4924-bfdd-5ea6b175097f" d="M212.93,91.43c0-1.11,1.67-1.22,1.56-2.34-.54-.49-1.46-.12-1.36.34a2.61,2.61,0,0,0-.2,2" transform="translate(43.42 32.74)"/><path class="a2f14a0c-36a5-4924-bfdd-5ea6b175097f" d="M213,56.78c.65,0,1.46.08,1.77-.49s-.1-.78-.1-1.15c-.21,1-1.37,1.15-1.67,1.64" transform="translate(43.42 32.74)"/><path class="e5f7fb5d-82d6-4c22-9a12-7751a4151f92" d="M219,37.63a.8.8,0,0,1-.61.15c-.45-.12-1.36-.6-1.36.11.07,1.38,1.12,2.12.81,3.61-.06.49.25.71.35,1-1,.72-2.87-.59-3.68.49,1,1-.54,1.94-.24,3.09,1.26,0,2.55-1.6,3.82-.33.57.89-.31,1.12-.66,1.49-2,1.12-.54,4.25-2.48,5.59-.68.37-1,.71-1,1.27.44,0,.65-.56,1.19-.34.51.6.61,1.6,1.05,1.83.61-1.83.51-4.81,2.38-5.7a3,3,0,0,1,.41.66c.89,1.87-.31,5,.51,7,.13-.26.13-.82.45-.82.6.34.3,1.15,1.15,1.26.2-.92,0-2.19.48-2.9.88.37,1,1.31,1.53,2-1.36-4.7-4.36-10.51-1.13-14.88,1.06-1.41,3.41-.63,4.05-2.08-.34-.89-1.91-.11-2-1a5.24,5.24,0,0,1-.21-1c-1.15.11-1.15,2.42-2.83,2.42-.64.11-.64,1.6-1.25,1.11a2.33,2.33,0,0,1,.21-2.6c.3-.6.94-1.83.3-2s-.89.34-1.26.6" transform="translate(43.42 32.74)"/><path class="a2f14a0c-36a5-4924-bfdd-5ea6b175097f" d="M226,38.78a2.79,2.79,0,0,0-.34-2.57,5.14,5.14,0,0,0-1,2.13c-.2.67.81.89,1.36.44" transform="translate(43.42 32.74)"/><path class="b3d82be2-4f4e-498e-9f1a-75be6ecd6776" d="M230.1,76a4.38,4.38,0,0,0,.07-.52c0,.11-.07.29-.07.52" transform="translate(43.42 32.74)"/><path class="ba611971-0273-4136-8bf1-32a599d29cab" d="M238.77,42h.62c-.82,0-.62-1.45-.92-1.45s-.44-.12-.54-.26a1.92,1.92,0,0,0,.84,1.71" transform="translate(43.42 32.74)"/><path class="e5f7fb5d-82d6-4c22-9a12-7751a4151f92" d="M245.3,35a15.15,15.15,0,0,0-1.49,2.31,13,13,0,0,0,1.49.49c.52.11,1,.26,1.64.44a11.06,11.06,0,0,0,1.29-1.52,12.19,12.19,0,0,1,2.86-3,13.9,13.9,0,0,0,1.36-3,2.08,2.08,0,0,0,.1-.34.13.13,0,0,1-.1,0,40.48,40.48,0,0,0-4.22,2A12.41,12.41,0,0,0,245.3,35" transform="translate(43.42 32.74)"/><path class="e5f7fb5d-82d6-4c22-9a12-7751a4151f92" d="M240.75,37.37a11.47,11.47,0,0,0-6,.15c1,2.2,3.74,2,6,2.46a8.72,8.72,0,0,1,1.59.52,4.52,4.52,0,0,0,3-.6,4.91,4.91,0,0,0,1.4-1.23,8.81,8.81,0,0,1-1.4-.26c-1.46-.3-3-.75-4.55-1" transform="translate(43.42 32.74)"/><path class="e5f7fb5d-82d6-4c22-9a12-7751a4151f92" d="M245.3,63.6a.16.16,0,0,1,0,.08,12.1,12.1,0,0,0-.51-2.31c-.34.67-.75,2.19-.24,3a.93.93,0,0,0,.78.75c.52.11,1.09.08,1.23.37-.34.37-.52,1.08-1.19,1.31,0,.33.75,0,.75.67s-.21.7-.44.82c1-.34,1.26.63,1.79,1.49a5.76,5.76,0,0,0,.79-.48c1.26-.83,2.58-1.94,4.22-2.17a5.23,5.23,0,0,1,.68-.07A5.14,5.14,0,0,0,255,64.86a17.21,17.21,0,0,0,1.63-6.07A14.38,14.38,0,0,1,259,52.46a19.4,19.4,0,0,1,2.45-2.94c.51-.49,1-.94,1.5-1.38.34-.26.64-.52.95-.79s.61-.44.88-.67c1.36-1,2.8-1.93,4.08-2.79.93-.6,1.8-1.2,2.59-1.75a2.92,2.92,0,0,0,.54-.38c2.66-2,4.11-4.47,5.68-7.33a47.41,47.41,0,0,1-6.22,6.74,25.16,25.16,0,0,1-2.59,2.09,23.21,23.21,0,0,1-2.58,1.67c.74-.7,1.63-1.67,2.58-2.76s1.73-2,2.59-3.12c3-3.77,5.88-8.21,7.13-11.6-2.48,2.39-4.75,5.22-7.13,8-.82,1-1.71,1.93-2.59,2.83a27,27,0,0,1-4.08,3.65,6.81,6.81,0,0,1-.88.6,10.18,10.18,0,0,1-.95.6,11.79,11.79,0,0,1-1.5.78,3.76,3.76,0,0,1-.68.29c.24-.14.47-.33.68-.48a14.53,14.53,0,0,0,1.5-1.27,10.78,10.78,0,0,0,.95-1,8.3,8.3,0,0,0,.88-1.08,16.14,16.14,0,0,0,2.62-5.06,13.94,13.94,0,0,1-2.62,3c-.27.26-.57.48-.88.75l-.95.7c-.48.34-1,.67-1.5,1-.79.52-1.6,1-2.45,1.49A40.47,40.47,0,0,0,255,44.86a16.55,16.55,0,0,0-2.59,2.57,11.07,11.07,0,0,0-1.36,2.23c-.1,1.39-.31,2.87-1.3,3.36-.85,1.27-.71,3.31-1.56,4.62a2.27,2.27,0,0,1-.79.78c-.4-.26-.09-.74-.53-1-.49,1.83-.49,4.51-1.61,6.15" transform="translate(43.42 32.74)"/><path class="e5f7fb5d-82d6-4c22-9a12-7751a4151f92" d="M255,73.51a4.43,4.43,0,0,0,1-.11,4.65,4.65,0,0,1-1-.45,5.27,5.27,0,0,1-2.42-3.09,9.43,9.43,0,0,1,2.42.63c1.35.41,2.81.82,3.94.12a2.44,2.44,0,0,0,.75-.64c-.24,0-.48,0-.75-.07-1.15-.12-2.55-.19-3.2-1.53.54-.74,1.91-.78,3.2-1a3.81,3.81,0,0,0,2.45-1.16.73.73,0,0,0,.2-.22.49.49,0,0,1-.2,0,3.77,3.77,0,0,1-2.45-.4,3.56,3.56,0,0,1-1.13-1,1.47,1.47,0,0,1-.23-.89c.45,0,.89,0,1.36,0a12.61,12.61,0,0,0,2.45-.37,5.31,5.31,0,0,0,1.5-.67,3.36,3.36,0,0,0,.47-.33,1.91,1.91,0,0,1-.47.07,5,5,0,0,1-1.5,0A4.32,4.32,0,0,1,259,61.1a1.93,1.93,0,0,1-.27-.41c-.35-.63-.11-1,.27-1.08a1.17,1.17,0,0,1,.37,0,5.88,5.88,0,0,0,2.08-.19,2.57,2.57,0,0,0,.92-.63,4.06,4.06,0,0,1-.92-.33,3.68,3.68,0,0,1-1.91-1.64c-.33-1,.75-1.23,1.09-.75a5.7,5.7,0,0,0,.82,0,5.86,5.86,0,0,0,1.5-.19,3.82,3.82,0,0,0,.95-.26,4,4,0,0,0,.88-.44,6,6,0,0,0,.65-.41,3.82,3.82,0,0,1-.65-.19l-.88-.34a3.19,3.19,0,0,0-.95-.3,2.36,2.36,0,0,0-1.5.16.33.33,0,0,1-.13.07c-.11,0-.31-.34-.31-.67l.44-.37c.51-.41,1-.79,1.5-1.2a11.6,11.6,0,0,0,.95-.85,6.19,6.19,0,0,0,.88-1,5.86,5.86,0,0,0,.54-.74c-.2,0-.37,0-.54.07s-.57.08-.88.15a6.08,6.08,0,0,0-.95.34,8.06,8.06,0,0,0-1.5.86A8.87,8.87,0,0,0,259,53.8c-.17.34-.3.71-.45,1.05-1.59,3.91-1.28,8.67-3.49,11.4a5.16,5.16,0,0,1-1.91,1.52c-.24,0-.47,0-.68,0-1.91.22-2.82,1.83-4.22,2.54a2.66,2.66,0,0,1-1.09.29c-.72-.33-.61-1.78-1.49-1.49a3.54,3.54,0,0,0-.35.23c-.84.63-1.53,1.3-1.39,2.2-.2,2.23.07,4,1.39,5a3.38,3.38,0,0,0,.58.34c.54-1-.4-2.87.13-3.61.69.37,1.43.78,2.22,1.12a7.67,7.67,0,0,0,2.76.67,6.57,6.57,0,0,1-1.05-2.84c.71.23,1.59.56,2.51.82a10.06,10.06,0,0,0,2.59.41" transform="translate(43.42 32.74)"/><path class="b3d82be2-4f4e-498e-9f1a-75be6ecd6776" d="M256.81,124.58v0" transform="translate(43.42 32.74)"/><path class="a2f14a0c-36a5-4924-bfdd-5ea6b175097f" d="M216,109.36c.55-1.11,2.42-.37,2.92-1-.23-.48-.3-1.27-.7-1.38a3.35,3.35,0,0,0-2.22,1.94Z" transform="translate(43.42 32.74)"/><path class="a2f14a0c-36a5-4924-bfdd-5ea6b175097f" d="M209.63,83.35c1-.9,2.14-.23,2.48-1.12,0-.93-.65-1.19-1.19-.93a2.32,2.32,0,0,0-1.29,2" transform="translate(43.42 32.74)"/><path class="a2f14a0c-36a5-4924-bfdd-5ea6b175097f" d="M218,76.87c.37-.11.91-.6.61-.93a3.17,3.17,0,0,0-1.91-1.31c.58.71.79,2.2,1.3,2.24" transform="translate(43.42 32.74)"/><path class="a2f14a0c-36a5-4924-bfdd-5ea6b175097f" d="M213.43,45c.52,0,.72-.56.25-1-1-.71-2.25-.34-3-.15A9.64,9.64,0,0,1,213.43,45" transform="translate(43.42 32.74)"/><path class="a2f14a0c-36a5-4924-bfdd-5ea6b175097f" d="M218.13,36.66c.27.56,1.36.23.82-.82s-1.54-1.75-2.45-1.75c.91.41,1.08,1.53,1.63,2.57" transform="translate(43.42 32.74)"/><path class="ad820118-9fcc-4836-b4e7-7471b26ab9a6" d="M252.37,35.58a10.44,10.44,0,0,1,2.49-1.08c-.73,1.2-1.57,1.86-2.19,3.43-.09.18-.2.37-.3.56-.65,1.26-1.66,2.49-3,2.34-.75-.07-.5-1.23-.09-2a7.89,7.89,0,0,1,3.12-3.2m-7.14,5c-.16.15-.32.31-.47.44-1.7,0-2.75,1-4,1.52a3.26,3.26,0,0,1-2.42.23c-.91-.27-1.12-1.75-1.32-2.65-1.09.23-1.6-.56-2.35-1-1.74-.45-3.91.41-4.11,1.49a2.61,2.61,0,0,0,.84,2.61,1.35,1.35,0,0,1,1.16-1.5c2.65,0,4.15,5.63,8.2,5.11a.46.46,0,0,0,.2,0,.52.52,0,0,1-.2.59,1,1,0,0,1-.62.11c-2-.59-4.69,1.16-6.76.27,1.25,2,4.66,2,7.38,1.86.95-.08,1.84-.15,2.52-.19a3.06,3.06,0,0,1-2.52,1,6.19,6.19,0,0,1-.82-.07c-1.6.11-3.67.19-4.39,1.83.11,0,.72,0,.52.82-.71,1.56-2.73,2-4.19,2.83.21.44.92.11,1,.6C232,57.6,230,57.82,230,59.32c.33,0,.95-.78,1.56-.27-.75,1.61-2.65,2.88-3.23,4.58a2.73,2.73,0,0,0-.1,1.42s.07,0,.1,0c.48-.29.78-.85,1.36-.55-.61,1.49-1.6,3.68-1,5.4.54-.48.74-1.26,1.48-1.26-.33,2-1.24,4-.33,6,.41-.48.54-1.16,1.16-1.23.07,1.57-.41,3.27.24,4.54.57-.44.57-1.38,1.35-1.38-.64,1-1.49,2.39-.64,4,.79-.46,1.35-.2,2.38-.08-.16-2.87-1.46-6.48.11-9.8.65-.93,1.56-1.68,2.41-1.19-.1.71-.92.11-1.36.82-2.72,3-1.16,7.56-.31,10.84-.74.27-2.18-.79-2.82-.11,0,0,.23.23.23.38s.18.66,0,1.14a9.79,9.79,0,0,0-4.21-.81,7.84,7.84,0,0,0-1,.11c.08.67.52.82,1,1.12a2.43,2.43,0,0,1,.55.48,1.61,1.61,0,0,1-.55.93,2.25,2.25,0,0,0-.82,1.94,1.25,1.25,0,0,0,.82.11c1-.22,2-1.23,2.93-1.16-.52.6-.31,1.49-.82,2,1.57.18,3.13-1,4.18-1.64a4.56,4.56,0,0,1-.5,1.94c1.9-.71,2.27-2.12,3.63-3,0,.83-.27,1.57-.27,2.16a6.65,6.65,0,0,0,2.48-3.31c.48-.19.69.15.82.49s.23.44.41.52c-.21-.41,0-1.34-.3-2.27.64-1.61,2.64-2.65,2.71-4.74,1.19,2.24-2.48,3.39-1.73,6a5.08,5.08,0,0,0,3.3,2.64,3.11,3.11,0,0,1-.38-1.41,2.41,2.41,0,0,1,.54,0c1.09.18,1.95,1.26,2.93,1.79a2.34,2.34,0,0,0,.68.25c.3-.37-.13-.89.41-1.33,1.49,0,2,1.78,3.13,2.27a.34.34,0,0,0,.17,0c.51-.14-.07-.74.31-1.34.23-1,.84.34,2.11,1.53a5.92,5.92,0,0,0,1.66,1c2.11,4.63-.82,11.67,2.11,17.08.54,1.9-1.19,2.94-2,3.87a3.71,3.71,0,0,0,2.18-.67,6.48,6.48,0,0,1,.95-.38,5,5,0,0,0-.31,1.75c.31.9.86,1.8,1.57,1.8a3.38,3.38,0,0,1,.24-2.32,3,3,0,0,1,.61-.85,2.11,2.11,0,0,0,.88,1,8.1,8.1,0,0,0,1,.53,5.92,5.92,0,0,1,.88.41l.85.44c.92.6.92,2.21.44,3.73-.3,1-.68,2.05-1.29,3.61-.14.42-.34.86-.51,1.31a3.88,3.88,0,0,1-.37.56,2.59,2.59,0,0,1-1,.82,3.38,3.38,0,0,1-1.49.41c-.79.11-1.63,0-2.45.15-.17,0-.34,0-.47,0a2.51,2.51,0,0,0,.47.45,7.44,7.44,0,0,1,.54.56c.35.23.21,1.27-.1,2.09-.07.56.31.56.65.56.41-.71.54-1.64,1.36-2.05v0a1.52,1.52,0,0,0,1.49-.14c.35-.19.65-.41,1-.6a1.94,1.94,0,0,1,.88-.22,2,2,0,0,1,.65.11c.61,1-.21,1.9-.65,2.68-.2.38-.34.75-.11,1.08,0-.07.07-.15.11-.22a4.52,4.52,0,0,1,.44-.6c.61-1.56,2.52.75,2.83-.89-.44-.23-.54-1.12-1-1.83-.07-1,.75-1.27,1.29-1.94a.88.88,0,0,1,.51-.18,2.69,2.69,0,0,1,1.87.63c1.06.45.48,1.38.72,2a.43.43,0,0,0,.16.19c.31-.26.31-.71.62-1.27.31-.82,1,.08,1.32-.15V122c0-1-1.35-.63-2.07-1.41-1.26-1.42-1.35-4-.92-6.45.37-.41.37-1.38.89-1.79.07,0,.1-.08.16-.11.82.19.62,1.15,1,1.56a6.51,6.51,0,0,0-.5-4.32c-.34-.48.17-.48.62-.59a10.7,10.7,0,0,0-1.3-3.06,7.45,7.45,0,0,0-1.64-1.86c.11-.9,1.06-.15,1.36-.48-.54-1.24-2.41-2-2-3.29a.85.85,0,0,0,.64.19,6.62,6.62,0,0,0-1-2.2,4.25,4.25,0,0,1-.61-1.68.53.53,0,0,1,.61,0c.34.19.65.53,1,.56a14.84,14.84,0,0,0-1-3.46,8.93,8.93,0,0,1-.37-1.57.43.43,0,0,1,.37.12c.23.14.45.33.75.11a5.79,5.79,0,0,0-.75-1.49,1.8,1.8,0,0,1-.3-1.34l.3.21a8.46,8.46,0,0,1,2.59,2.43c1.26,1.68,2.21,3.65,3.47,5.37,2.11,3.65,6.49,2.34,10.16,1.37a2.07,2.07,0,0,1,2.63,1c.95-1.11-.62-2-1.05-2.94,3.16-6.07-1.91-12.89-1-20,.48-4,3.54-4.7,4.29-7.38-.75.48-1.26,1.08-2.11,1.15,1.19-3.2,4.55-7.34,2.83-12.22a2.28,2.28,0,0,0-2.49-1.08c-.69.26-1.36,1.08-1.06,1.38.55-.18,1.64-.15,1.91.78,1.39,5.22-2.89,8.91-4.63,13.08-2,4.77-1.46,10.88.31,15.47-.58-.19-2.08-.08-2.08.7,3,1,3.81,3.88,2.08,6.6-1.26,2.72-5.65,3.91-7.45,1.71-1.7-2-4.18-5.55-5.78-7.63-.45-.6-.82-1.09-1.09-1.38s-.79-.72-1.5-1.27a50.16,50.16,0,0,0-4.08-3,6.88,6.88,0,0,0-.88-.61l-1-.63-1.49-.89A21.38,21.38,0,0,0,259,80.3a19.9,19.9,0,0,0-3.74-1.42.36.36,0,0,1-.2,0,12.37,12.37,0,0,1-2.59-.26,16.52,16.52,0,0,1-4.22-1.75c-.54-.31-1.09-.64-1.59-1-.63.33,0,1.26-.31,1.82a2.24,2.24,0,0,1-1-.26c-1-.56-1.42-1.76-2.1-2.72-.54-.33-.45.71-1,.26,2-1.86.2-5.18,2.62-7,.51-.9-1.26-.9-.75-1.83.44-.22,1.06.26,1.06-.33-.52-.11-.52-.56-1.13-.79-.95-1.86,0-3.91.51-5.4.68-.09.65.58.75,1.09V61c1.18-1.86.68-4.32,1.08-6.3,1.26-.33.72,1.56,1.33,2.05a3.26,3.26,0,0,0,.48-1c.85-2.23-.11-5.33.88-6.81.65.66.3,1.82.92,2.3a1,1,0,0,0,.2-.37c1-2.27.27-5.36-1.29-7.6a9.33,9.33,0,0,0,3.5-1.3,2,2,0,0,0,.58-.64c-.07-.15-.3-.26-.58-.48,0,0-.09-.11-.14-.19a1,1,0,0,0,.14-.15c1-.93,2.08-1.11,2.59-2.46l.1-.22c0-.19,0-.26-.1-.3s-.54.07-.54-.56c.16-.18.37-.4.54-.63a22,22,0,0,0,2.92-4.51h-.61a13.48,13.48,0,0,0-2.31.64,13.08,13.08,0,0,0-2.59,1.3,24.68,24.68,0,0,0-4.21,3.65c-1,1-1.91,2.05-2.93,3.06Z" transform="translate(43.42 32.74)"/><path class="edf513e9-6d67-4886-a0bb-cb961d152c21" d="M103.21,110.67l7.88,3q-2.19,6.6-6.65,9.62a17.49,17.49,0,0,1-11,2.69,17.63,17.63,0,0,1-13.1-6.27q-5-5.85-4.45-15.5Q76.38,94,82,88.58t14.16-4.93q7.51.41,12,5.08a16.18,16.18,0,0,1,3.79,7.75L103.59,98a8.46,8.46,0,0,0-8.26-7.32,9.35,9.35,0,0,0-7.55,2.88c-2,2.08-3.13,5.56-3.39,10.43q-.4,7.75,2.21,11.2a9.1,9.1,0,0,0,7.08,3.67,8.24,8.24,0,0,0,5.78-1.8c1.65-1.3,2.9-3.44,3.75-6.4" transform="translate(43.42 32.74)"/><path class="edf513e9-6d67-4886-a0bb-cb961d152c21" d="M126.08,160l.13-41,13.28,0c5,0,8.3.24,9.83.65a10.7,10.7,0,0,1,5.88,4,12.75,12.75,0,0,1,2.36,8,13.58,13.58,0,0,1-1.39,6.33,11.15,11.15,0,0,1-3.49,4,12,12,0,0,1-4.3,1.93,48.67,48.67,0,0,1-8.58.57l-5.39,0,0,15.46Zm8.39-34-.05,11.62,4.54,0a21.5,21.5,0,0,0,6.53-.62,5.46,5.46,0,0,0,2.6-2,5.6,5.6,0,0,0,.95-3.18,5.3,5.3,0,0,0-1.31-3.69,5.66,5.66,0,0,0-3.32-1.83,41.05,41.05,0,0,0-5.95-.3Z" transform="translate(43.42 32.74)"/><path class="edf513e9-6d67-4886-a0bb-cb961d152c21" d="M224.54,217.48l8,2.51q-1.83,6.72-6.11,10a19.27,19.27,0,0,1-24.3-2.26q-5.27-5.55-5.29-15.23c0-6.81,1.72-12.11,5.25-15.89s8.12-5.68,13.87-5.7q7.52,0,12.22,4.42a16.12,16.12,0,0,1,4.21,7.53l-8.18,2a8.45,8.45,0,0,0-8.65-6.85,9.29,9.29,0,0,0-7.39,3.28q-2.82,3.27-2.81,10.6c0,5.17,1,8.86,2.82,11.05a9,9,0,0,0,7.28,3.28,8.24,8.24,0,0,0,5.67-2.11,12.05,12.05,0,0,0,3.39-6.59" transform="translate(43.42 32.74)"/><rect class="edf513e9-6d67-4886-a0bb-cb961d152c21" x="72.15" y="21" width="17.72" height="16.75" transform="translate(42.9 34.2) rotate(-1.03)"/><rect class="edf513e9-6d67-4886-a0bb-cb961d152c21" x="92.43" y="39.07" width="17.73" height="16.75" transform="translate(42.58 34.56) rotate(-1.03)"/><rect class="edf513e9-6d67-4886-a0bb-cb961d152c21" x="112.75" y="56.82" width="17.72" height="16.75" transform="translate(42.27 34.93) rotate(-1.03)"/><polygon class="edf513e9-6d67-4886-a0bb-cb961d152c21" points="194.22 123.76 176.5 124.08 176.2 107.33 193.93 107 194.22 123.76"/><rect class="edf513e9-6d67-4886-a0bb-cb961d152c21" x="153.22" y="92.39" width="17.73" height="16.75" transform="translate(41.62 35.69) rotate(-1.04)"/><rect class="edf513e9-6d67-4886-a0bb-cb961d152c21" x="173.67" y="110.21" width="17.73" height="16.75" transform="translate(41.32 36.03) rotate(-1.03)"/><polygon class="edf513e9-6d67-4886-a0bb-cb961d152c21" points="255.28 177.57 237.56 177.89 237.26 161.14 254.97 160.82 255.28 177.57"/><polygon class="edf513e9-6d67-4886-a0bb-cb961d152c21" points="275.53 195.14 257.8 195.46 257.5 178.72 275.22 178.4 275.53 195.14"/><rect class="edf513e9-6d67-4886-a0bb-cb961d152c21" x="233.91" y="163.43" width="17.73" height="16.75" transform="translate(40.35 37.16) rotate(-1.04)"/><rect class="edf513e9-6d67-4886-a0bb-cb961d152c21" x="254.03" y="181.05" width="17.72" height="16.75" transform="translate(40.04 37.51) rotate(-1.03)"/><polygon class="edf513e9-6d67-4886-a0bb-cb961d152c21" points="335.07 247.78 317.35 248.1 317.06 231.35 334.77 231.03 335.07 247.78"/><polygon class="edf513e9-6d67-4886-a0bb-cb961d152c21" points="355.22 265.47 337.5 265.78 337.19 249.03 354.92 248.72 355.22 265.47"/><polygon class="edf513e9-6d67-4886-a0bb-cb961d152c21" points="83.35 153.95 65.62 154.27 65.33 137.52 83.05 137.2 83.35 153.95"/><polygon class="edf513e9-6d67-4886-a0bb-cb961d152c21" points="104.19 172.02 86.45 172.34 86.16 155.59 103.88 155.28 104.19 172.02"/><rect class="edf513e9-6d67-4886-a0bb-cb961d152c21" x="63.21" y="141.27" width="17.73" height="16.75" transform="translate(40.72 34.07) rotate(-1.04)"/><polygon class="edf513e9-6d67-4886-a0bb-cb961d152c21" points="144.69 207.94 126.97 208.25 126.67 191.51 144.39 191.19 144.69 207.94"/><polygon class="edf513e9-6d67-4886-a0bb-cb961d152c21" points="165.26 226.16 147.53 226.49 147.24 209.74 164.96 209.42 165.26 226.16"/><polygon class="edf513e9-6d67-4886-a0bb-cb961d152c21" points="185.71 244.27 167.97 244.59 167.68 227.84 185.41 227.52 185.71 244.27"/><polygon class="edf513e9-6d67-4886-a0bb-cb961d152c21" points="206.03 262.02 188.3 262.34 188.01 245.6 205.72 245.27 206.03 262.02"/><polygon class="edf513e9-6d67-4886-a0bb-cb961d152c21" points="226.26 279.88 208.54 280.2 208.25 263.45 225.96 263.13 226.26 279.88"/><polygon class="edf513e9-6d67-4886-a0bb-cb961d152c21" points="245.94 297.22 228.22 297.54 227.93 280.79 245.64 280.46 245.94 297.22"/><polygon class="edf513e9-6d67-4886-a0bb-cb961d152c21" points="266.06 314.28 248.33 314.6 248.04 297.85 265.76 297.52 266.06 314.28"/><polygon class="edf513e9-6d67-4886-a0bb-cb961d152c21" points="285.82 331.97 268.09 332.28 267.8 315.54 285.51 315.21 285.82 331.97"/><polygon class="edf513e9-6d67-4886-a0bb-cb961d152c21" points="305.97 349.65 288.23 349.97 287.94 333.22 305.66 332.9 305.97 349.65"/><path class="edf513e9-6d67-4886-a0bb-cb961d152c21" d="M158.07,179.9l8-.78A9.76,9.76,0,0,0,169,185a8.86,8.86,0,0,0,6,1.89q4,0,6-1.68a5,5,0,0,0,2-3.93,3.7,3.7,0,0,0-.85-2.46,6.81,6.81,0,0,0-2.95-1.76c-1-.33-3.16-.93-6.58-1.78q-6.62-1.63-9.27-4a10.59,10.59,0,0,1-3.76-8.2,10.41,10.41,0,0,1,1.77-5.81,11,11,0,0,1,5.07-4.13,20.55,20.55,0,0,1,8-1.41q7.66,0,11.54,3.35a11.91,11.91,0,0,1,4.07,9l-8.23.36a7,7,0,0,0-2.25-4.52,8.35,8.35,0,0,0-5.21-1.37,9.4,9.4,0,0,0-5.61,1.47,3,3,0,0,0-1.31,2.53,3.13,3.13,0,0,0,1.22,2.47q1.56,1.3,7.56,2.72a40.13,40.13,0,0,1,8.87,2.93,11.47,11.47,0,0,1,4.5,4.14,12.83,12.83,0,0,1-.32,13,11.67,11.67,0,0,1-5.5,4.55,23.26,23.26,0,0,1-8.86,1.48q-7.71,0-11.86-3.57t-4.94-10.4" transform="translate(43.42 32.74)"/></g></g></svg>