<?xml version="1.0" encoding="utf-8"?>
<!-- Generator: Adobe Illustrator 25.3.1, SVG Export Plug-In . SVG Version: 6.00 Build 0)  -->
<svg version="1.1" xmlns="http://www.w3.org/2000/svg" xmlns:xlink="http://www.w3.org/1999/xlink" x="0px" y="0px"
	 viewBox="0 0 169.22 207.19" style="enable-background:new 0 0 169.22 207.19;" xml:space="preserve">
<style type="text/css">
	.st0{fill-rule:evenodd;clip-rule:evenodd;fill:#64B054;}
	.st1{fill:#F6DC00;}
	.st2{fill:#64B054;}
	.st3{fill:none;}
	.st4{fill-rule:evenodd;clip-rule:evenodd;fill:#307350;}
	.st5{fill-rule:evenodd;clip-rule:evenodd;fill:#D15A40;}
	.st6{fill:#272525;}
	.st7{fill:#CC2529;}
	.st8{fill:#F0E93B;}
	.st9{fill:#D35D35;}
	.st10{fill:#FFFFFF;}
	.st11{fill-rule:evenodd;clip-rule:evenodd;fill:#D35D35;}
</style>
<g id="Layer_2">
</g>
<g id="Layer_1">
	<g>
		<path class="st0" d="M169.22,0v88.97c0,77.73-71.66,112.55-84.61,118.21C71.66,201.52,0,166.7,0,88.97V0H169.22z"/>
		<path class="st1" d="M162.65,89.15c0,69.7-61.05,103.11-77.86,110.96C67.97,192.25,6.93,158.85,6.93,89.15V6.57h155.73V89.15z"/>
		<path class="st2" d="M30.19,2.28L162.9,119.27l-1.5,4.9L24.89,3.83L30.19,2.28z M3.6,42.75l134.44,118.52l-0.92,5.41L3.12,48.55
			L3.6,42.75z"/>
		<path class="st3" d="M6.92,6.57v82.58c0,69.7,61.05,103.11,77.86,110.96c16.82-7.85,77.86-41.26,77.86-110.96V6.57H6.92z"/>
		<path class="st4" d="M23.4,40.95l-0.08,0.08l-0.83,1.98l-0.87-1.91l-0.02-0.04c0.1-0.1,0.19-0.2,0.29-0.31
			c0.29-0.32,0.77-0.36,1.1-0.1L23.4,40.95z M33.53,32.23l0.02,0.02l1.47,1.5l-2.04,0.06c-0.06-0.12-0.11-0.25-0.18-0.39
			c-0.17-0.37-0.02-0.81,0.35-1L33.53,32.23z M15.44,20.81l0.02-0.12l-0.53-2.03l1.89,1.02l0.09,0.02c-0.04,0.24-0.1,0.53-0.16,0.86
			l-0.01,0.05c-0.08,0.29-0.38,0.45-0.67,0.38L15.44,20.81z M28.46,19.68l0.14,0l1.89-1.02l-0.53,2.03l0.01,0.11
			c-0.18,0.05-0.39,0.1-0.64,0.17l-0.06,0.01c-0.33,0.05-0.63-0.17-0.68-0.49L28.46,19.68z M12.45,33.73l-0.04-0.01l-2.15-0.06
			l1.47-1.5l0.04-0.11c0.16,0.09,0.34,0.18,0.52,0.27l0.09,0.05c0.36,0.23,0.47,0.72,0.23,1.08L12.45,33.73z"/>
		<path class="st4" d="M30.89,31.89L30.89,31.89L30.89,31.89z M30.44,32.77L30.44,32.77L30.44,32.77z M22.84,26.13
			c1.77,0,3.21,1.44,3.21,3.21c0,1.77-1.44,3.21-3.21,3.21c-1.77,0-3.21-1.44-3.21-3.21C19.64,27.57,21.07,26.13,22.84,26.13
			 M25.4,31.76l0.2-0.22c1.56,1.43,3.06,2.17,3.97,1.87l-0.01,0C28.72,34,27.11,33.3,25.4,31.76 M25.18,31.97l0.18-0.18
			c0.22,0.25,0.47,0.53,0.71,0.83c1.02,1.2,1.8,2.21,1.74,2.26c-0.06,0.05-0.93-0.88-1.95-2.08C25.62,32.51,25.39,32.24,25.18,31.97
			 M24.89,32.21l0.24-0.18c1.22,1.92,1.64,3.63,0.93,4.35l-0.01,0.01C26.5,35.55,26.03,33.96,24.89,32.21 M20.59,32.05
			c-1.69,1.51-3.3,2.21-4.13,1.63l-0.01-0.01c0.9,0.3,2.37-0.43,3.92-1.82L20.59,32.05 M20.83,32.24c-0.21,0.26-0.44,0.54-0.69,0.83
			c-1.02,1.2-1.89,2.14-1.95,2.09c-0.06-0.05,0.72-1.06,1.74-2.26c0.25-0.29,0.48-0.56,0.7-0.81L20.83,32.24 M21.15,32.43
			c-1.15,1.78-1.64,3.38-1.19,4.22l-0.01-0.01c-0.71-0.73-0.28-2.44,0.94-4.36L21.15,32.43 M23.08,25.82
			c0.32-2.24,1.09-3.79,2.09-3.89h0.01c-0.87,0.35-1.53,1.86-1.81,3.92C23.28,25.84,23.18,25.83,23.08,25.82 M22.75,25.81
			c-0.01-0.32-0.01-0.67-0.01-1.03c0-1.57,0.06-2.85,0.14-2.85c0.08,0,0.13,1.28,0.13,2.85c0,0.36,0,0.71-0.01,1.03l-0.16,0H22.75z
			 M22.4,25.84c-0.28-2.06-0.94-3.55-1.81-3.91h0.01c1.01,0.1,1.78,1.65,2.09,3.88C22.59,25.82,22.49,25.83,22.4,25.84 M26.28,28.55
			c2.2-0.63,3.96-0.56,4.45,0.33l0.01,0.01c-0.68-0.67-2.37-0.66-4.41-0.05C26.32,28.74,26.3,28.65,26.28,28.55 M26.19,28.23
			c0.3-0.13,0.62-0.28,0.96-0.43c1.44-0.63,2.63-1.09,2.66-1.02c0.03,0.07-1.11,0.64-2.55,1.27c-0.35,0.15-0.69,0.3-1,0.43
			L26.19,28.23 M26.06,27.9c1.76-1.08,2.86-2.28,2.83-3.22l0,0.01c0.32,0.96-0.79,2.3-2.72,3.49C26.14,28.08,26.1,27.99,26.06,27.9
			 M19.5,28.22c-1.97-1.2-3.11-2.56-2.79-3.53l0-0.01c-0.04,0.95,1.09,2.17,2.89,3.26C19.56,28.03,19.53,28.13,19.5,28.22
			 M19.42,28.51c-0.33-0.13-0.69-0.29-1.08-0.46c-1.44-0.63-2.58-1.21-2.55-1.27c0.03-0.07,1.22,0.39,2.66,1.02
			c0.37,0.16,0.72,0.32,1.03,0.47L19.42,28.51 M19.35,28.86c-2.08-0.63-3.8-0.65-4.49,0.03l0.01-0.01c0.5-0.9,2.3-0.97,4.54-0.31
			C19.38,28.67,19.36,28.77,19.35,28.86"/>
		<path class="st5" d="M13.79,31.7c-0.28,0-0.61-0.05-1.02-0.2c-1.61-0.6-0.81-2.02-0.73-2.23c0.08-0.21,0.61-1.24,0.77-1.46
			c0.16-0.22,0.52-1.03,0.62-1.31c0.1-0.28,0.4-1.89,0.42-2.15c0.02-0.27,0.16-1.07,0.24-1.28c0.08-0.21,0.54-1.58,2.15-0.98
			c0.59,0.21,0.99,0.49,1.26,0.73c-0.2-0.29-0.67-0.79-1.6-1.13c-1.61-0.59-2.1,0.84-2.18,1.06c-0.08,0.22-0.23,1.06-0.26,1.34
			c-0.03,0.28-0.36,1.97-0.46,2.26c-0.11,0.29-0.48,1.15-0.65,1.38c-0.16,0.23-0.71,1.31-0.8,1.53c-0.08,0.22-0.91,1.73,0.7,2.32
			C12.95,31.83,13.46,31.8,13.79,31.7 M28.62,22.41c0.23-0.16,0.53-0.31,0.95-0.42c1.66-0.44,1.83,1.18,1.88,1.4
			c0.06,0.22,0.21,1.36,0.21,1.63c-0.01,0.27,0.17,1.14,0.25,1.43c0.08,0.29,0.76,1.77,0.9,2.01c0.13,0.23,0.49,0.97,0.54,1.18
			c0.06,0.22,0.47,1.6-1.19,2.05c-0.6,0.16-1.09,0.17-1.46,0.13c0.33,0.12,1.01,0.26,1.96,0c1.66-0.44,1.24-1.9,1.17-2.12
			c-0.06-0.23-0.41-1-0.56-1.25c-0.14-0.24-0.84-1.81-0.92-2.11c-0.08-0.3-0.27-1.21-0.27-1.49c0-0.28-0.17-1.48-0.23-1.72
			c-0.06-0.23-0.25-1.93-1.91-1.49C29.23,21.82,28.84,22.14,28.62,22.41 M17.85,21.76c-0.09-0.26-0.16-0.6-0.16-1.03
			c0-1.71,1.61-1.46,1.84-1.46c0.23,0,1.37,0.14,1.63,0.22c0.26,0.08,1.15,0.13,1.44,0.13c0.3,0,1.91-0.27,2.17-0.34
			c0.26-0.07,1.06-0.22,1.29-0.22c0.22,0,1.66-0.04,1.66,1.68c0,0.63-0.12,1.1-0.25,1.44c0.2-0.29,0.51-0.9,0.51-1.89
			c0-1.71-1.51-1.68-1.75-1.68c-0.24,0-1.08,0.14-1.35,0.22c-0.27,0.07-1.97,0.35-2.28,0.35c-0.31,0-1.24-0.05-1.52-0.13
			c-0.27-0.08-1.48-0.22-1.71-0.22c-0.24,0-1.93-0.26-1.93,1.46C17.44,21.02,17.65,21.48,17.85,21.76 M14.25,33.11
			c-0.33,0.11-0.77,0.37-1.19,0.98c-0.98,1.41,0.56,2.17,0.76,2.3c0.19,0.14,1.26,0.7,1.53,0.8c0.26,0.1,1.06,0.59,1.32,0.76
			c0.25,0.18,1.49,1.37,1.67,1.59c0.18,0.22,0.79,0.82,0.98,0.95c0.2,0.13,1.42,1.03,2.4-0.38c0.56-0.81,0.66-1.49,0.66-1.84
			c-0.08,0.36-0.26,0.81-0.61,1.33c-0.98,1.41-2.14,0.55-2.33,0.42c-0.18-0.13-0.76-0.7-0.93-0.91c-0.17-0.21-1.34-1.35-1.58-1.52
			c-0.25-0.17-1-0.63-1.26-0.72c-0.25-0.09-1.28-0.62-1.47-0.75c-0.18-0.13-1.65-0.84-0.68-2.25
			C13.78,33.51,14.02,33.27,14.25,33.11 M31.21,33.16c0.23,0.16,0.48,0.4,0.72,0.75c0.98,1.41-0.49,2.12-0.67,2.25
			c-0.19,0.13-1.21,0.66-1.47,0.75c-0.26,0.09-1.02,0.55-1.26,0.72c-0.24,0.17-1.41,1.31-1.58,1.52c-0.17,0.21-0.74,0.78-0.93,0.91
			c-0.19,0.13-1.35,0.98-2.33-0.43c-0.36-0.51-0.53-0.97-0.62-1.33c0.01,0.35,0.1,1.04,0.67,1.85c0.98,1.4,2.2,0.51,2.39,0.38
			c0.2-0.14,0.8-0.73,0.99-0.95c0.18-0.22,1.42-1.41,1.67-1.59c0.25-0.18,1.05-0.66,1.32-0.76c0.26-0.09,1.34-0.66,1.53-0.8
			c0.19-0.14,1.73-0.89,0.75-2.31C31.98,33.53,31.54,33.27,31.21,33.16 M19.65,27.84c-0.12-0.07-0.24-0.15-0.37-0.23
			c-0.61-0.39-1.09-0.77-1.59-1.28c-0.16-0.17-0.29-0.32-0.43-0.5l-0.11-0.14c-0.34-0.5-0.32-0.8-0.37-1.38
			c-0.02-0.23-0.03-0.42-0.03-0.42s-0.04,0.19-0.09,0.44c-0.16,0.8-0.21,1.09,0.25,1.8c0.18,0.29,0.38,0.53,0.64,0.77
			c0.33,0.32,0.62,0.58,0.99,0.85c-0.61-0.27-1.12-0.49-1.74-0.73c-0.28-0.12-0.52-0.2-0.81-0.29l-0.14-0.03l-0.08,0l-0.04,0.02
			l-0.03,0.04l-0.01,0.1l0.08,0.09L15.89,27l0.3,0.16l0.68,0.34c0.55,0.27,1.02,0.48,1.58,0.72c-0.37-0.08-0.68-0.12-1.05-0.16
			c-0.52-0.06-0.96-0.05-1.47,0.05c-0.16,0.03-0.29,0.07-0.43,0.13c-0.55,0.22-0.64,0.45-0.98,0.9c-0.13,0.16-0.2,0.25-0.2,0.25
			l0.77-0.54c0.16-0.12,0.34-0.19,0.55-0.24c0.25-0.06,0.47-0.09,0.73-0.1c0.48-0.02,0.9,0.02,1.37,0.1c0.57,0.1,1.08,0.22,1.6,0.37
			c-0.02,0.12-0.02,0.24-0.02,0.37c0,0.94,0.37,1.8,0.97,2.43c-0.09,0.09-0.2,0.18-0.31,0.27c-0.54,0.48-1.05,0.83-1.68,1.17
			c-0.21,0.11-0.39,0.18-0.61,0.26l-0.17,0.06c-0.57,0.18-0.86,0.08-1.42-0.04c-0.23-0.05-0.42-0.09-0.42-0.09s0.18,0.09,0.4,0.21
			c0.71,0.38,0.98,0.5,1.79,0.27c0.33-0.09,0.61-0.21,0.92-0.39c0.4-0.22,0.73-0.43,1.09-0.71c-0.43,0.51-0.78,0.94-1.2,1.46
			c-0.19,0.23-0.34,0.44-0.51,0.7l-0.07,0.13l-0.02,0.07v0.04l0.03,0.04l0.09,0.04l0.12-0.05l0.11-0.1l0.25-0.24l0.52-0.56
			c0.41-0.46,0.75-0.85,1.14-1.31c-0.18,0.33-0.31,0.62-0.46,0.96c-0.2,0.48-0.32,0.91-0.37,1.43c-0.02,0.15-0.02,0.3,0,0.44
			c0.06,0.58,0.26,0.74,0.58,1.2c0.12,0.16,0.19,0.26,0.19,0.26l-0.3-0.89c-0.07-0.19-0.09-0.38-0.08-0.6
			c0.01-0.26,0.05-0.47,0.11-0.73c0.12-0.47,0.27-0.85,0.48-1.28c0.24-0.48,0.48-0.91,0.75-1.32c0.48,0.25,1.03,0.39,1.6,0.39
			c0.73,0,1.4-0.22,1.96-0.6c0.26,0.4,0.49,0.81,0.71,1.27c0.21,0.43,0.35,0.82,0.48,1.29c0.07,0.25,0.1,0.46,0.11,0.72
			c0.01,0.21-0.01,0.41-0.07,0.6l-0.3,0.89c0,0,0.07-0.1,0.19-0.26c0.33-0.46,0.53-0.62,0.59-1.2c0.01-0.15,0.01-0.29,0-0.45
			c-0.06-0.52-0.17-0.95-0.38-1.43c-0.14-0.34-0.28-0.63-0.46-0.96c0.39,0.47,0.73,0.86,1.14,1.31l0.52,0.56l0.25,0.24l0.11,0.1
			L27.81,35l0.1-0.04l0.02-0.05l0.01-0.04l-0.02-0.07l-0.08-0.13c-0.17-0.25-0.32-0.46-0.51-0.69c-0.41-0.52-0.77-0.96-1.2-1.46
			c0.37,0.28,0.69,0.49,1.09,0.71c0.31,0.18,0.59,0.3,0.92,0.39c0.81,0.23,1.08,0.11,1.8-0.27c0.22-0.12,0.39-0.21,0.39-0.21
			s-0.19,0.04-0.41,0.09c-0.56,0.12-0.86,0.22-1.43,0.04l-0.17-0.06c-0.22-0.08-0.4-0.16-0.6-0.27c-0.64-0.34-1.14-0.69-1.68-1.16
			c-0.13-0.12-0.25-0.22-0.37-0.33c0.45-0.59,0.71-1.32,0.71-2.11c0-0.13-0.01-0.26-0.02-0.39c0.49-0.14,0.97-0.26,1.51-0.35
			c0.48-0.08,0.89-0.11,1.37-0.1c0.26,0.01,0.48,0.04,0.73,0.1c0.21,0.05,0.39,0.12,0.54,0.24l0.78,0.54c0,0-0.07-0.09-0.2-0.25
			c-0.35-0.45-0.45-0.68-0.98-0.9c-0.13-0.06-0.27-0.1-0.43-0.13c-0.51-0.09-0.96-0.11-1.47-0.05c-0.37,0.04-0.69,0.09-1.06,0.16
			c0.56-0.24,1.03-0.46,1.59-0.72l0.68-0.34l0.3-0.16l0.13-0.08l0.08-0.09l-0.01-0.1l-0.03-0.04l-0.04-0.02l-0.08,0l-0.14,0.03
			c-0.29,0.09-0.53,0.18-0.81,0.29c-0.62,0.25-1.13,0.47-1.74,0.73c0.37-0.27,0.67-0.52,0.99-0.85c0.26-0.25,0.46-0.48,0.64-0.77
			c0.45-0.71,0.41-1,0.25-1.8c-0.05-0.24-0.09-0.44-0.09-0.44s-0.01,0.19-0.03,0.42c-0.05,0.58-0.04,0.88-0.37,1.38l-0.1,0.14
			c-0.14,0.19-0.27,0.34-0.43,0.5c-0.51,0.51-0.98,0.9-1.59,1.28c-0.11,0.07-0.21,0.13-0.31,0.19c-0.48-0.99-1.41-1.72-2.53-1.93
			c0.06-0.46,0.15-0.92,0.27-1.42c0.12-0.47,0.26-0.85,0.47-1.29c0.11-0.23,0.23-0.42,0.39-0.63c0.12-0.17,0.26-0.3,0.44-0.41
			l0.81-0.49c0,0-0.11,0.03-0.31,0.08c-0.55,0.13-0.8,0.13-1.22,0.54c-0.1,0.1-0.2,0.21-0.29,0.34c-0.29,0.43-0.49,0.83-0.64,1.33
			c-0.11,0.36-0.19,0.66-0.27,1.03c0-0.61,0-1.13-0.02-1.74l-0.04-0.76l-0.03-0.34l-0.02-0.15l-0.05-0.11l-0.1-0.03l-0.05,0.02
			l-0.03,0.03l-0.03,0.07l-0.03,0.14c-0.04,0.3-0.05,0.55-0.06,0.86c-0.02,0.66-0.04,1.22-0.04,1.89c-0.1-0.45-0.21-0.82-0.37-1.25
			c-0.12-0.33-0.26-0.61-0.45-0.89c-0.47-0.7-0.75-0.78-1.54-0.95c-0.24-0.05-0.43-0.1-0.43-0.1s0.17,0.09,0.37,0.2
			c0.51,0.28,0.79,0.39,1.11,0.89l0.09,0.16c0.12,0.2,0.2,0.37,0.29,0.59c0.27,0.67,0.42,1.26,0.53,1.98
			c0.02,0.14,0.04,0.27,0.06,0.4C21.12,26.04,20.14,26.8,19.65,27.84 M32.73,34.01l0.02,0.05c0.1,0.22,0.19,0.43,0.28,0.67
			c0.25,0.61,0.32,1.11,0.1,1.71c-0.08,0.23-0.17,0.42-0.29,0.63c-0.24,0.41-0.47,0.73-0.78,1.08c-1.19,1.32-2.43,2.24-4.04,2.99
			c-0.39,0.18-0.73,0.31-1.14,0.43c-0.37,0.11-0.7,0.16-1.09,0.16c-0.57,0-1.05-0.16-1.5-0.51l-1.08-0.83
			c-0.47-0.37-1.14-0.3-1.53,0.14c-0.29,0.36-0.59,0.61-0.98,0.86c-1.08,0.62-2.73-0.05-3.68-0.57c-1.54-0.82-2.71-1.76-3.85-3.08
			c-0.27-0.33-0.48-0.63-0.68-1.01c-0.19-0.32-0.28-0.63-0.3-1l0.01-0.5c-0.01-0.25,0.03-0.48,0.14-0.71
			c0.2-0.32,0.37-0.58,0.58-0.9c0.33-0.5,0.18-1.18-0.32-1.51l-0.14-0.08c-0.34-0.16-0.62-0.31-0.92-0.52
			c-0.56-0.36-0.94-0.83-1.16-1.45c-0.09-0.31-0.12-0.59-0.12-0.91c0.03-1.81,0.53-3.91,1.32-5.61c0.52-1.11,1.55-2.65,2.94-2.63
			c0.1,0,0.19,0.01,0.29,0.04l1.2,0.33c0.46,0.13,0.93-0.14,1.06-0.6l0.02-0.08c0.09-0.52,0.37-2.06,0.44-2.2
			c0.24-0.51,0.87-0.88,1.33-1.06c0.47-0.18,0.89-0.3,1.39-0.37c0.86-0.14,1.6-0.19,2.47-0.17h0.02c1.05-0.03,1.95,0.05,2.97,0.28
			c0.43,0.1,0.79,0.22,1.19,0.41c0.45,0.19,0.78,0.49,1.02,0.92c0.07,0.18,0.11,0.34,0.14,0.53l0.26,1.6
			c0.08,0.5,0.55,0.84,1.04,0.76l0.09-0.02l1.2-0.31c0.09-0.02,0.18-0.04,0.27-0.04c0.42,0,0.77,0.11,1.13,0.34
			c0.34,0.22,0.6,0.46,0.86,0.77c0.51,0.65,0.87,1.27,1.18,2.04c0.64,1.58,1.07,3.4,1.09,5.09c0.01,0.35-0.02,0.65-0.07,1
			c-0.11,0.53-0.36,0.94-0.79,1.27c-0.19,0.15-0.37,0.26-0.58,0.37l-0.69,0.35c-0.51,0.26-0.73,0.89-0.49,1.41
			C32.6,33.71,32.66,33.86,32.73,34.01"/>
		<path class="st4" d="M135.78,139.82l-0.08,0.08l-0.83,1.98l-0.87-1.91l-0.02-0.04c0.1-0.1,0.19-0.21,0.29-0.32
			c0.29-0.32,0.77-0.36,1.11-0.1L135.78,139.82z M145.91,131.11l0.02,0.03l1.48,1.49l-2.04,0.06c-0.05-0.12-0.11-0.25-0.18-0.39
			c-0.17-0.37-0.02-0.81,0.35-0.99L145.91,131.11z M127.82,119.68l0.02-0.12l-0.53-2.04l1.89,1.02l0.09,0.02
			c-0.05,0.24-0.1,0.52-0.16,0.86l-0.01,0.05c-0.08,0.29-0.38,0.46-0.67,0.38L127.82,119.68z M140.83,118.55l0.14-0.01l1.89-1.02
			l-0.53,2.04l0.01,0.11c-0.18,0.05-0.39,0.1-0.64,0.18l-0.06,0.01c-0.33,0.05-0.63-0.17-0.68-0.49L140.83,118.55z M124.82,132.61
			l-0.04-0.01l-2.15-0.07l1.47-1.5l0.05-0.11c0.16,0.1,0.33,0.18,0.52,0.27l0.09,0.05c0.36,0.23,0.47,0.71,0.23,1.08L124.82,132.61z
			"/>
		<path class="st4" d="M143.27,130.76L143.27,130.76L143.27,130.76z M142.81,131.64L142.81,131.64L142.81,131.64z M135.22,125
			c1.77,0,3.21,1.44,3.21,3.21c0,1.77-1.43,3.21-3.21,3.21c-1.77,0-3.21-1.43-3.21-3.21C132.01,126.44,133.45,125,135.22,125
			 M137.77,130.64l0.2-0.23c1.56,1.43,3.07,2.18,3.97,1.87l-0.01,0.01C141.1,132.88,139.48,132.17,137.77,130.64 M137.56,130.85
			l0.18-0.18c0.23,0.25,0.47,0.53,0.72,0.83c1.02,1.2,1.8,2.22,1.74,2.26c-0.06,0.05-0.93-0.88-1.95-2.09
			C138,131.39,137.77,131.11,137.56,130.85 M137.27,131.08l0.23-0.18c1.22,1.92,1.65,3.63,0.94,4.35l-0.01,0.01
			C138.87,134.42,138.4,132.84,137.27,131.08 M132.96,130.92c-1.7,1.51-3.31,2.21-4.14,1.63l-0.01-0.01
			c0.89,0.3,2.38-0.42,3.92-1.82L132.96,130.92 M133.21,131.11c-0.21,0.26-0.44,0.55-0.69,0.84c-1.01,1.2-1.89,2.13-1.95,2.08
			c-0.05-0.05,0.72-1.06,1.74-2.26c0.24-0.29,0.48-0.56,0.7-0.81L133.21,131.11 M133.52,131.31c-1.15,1.77-1.64,3.37-1.19,4.22
			l0-0.01c-0.71-0.73-0.29-2.43,0.94-4.36L133.52,131.31 M135.46,124.7c0.32-2.24,1.09-3.79,2.09-3.89l0.01,0
			c-0.87,0.35-1.54,1.86-1.81,3.92C135.65,124.71,135.56,124.7,135.46,124.7 M135.12,124.69c-0.01-0.32-0.01-0.67-0.01-1.03
			c0-1.57,0.06-2.85,0.14-2.85c0.08,0,0.14,1.28,0.14,2.85c0,0.36,0,0.71-0.01,1.03l-0.16,0H135.12z M134.77,124.71
			c-0.27-2.06-0.93-3.55-1.81-3.91l0.01,0c1.01,0.09,1.78,1.65,2.1,3.88C134.96,124.7,134.87,124.7,134.77,124.71 M138.65,127.42
			c2.2-0.63,3.96-0.55,4.46,0.34l0.01,0.01c-0.68-0.67-2.36-0.66-4.41-0.05C138.69,127.62,138.67,127.52,138.65,127.42
			 M138.56,127.11c0.3-0.13,0.62-0.28,0.95-0.43c1.44-0.63,2.64-1.09,2.67-1.02c0.03,0.06-1.11,0.64-2.55,1.27
			c-0.35,0.15-0.69,0.3-0.99,0.42L138.56,127.11 M138.44,126.78c1.75-1.08,2.85-2.28,2.82-3.22l0,0.01
			c0.32,0.96-0.79,2.29-2.71,3.49C138.51,126.96,138.47,126.87,138.44,126.78 M131.87,127.1c-1.97-1.2-3.12-2.56-2.79-3.53
			l0.01-0.01c-0.03,0.95,1.09,2.17,2.9,3.26C131.94,126.91,131.9,127,131.87,127.1 M131.79,127.39c-0.33-0.14-0.69-0.29-1.07-0.46
			c-1.44-0.64-2.58-1.21-2.55-1.27c0.03-0.07,1.22,0.38,2.66,1.02c0.37,0.16,0.72,0.32,1.03,0.47L131.79,127.39 M131.72,127.74
			c-2.08-0.63-3.8-0.65-4.49,0.03l0-0.01c0.51-0.9,2.3-0.97,4.54-0.32C131.75,127.54,131.74,127.64,131.72,127.74"/>
		<path class="st5" d="M126.16,130.58c-0.27,0-0.62-0.05-1.01-0.2c-1.61-0.6-0.81-2.02-0.73-2.23c0.08-0.21,0.61-1.24,0.77-1.46
			c0.16-0.22,0.52-1.03,0.62-1.31c0.1-0.28,0.4-1.88,0.42-2.16c0.02-0.27,0.16-1.07,0.24-1.28c0.08-0.22,0.54-1.58,2.15-0.98
			c0.59,0.22,0.99,0.49,1.26,0.73c-0.2-0.29-0.67-0.79-1.6-1.13c-1.61-0.59-2.09,0.84-2.18,1.06c-0.08,0.22-0.24,1.06-0.26,1.34
			c-0.03,0.28-0.36,1.97-0.46,2.26c-0.11,0.29-0.48,1.15-0.64,1.38c-0.16,0.23-0.72,1.31-0.8,1.53c-0.08,0.22-0.91,1.73,0.7,2.32
			C125.32,130.71,125.83,130.67,126.16,130.58 M141,121.29c0.23-0.16,0.53-0.31,0.95-0.42c1.66-0.44,1.82,1.18,1.88,1.4
			c0.06,0.22,0.21,1.36,0.21,1.63c-0.01,0.27,0.17,1.14,0.25,1.43c0.08,0.28,0.76,1.77,0.9,2c0.14,0.23,0.49,0.97,0.54,1.18
			c0.06,0.22,0.47,1.6-1.19,2.04c-0.61,0.16-1.1,0.17-1.46,0.13c0.33,0.11,1,0.26,1.96,0.01c1.66-0.44,1.24-1.9,1.17-2.13
			c-0.06-0.23-0.42-1-0.55-1.24c-0.15-0.25-0.84-1.81-0.93-2.11c-0.08-0.31-0.27-1.21-0.27-1.5c0-0.29-0.17-1.49-0.23-1.72
			c-0.07-0.23-0.25-1.94-1.91-1.49C141.6,120.69,141.21,121.01,141,121.29 M130.22,120.64c-0.09-0.26-0.16-0.6-0.16-1.02
			c0-1.72,1.61-1.46,1.84-1.46c0.22,0,1.37,0.15,1.63,0.22c0.26,0.07,1.15,0.13,1.44,0.13c0.3,0,1.91-0.28,2.17-0.35
			c0.26-0.07,1.06-0.22,1.29-0.22c0.22,0,1.66-0.04,1.66,1.68c0,0.63-0.12,1.1-0.25,1.44c0.2-0.29,0.51-0.91,0.51-1.9
			c0-1.71-1.51-1.68-1.75-1.68c-0.24,0-1.07,0.15-1.35,0.22c-0.27,0.07-1.97,0.35-2.28,0.35c-0.31,0-1.24-0.06-1.52-0.13
			c-0.27-0.08-1.48-0.22-1.71-0.22c-0.24,0-1.93-0.25-1.93,1.46C129.81,119.89,130.02,120.35,130.22,120.64 M126.62,131.99
			c-0.33,0.11-0.77,0.37-1.19,0.97c-0.98,1.41,0.56,2.17,0.75,2.3c0.19,0.13,1.27,0.7,1.53,0.8c0.27,0.1,1.06,0.58,1.32,0.76
			c0.25,0.18,1.49,1.37,1.68,1.59c0.18,0.21,0.79,0.82,0.98,0.95c0.19,0.14,1.42,1.03,2.4-0.38c0.56-0.81,0.66-1.49,0.66-1.84
			c-0.08,0.36-0.26,0.81-0.62,1.33c-0.98,1.41-2.14,0.55-2.33,0.42c-0.18-0.13-0.75-0.7-0.93-0.91c-0.17-0.21-1.35-1.36-1.59-1.52
			c-0.24-0.17-1-0.63-1.26-0.72c-0.25-0.09-1.28-0.63-1.46-0.75c-0.19-0.13-1.66-0.84-0.68-2.25
			C126.15,132.39,126.4,132.15,126.62,131.99 M143.58,132.03c0.23,0.16,0.48,0.4,0.72,0.75c0.99,1.41-0.49,2.12-0.68,2.25
			c-0.18,0.13-1.21,0.66-1.46,0.75c-0.25,0.09-1.01,0.55-1.25,0.72c-0.24,0.17-1.41,1.31-1.58,1.52c-0.17,0.21-0.74,0.78-0.93,0.91
			c-0.19,0.13-1.35,0.98-2.33-0.43c-0.36-0.51-0.53-0.97-0.62-1.32c0.01,0.35,0.1,1.03,0.67,1.84c0.98,1.41,2.2,0.51,2.39,0.38
			c0.2-0.14,0.8-0.74,0.98-0.95c0.18-0.22,1.42-1.41,1.68-1.59c0.25-0.18,1.05-0.66,1.32-0.76c0.26-0.09,1.34-0.66,1.53-0.8
			c0.19-0.14,1.73-0.9,0.75-2.31C144.35,132.41,143.91,132.14,143.58,132.03 M132.02,126.71c-0.12-0.07-0.24-0.15-0.37-0.23
			c-0.61-0.38-1.09-0.77-1.59-1.28c-0.16-0.17-0.29-0.32-0.43-0.5l-0.11-0.14c-0.33-0.5-0.32-0.8-0.37-1.38
			c-0.02-0.23-0.03-0.42-0.03-0.42s-0.04,0.19-0.09,0.43c-0.16,0.79-0.21,1.09,0.25,1.8c0.18,0.29,0.38,0.53,0.63,0.77
			c0.33,0.32,0.63,0.57,0.99,0.85c-0.61-0.27-1.12-0.49-1.74-0.73c-0.28-0.11-0.52-0.21-0.81-0.29l-0.14-0.03h-0.07l-0.04,0.02
			l-0.03,0.03l-0.01,0.11l0.08,0.09l0.13,0.08l0.3,0.16l0.68,0.34c0.55,0.27,1.02,0.48,1.58,0.72c-0.37-0.07-0.68-0.12-1.05-0.16
			c-0.52-0.06-0.96-0.05-1.48,0.05c-0.16,0.03-0.29,0.07-0.43,0.13c-0.54,0.22-0.64,0.45-0.98,0.9c-0.13,0.16-0.2,0.26-0.2,0.26
			l0.77-0.54c0.16-0.12,0.34-0.2,0.55-0.24c0.25-0.07,0.47-0.09,0.73-0.1c0.48-0.01,0.89,0.01,1.37,0.1c0.57,0.1,1.09,0.22,1.6,0.37
			c-0.02,0.12-0.02,0.24-0.02,0.36c0,0.94,0.37,1.8,0.98,2.43c-0.1,0.08-0.2,0.18-0.31,0.27c-0.54,0.48-1.05,0.83-1.68,1.17
			c-0.21,0.1-0.39,0.18-0.6,0.26l-0.17,0.06c-0.57,0.18-0.86,0.08-1.43-0.04c-0.23-0.05-0.42-0.09-0.42-0.09s0.18,0.09,0.4,0.2
			c0.71,0.38,0.98,0.5,1.79,0.28c0.32-0.1,0.61-0.22,0.92-0.39c0.4-0.22,0.72-0.43,1.09-0.71c-0.43,0.5-0.78,0.94-1.19,1.46
			c-0.19,0.23-0.35,0.44-0.51,0.7l-0.07,0.12l-0.02,0.08l0,0.04l0.03,0.04l0.1,0.04l0.11-0.05l0.11-0.09l0.24-0.24l0.52-0.56
			c0.41-0.46,0.75-0.85,1.14-1.32c-0.18,0.33-0.31,0.62-0.46,0.96c-0.2,0.48-0.32,0.91-0.37,1.43c-0.02,0.16-0.02,0.3,0,0.44
			c0.06,0.58,0.26,0.75,0.58,1.2c0.12,0.17,0.19,0.26,0.19,0.26l-0.3-0.89c-0.07-0.19-0.09-0.38-0.07-0.59
			c0.01-0.26,0.04-0.48,0.11-0.73c0.13-0.46,0.27-0.85,0.48-1.28c0.24-0.48,0.48-0.91,0.75-1.32c0.48,0.25,1.02,0.39,1.6,0.39
			c0.73,0,1.4-0.22,1.97-0.6c0.25,0.4,0.48,0.81,0.71,1.27c0.22,0.44,0.36,0.82,0.48,1.28c0.07,0.25,0.09,0.47,0.11,0.73
			c0.01,0.21-0.01,0.4-0.08,0.6l-0.3,0.89c0,0,0.07-0.09,0.18-0.25c0.33-0.46,0.53-0.62,0.59-1.2c0.01-0.14,0.01-0.29,0-0.44
			c-0.06-0.52-0.17-0.95-0.37-1.43c-0.15-0.34-0.28-0.63-0.46-0.96c0.39,0.47,0.73,0.86,1.14,1.32l0.52,0.56l0.25,0.24l0.11,0.09
			l0.12,0.06l0.1-0.04l0.02-0.05l0-0.04l-0.02-0.07l-0.07-0.13c-0.17-0.25-0.32-0.46-0.51-0.7c-0.41-0.52-0.77-0.96-1.19-1.46
			c0.36,0.27,0.69,0.48,1.09,0.71c0.31,0.18,0.6,0.29,0.93,0.39c0.81,0.23,1.07,0.11,1.79-0.28c0.22-0.11,0.39-0.2,0.39-0.2
			s-0.19,0.04-0.41,0.09c-0.57,0.12-0.85,0.22-1.43,0.04l-0.17-0.06c-0.22-0.08-0.4-0.16-0.6-0.26c-0.64-0.34-1.14-0.69-1.68-1.17
			c-0.14-0.12-0.26-0.23-0.37-0.34c0.45-0.58,0.71-1.31,0.71-2.11c0-0.13-0.01-0.26-0.02-0.39c0.49-0.15,0.98-0.26,1.52-0.35
			c0.47-0.08,0.88-0.11,1.37-0.1c0.25,0.01,0.47,0.04,0.73,0.1c0.21,0.05,0.38,0.12,0.55,0.24l0.77,0.54c0,0-0.07-0.09-0.2-0.26
			c-0.35-0.45-0.44-0.68-0.98-0.9c-0.14-0.06-0.27-0.1-0.42-0.13c-0.51-0.09-0.96-0.11-1.48-0.05c-0.37,0.04-0.69,0.09-1.05,0.16
			c0.56-0.24,1.03-0.46,1.58-0.72l0.68-0.34l0.3-0.16l0.13-0.08l0.08-0.09l-0.01-0.11l-0.04-0.03l-0.04-0.02h-0.08l-0.14,0.03
			c-0.29,0.09-0.53,0.18-0.81,0.29c-0.62,0.25-1.13,0.47-1.74,0.73c0.36-0.28,0.66-0.52,0.99-0.85c0.25-0.25,0.45-0.49,0.63-0.77
			c0.46-0.71,0.41-1,0.25-1.8c-0.05-0.25-0.09-0.43-0.09-0.43s-0.01,0.19-0.03,0.42c-0.04,0.58-0.03,0.88-0.36,1.38l-0.11,0.14
			c-0.14,0.19-0.26,0.34-0.43,0.5c-0.5,0.51-0.98,0.9-1.59,1.28c-0.11,0.07-0.21,0.13-0.31,0.19c-0.48-0.99-1.41-1.72-2.53-1.93
			c0.06-0.47,0.15-0.92,0.28-1.42c0.11-0.47,0.25-0.86,0.46-1.29c0.11-0.23,0.23-0.42,0.39-0.62c0.12-0.17,0.27-0.3,0.44-0.41
			l0.8-0.49c0,0-0.11,0.03-0.31,0.08c-0.55,0.14-0.8,0.13-1.23,0.53c-0.1,0.1-0.2,0.21-0.28,0.34c-0.29,0.43-0.49,0.84-0.64,1.33
			c-0.11,0.36-0.19,0.67-0.27,1.03c0-0.61-0.01-1.13-0.02-1.74l-0.03-0.76l-0.03-0.35l-0.02-0.14l-0.06-0.12l-0.1-0.03l-0.05,0.02
			l-0.03,0.03l-0.03,0.07l-0.03,0.14c-0.03,0.3-0.05,0.55-0.06,0.86c-0.02,0.66-0.03,1.23-0.03,1.89c-0.1-0.45-0.22-0.82-0.38-1.25
			c-0.12-0.33-0.26-0.61-0.45-0.9c-0.47-0.7-0.75-0.78-1.54-0.95c-0.24-0.05-0.44-0.09-0.44-0.09s0.17,0.09,0.37,0.2
			c0.51,0.27,0.8,0.39,1.12,0.89l0.09,0.16c0.12,0.2,0.21,0.38,0.29,0.59c0.27,0.67,0.43,1.26,0.53,1.98
			c0.02,0.15,0.04,0.27,0.06,0.4C133.49,124.92,132.51,125.68,132.02,126.71 M145.1,132.89l0.02,0.05c0.1,0.21,0.19,0.44,0.29,0.67
			c0.25,0.61,0.32,1.11,0.09,1.71c-0.08,0.23-0.17,0.42-0.29,0.64c-0.24,0.41-0.47,0.73-0.79,1.08c-1.19,1.32-2.43,2.24-4.04,2.99
			c-0.39,0.18-0.73,0.31-1.15,0.42c-0.37,0.1-0.7,0.16-1.09,0.16c-0.57,0.01-1.06-0.16-1.5-0.51l-1.08-0.83
			c-0.47-0.36-1.13-0.31-1.53,0.14c-0.29,0.35-0.59,0.61-0.98,0.86c-1.08,0.62-2.73-0.05-3.68-0.57c-1.54-0.82-2.71-1.76-3.85-3.08
			c-0.28-0.33-0.49-0.63-0.69-1.01c-0.18-0.32-0.28-0.63-0.3-1l0.01-0.5c-0.01-0.26,0.03-0.48,0.14-0.71
			c0.2-0.32,0.37-0.58,0.58-0.9c0.32-0.51,0.18-1.19-0.33-1.51l-0.13-0.08c-0.34-0.16-0.62-0.31-0.92-0.52
			c-0.56-0.35-0.94-0.82-1.16-1.45c-0.09-0.31-0.12-0.58-0.12-0.91c0.03-1.81,0.53-3.91,1.32-5.6c0.52-1.11,1.55-2.65,2.93-2.63
			c0.1,0.01,0.19,0.02,0.29,0.04l1.2,0.33c0.46,0.12,0.94-0.14,1.06-0.6l0.02-0.08c0.1-0.52,0.37-2.06,0.44-2.2
			c0.24-0.51,0.88-0.88,1.33-1.06c0.47-0.18,0.89-0.3,1.39-0.38c0.86-0.14,1.6-0.19,2.47-0.17h0.01c1.05-0.04,1.95,0.05,2.97,0.28
			c0.43,0.09,0.79,0.22,1.19,0.41c0.45,0.19,0.78,0.49,1.02,0.92c0.07,0.18,0.11,0.34,0.14,0.53l0.26,1.6
			c0.08,0.49,0.55,0.83,1.04,0.75l0.09-0.02l1.2-0.32c0.09-0.02,0.18-0.03,0.27-0.04c0.42,0.01,0.78,0.11,1.13,0.34
			c0.34,0.22,0.6,0.45,0.86,0.77c0.51,0.65,0.87,1.26,1.18,2.04c0.63,1.59,1.07,3.4,1.09,5.09c0.01,0.35-0.02,0.65-0.07,1
			c-0.1,0.53-0.36,0.95-0.79,1.28c-0.19,0.15-0.37,0.26-0.58,0.37l-0.69,0.35c-0.52,0.27-0.74,0.89-0.5,1.42
			C144.97,132.59,145.03,132.74,145.1,132.89"/>
		<path class="st6" d="M42.92,142.48c-0.05,0.21,0.15,0.18,0.27,0.41c-0.78,0.06-1.89-0.23-2.84,0c-0.13,0.19,0.07,0.3,0.22,0.35
			c-1.01,0.08-2.59,0.39-3.28-0.58c-0.65-0.8,0.85-2.53-0.51-2.63c-0.39-0.52-1.38-1.04-1.85-0.86c0.24,0.35,0.63,0.61,0.75,1.51
			c-0.55,1.38,0.44,1.59,0.61,2.63c-0.42,0.2-1.16-0.24-1.39-0.61c-0.46-0.8-1.14-1.27-1.75-0.28c-0.8,0.04-1.55,0.88-1.36,1.75
			c0.3-0.13,0.71-0.28,1.19-0.35c0.15,0.24,0.02,0.52,0.42,0.52c0.22-0.17,0.65-0.33,0.79-0.11c0.37,0.56,1,0.64,1.46,0.5
			c-0.3,0.86-2.14,0.6-1.89,1.46c-0.37,0.63-0.65,1.71,0,2.24c0.03-0.06,0.18-0.71,0.85-1.13c0.34,0.24,0.68-0.06,1.04-0.56
			c0.29-0.33,0.37-0.78,1.05-1c0.37,0.56,1.1,0.67,1.52,1.02c0.05,0.56,0.05,1.11,0.49,1.28c0.41,0.19,0.34-0.17,0.78-0.03
			c0.19,0.63,0.31,0.98,0.27,1.49c0.6,0.02,1.11-1.38,0.82-2.18c0.43-0.75-1.04-0.91-1.16-1.66c0.32-0.5,0.71-0.41,1.33-0.15
			c0.39,0.61,1.46-0.36,1.72-0.41c0.1,0.39-0.43,0.56-0.33,0.97c0.73,0.16,1.48-0.15,1.99-0.47c-0.15,0.19-0.25,0.35-0.42,0.58
			c0.58,0.22,1.33-0.35,1.8-0.75c0.08,0.22-0.17,0.3-0.07,0.6c0.78-0.3,1.41-0.93,1.84-1.84c0.48,0.11,0.27,0.73,0.58,1.01
			c0.37,0,0.1-0.56,0.32-0.56c0.63,0.52,1.29,1.02,2.08,1.1c0.17-0.13,0.27-0.3,0.27-0.3c-0.27-0.11-0.53-0.19-0.65-0.56
			c0.78,0.17,1.33,0.95,2.23,0.91c0.19-0.3-0.19-0.3-0.19-0.64c0.68,0,1.17,1.45,2.01,1.05c0-0.17-0.25-0.54-0.04-0.71
			c0.37,0.91,1.78,1.08,1.7,2.25c-2.92-0.58-6.43-1.29-9.1,0.46c-0.64,0.24-1.1,0.19-1.61,0.26c0.19,0.31,0.56,0.56,0.97,0.78
			c-0.34,0.94-1.6,0.76-2.38,0.99c0.08,0.69,1.24,0.34,1.45,0.8c-0.25,1.19-0.15,3.28-1.21,3.45c-1.04,0.28-2.47,0.91-3.35,0.2
			c-0.61-0.5,0.73-2.34-1.22-1.9c-1.48-0.44-1.94-0.11-2.4,0.52c0.46,0.09,0.58,0.06,1.19,0.24c0.15,0.34-0.34,0.52,0.03,0.8
			c0.75,0.41,1.43,0.45,1.79,1.15c-1.66,1.01-3.2-2.09-3.57-0.17c-0.99,0.23-1.36,1.01-1.37,2.05c0.37-0.2,1-0.59,1.56-0.37
			c0.06,0.45,0.13,0.78,0.71,0.72c0.73-0.41,1.41-0.48,2.25-0.28c0.07,0.45-0.15,1.08-0.48,1.14c-0.41,0.11-0.66,0.91-0.15,1.3
			c-0.13,0.69-0.1,1.51,0.63,2.03c0.36,0.33,0.22-0.13,0.42-0.13c-0.2-0.05-0.2-0.39-0.2-0.56c0.2-0.3,0.2-0.88,0.63-0.88
			c0.41,0.06,0.67-0.11,0.71-0.44c0-0.58-0.3-1.1-0.05-1.43c0.3,0.11,0.8-0.17,0.9,0.3c-0.22,0.39-0.1,0.85,0.12,1.14
			c0.41,0.28,0.71-0.17,0.82,0.16c0.48,0.53,0.37,1.16,0.12,1.55c0.41,0.17,0.83-0.2,0.99-0.58c0.31-0.74,0.51-1.82,0.15-2.23
			c-0.63-0.33-1-0.78-1.26-1.59c2.86-2.44,4.62-0.31,4.91,0.21c0.41-1.32,0.32-2.18,0.73-2.52c0.37-0.06,0.49,0.34,0.78,0.34
			c0.12-1.19,0.65-2.33,1.64-2.87c0.2,0.19,0,0.54,0.15,0.86c0.46-0.72,1.34-1.3,2.38-1.6c0,0.3-0.31,0.98,0.15,1.04
			c0.43-0.61,1.39-0.95,2.18-1.12c-0.1,3.07,1.04,3.63,0.64,4.1c-0.29,0.67-1.04,1.33-1.26,1.44c0.12,0.35,0.63,0.39,1,0.28
			c0.31-0.15,0.48-0.39,0.78-0.2c-0.03,0.51,0.21,0.95,0.48,1.23c0.34,0.19,0.95,0.69,1.1,0.19c-0.37-0.19-0.37-1.05-0.22-1.42
			c0.48,0.67,1.87,0.52,2.01,1.51c0.04,0.58-0.61,2.82-1.1,3.2c-0.66-0.5-1.02-1.56-1.46-1.28c-0.8-0.58-1.72-0.27-1.8,0.2
			c-0.07,0.02,0.77,0.67,1,0.84c-0.2,0.22-0.27,0.61,0.12,0.72c0.51,0.12,1.03,0.04,1.41,0.34c-0.49,0.63-2.52-0.54-2.23,0.76
			c-0.49,0.43-1.14,0.78-0.92,1.88c0.25-0.28,0.73-0.86,1.24-0.63c0.27,0.24,0.22,0.8,0.58,0.69c0.73,0,0.6-1.15,1.16-1.03
			c0.73,0.28,0.85-0.44,1.48-0.52c0.34,0.56-0.7,0.86-0.53,1.66c0.83,0.41,0.26,1.79,1.09,2.05c0.1,0,0.22-0.04,0.37-0.07
			c-0.49-0.38,0-1.29,0.19-1.73c0.27-0.41,0.95-0.69,0.64-1.34c-0.15-0.28-0.53-0.48-0.27-0.91c0.27-0.39,0.58-0.56,1-0.39
			c0.68,0.17,0.19,1.02,0.68,1.3c0.27,0.08,0.53-0.17,0.63,0.2c0.17,0.34,0.29,0.73,0.46,1.03c0.59-0.69,0.61-1.56,0.46-2.11
			c0.1-0.33,0.13-0.73-0.36-0.95c-0.56-0.11-1.04-0.23-1.14-0.86c-0.32-1.04-0.27-2.18,0.17-3.04c0.19,0.28,0.31,0.85,0.31,1.25
			c0.99-0.28,0.22-2.61,0.41-2.78c0.41-0.5-0.44-2.12-0.99-2.65c0.17-0.35,0.32,0.22,0.58,0c-0.05-0.8-0.94-0.99-1.02-1.73
			c0.19,0,0.5,0.39,0.62,0c-0.41-0.51-0.85-1.15-1.23-2.01c0.27,0,0.48,0.57,0.8,0.24c0.07-0.84-0.42-1.62-0.7-2.41
			c0.17,0.22,0.37,0.39,0.7,0.56c0.26-0.41-0.37-0.96-0.53-1.41c1.77,1.08,2.06,4.57,4.8,4.64c2.94-0.12,2.94-0.93,3.99-0.24
			c0.05,0.3,0.05,0.58,0.27,0.58c0.41-0.36,0.29-1.03,0.25-1.44c-0.12-0.35-0.63-0.39-0.4-0.69c1.71-4.42-2.49-8.74,0.39-11.98
			c0.72-0.83,1.36-1.21,1.51-2.56c-0.34,0.08-0.44,0.56-0.94,0.69c0.78-1.44,1.68-3.67,0.95-5.52c-0.26-0.67-1.21-0.83-1.77-0.63
			c-0.54,0.24-0.87,0.78-0.7,1.34c0.36,0.36,0.58-0.41,0.95-0.11c0.63,1.02,0.16,2.18-0.25,3.15c-1.19,2.01-3.89,5.18-1.9,10.88
			c-0.51,0.13-0.99,0.33-1.14,0.8c0.61,0.22,1.43,0.44,1.66,1.23c0.58,1.99-1.72,3.67-3.35,2.87c-0.75-0.37-2.95-4.08-3.91-4.98
			c-0.95-0.91-2.42-1.94-5.36-3.82c1.62,0,3.45-0.13,4.86-1.08c-0.27-0.21-1.17-0.06-1.75-0.24c1.41-0.31,3.84-0.39,5.01-1.58
			c-1.27-0.22-2.67-0.06-3.92-0.65c1.36-0.26,5.75-0.64,6.68-2.8c-1.72,0.28-3.5,0.56-5.28,0.34c2.25-0.8,4.59-2.11,6.02-4.06
			c0.03-0.19,0-0.36,0.1-0.45l-3.32,0.73c0.78-0.6,6.84-5.57,6.55-7.05c-1.19,0.32-2.28,1.3-3.93,1.75c2.13-2.23,4.27-4.58,5.5-7.73
			c0.07-0.34,0.39-0.58,0.12-0.62c-1.24,1.31-2.52,2.27-4.14,3.89c0.48-1.15,1.26-2.07,1.84-3.32c0.83-1.04,1.14-2.7,1.14-3.86
			c-0.41,0.17-0.41,0.71-0.87,1.1c-2.01,2.29-4.45,4.06-6.89,5.5c0.75-0.91,1.49-1.98,1.85-3.28c-1.24,1.08-1.6,1.82-3.87,3.97
			c1.38-2.09,3.64-5.01,4.22-7.49c-2.16,2.1-4.27,4.91-7.04,7.41c0.63-0.88,1.16-2.18,1.46-3.41c-2.79,3.73-5.98,3.87-8.57,6.97
			c-0.05-0.55-0.25-1.36-0.7-1.99c0.88-0.19,2.52-1.06,1.89-1.55c0.59-0.41,1.49-1.49,1.19-1.9c0.56-0.74,1.38-2.18,1.33-2.63
			c-0.1-0.54-2.23,0.3-3.1,0.8c0.1-0.39,0.43-1.04,0.48-1.49c-0.43-0.8-5.14,1.99-5.26,3.43c-1.68-0.36-4.88-0.5-4.45,0.52
			c-0.54,0.19-1.54,0.36-1.89,1.05c-0.22,0.56-0.05,1.67,0.78,1.95c0.07-0.29,0-0.82,0.34-0.85c1.24,0.16,1.62,1.64,2.65,2.22
			c-0.78,0.35-1.99,0.54-2.52-0.15c-0.19,0.56-0.05,0.93,0.27,1.25c0.48,0.46,1.09,0.5,1.52,0.74c-0.43,0.34-0.95,0.62-1.21,1.27
			c0.15,0.21,0.37,0.21,0.41,0.17c-0.29,0.9-1.56,0.58-2.12,1.31c0.1,0.24,0.29,0.24,0.46,0.37c-0.58,0.49-1.36,1.06-1.47,2.03
			c0.1,0.13,0.26,0.13,0.26,0.13c0.07,0.4-0.36,0.16-0.56,0.16c-0.47-0.52-0.37-1.41-0.68-2.01c-0.16,0.24-0.21,0.6-0.41,0.86
			c-0.56-0.07,0.03-1.53-0.44-1.68c-0.25-0.08-0.31,0.5-0.58,0.13c-0.83-2.16-1.95-4.66-0.75-6.5c0.56-0.86,1.8-0.3,2.28-1.18
			c0.16-0.63-0.17-0.24-0.01-0.71c0.22-1.02-0.12-1.73-0.55-2.01c-0.19,0,0.24,0.22-0.56,1c-0.98-0.19-0.78,1.27-1.97,1.31
			c0.07-0.45,1-1.58-0.22-1.85c-0.58-0.72-0.8-1-1.65-1.36c-0.37,0-0.83,0.04-0.61,0.32c0.56,0.22,0.85,0.86,1.05,1.4
			c-0.79-0.09-0.92,0.36-0.7,0.86c0.3,0.48,0.66,1.26,0.34,1.68c-1.04-0.28-1.5,0.18-1.67,0.54c-0.54-0.04-2.09,0.03-2.09,0.65
			c0.7,0.08,1.46,0.25,1.94,0.82c0.1,0.39,0.22,0.62,0.78,0.56c0.36-0.17,0.58-0.45,1.1-0.45c-1.1,0.62-0.37,2.8-1.66,3.38
			c-0.5,0.47-0.05,1.04-0.22,1.27c-0.32,0.65-1.05,0.11-1.4,0.35c0.35,0.5,1.3,0.74,1.91,0.74c0.37-0.45,1.31-0.45,1.37-1.09
			c0.16-0.92,0.16-1.85,0.78-2.35c0.31,1.32-0.2,2.63,0.16,3.93c-0.23,0.59-1.04,0.2-1.26,0.43c0.22,0.55,0.58,1.1,1.11,1.41
			c-0.35,0.57-1.09-0.05-1.25-0.05c0.15,0.8,0.88,1.16,1.51,1.62c-0.15,0.28-0.51,0.22-0.83,0.17c0.37,1.1,1.29,1.38,2.24,1.89
			c-0.17,0.19-0.51,0.07-0.83,0.19c0.25,0.67,1.1,1.43,2.06,1.49c-0.22,0.24-0.55,0.34-0.9,0.52c1,0.67,2.24,0.91,3.55,1.36
			c0.47,0.24,0.22,0.84,0.53,1.29C42.63,142.09,42.75,142.61,42.92,142.48"/>
		<path class="st7" d="M55.63,164.46c0.23-0.37,0.95,0.01,1.12-0.16c0.03-0.57-0.72-0.46-0.85-0.28
			C55.74,164.22,55.69,164.35,55.63,164.46"/>
		<polyline class="st8" points="49.87,132.63 49.87,132.68 49.89,132.68 49.87,132.63 		"/>
		<path class="st9" d="M39.5,130.32c-0.37,0.3-0.24,1-0.6,1.38c-0.36-0.26-0.41-1.02-0.73-1.47c-0.21,0.56,0.22,1.83-0.41,2.01
			c-0.05-0.41-0.27-0.71-0.43-1.1c-0.37,0.29-0.12,1.02-0.37,1.38c-0.31-0.28-0.56-0.52-1.09-0.47c0,0.74,0.94,0.85,1.01,1.49
			c-0.34,0.3-0.78,0.13-0.9,0.41c0.21,0.58,1.11,0.45,1.36,0.8c-0.19,0.33-0.63,0.44-0.83,0.63c0.36,0.91,1.5,0.78,1.99,1.53
			c-0.15,0.36-0.49,0.36-0.63,0.36c0.1,0.45,0.73,0.98,1.26,1.04c0.12,0,0.25-0.02,0.37-0.04c0.17-0.03,0.3-0.06,0.41,0.04
			c-0.14,0.17-0.24,0.34-0.41,0.5c-0.12,0.11-0.26,0.22-0.44,0.3c0.05,0.08,0.22,0.15,0.44,0.26c0.53,0.23,1.34,0.52,1.87,0.65
			c0.1,0.02,0.18,0.03,0.27,0.03c0.41-0.61-0.27-1.81,0.15-2.79c-0.32,0.17-0.15,0.93-0.42,1.08c-0.05,0.04-0.12,0.04-0.22,0
			c-0.09-1.03-0.02-2.01,0.22-3.11l0.05-0.15l-0.05,0.02c-0.25,0.15-0.24,0.67-0.41,0.95c-0.49-0.51,0.05-1.72,0.27-2.46
			c0.05-0.09,0.1-0.2,0.13-0.28l0.05-0.07h-0.05c-0.5,0-0.75-0.34-0.93-0.95c0-0.24-0.07-0.3-0.07-0.6c-0.13,0.13,0,0.47-0.31,0.64
			c-0.32-0.17-0.49-0.54-0.56-0.97c-0.04-0.26-0.04-0.56,0-0.86l0.05-0.22L39.5,130.32"/>
		<path class="st9" d="M36.71,140.7c-0.08,0.11-0.19,0.24-0.25,0.27c-0.24,0.07-0.54-0.02-0.53,0.09c0.09,0.78,0.63,1.32,0.78,2.09
			l0.05,0.19h0.73c-1.19-1.38-0.14-2.46-0.48-2.76C36.93,140.49,36.83,140.58,36.71,140.7"/>
		<path class="st9" d="M53.55,139.11c-0.24-0.05-0.48-0.13-0.73-0.28c0.05,0.41,0.34,0.73,0.73,0.99c0.37,0.23,0.83,0.39,1.29,0.52
			c0.75,0.17,1.52,0.22,1.97,0.15l0.07-0.02l-0.07-0.06c-0.46-0.6-1.24-0.72-1.97-1.04l-0.1-0.06
			C54.26,139.24,53.9,139.2,53.55,139.11"/>
		<path class="st9" d="M54.74,137.88c-0.09-0.04-0.19-0.08-0.28-0.11c0.07,0.13,0.17,0.24,0.28,0.34c0.37,0.31,0.88,0.52,1.41,0.52
			c0.15,0.3-0.05,0.43-0.31,0.48c0.24,0.04,0.55,0.08,0.87,0.09c0.41,0.02,0.83,0.02,1.22-0.02c0.29-0.03,0.54-0.09,0.75-0.17
			c0.12-0.04,0.21-0.1,0.31-0.15c-0.1-0.04-0.21-0.09-0.31-0.13c-0.24-0.09-0.48-0.18-0.75-0.24c-0.39-0.11-0.8-0.18-1.22-0.24
			C56.05,138.16,55.38,138.07,54.74,137.88"/>
		<path class="st9" d="M57.93,135.55c-0.25,0.2-0.54,0.37-0.9,0.58c0.29,0,0.6,0,0.9-0.02c0.25-0.03,0.51-0.05,0.75-0.09
			c0.17-0.02,0.32-0.04,0.48-0.08c0.15-0.02,0.3-0.05,0.44-0.07c0.7-0.15,1.39-0.36,2.04-0.6c0.27-0.09,0.53-0.19,0.79-0.3
			c-0.26-0.08-0.51-0.13-0.79-0.19c-0.65-0.11-1.35-0.13-2.04-0.03c-0.13,0.02-0.29,0.03-0.44,0.05c-0.16,0.04-0.31,0.08-0.48,0.11
			l-0.19,0.06C58.31,135.23,58.14,135.4,57.93,135.55"/>
		<path class="st9" d="M57.93,134.23c-0.13,0.05-0.27,0.09-0.41,0.11h0.41c0.27,0,0.51-0.02,0.75-0.02
			c0.17-0.02,0.32-0.04,0.48-0.06c0.15-0.02,0.3-0.02,0.44-0.06c0.7-0.09,1.35-0.24,2.04-0.48c0.39-0.11,0.79-0.26,1.21-0.43
			c-0.34-0.04-0.76-0.15-1.21-0.24c-0.72-0.18-1.53-0.31-2.02-0.03v-0.01l-0.01,0.01l-0.01,0v0.01c-0.13,0.19-0.28,0.37-0.44,0.51
			c-0.14,0.13-0.31,0.24-0.48,0.33C58.46,134.04,58.2,134.15,57.93,134.23"/>
		<path class="st9" d="M56.71,139.56h-0.09l0.09,0.13c0.32,0.31,0.76,0.39,1.22,0.46c0.25,0.04,0.51,0.07,0.75,0.13
			c0.1,0.02,0.21,0.06,0.31,0.08l0.17-0.02c0.15,0,0.3-0.02,0.44-0.04c0.66-0.06,1.36-0.09,2.04-0.2c0.44-0.06,0.88-0.13,1.29-0.25
			c0.56-0.15,1.09-0.35,1.6-0.65c-0.56,0.04-1.07,0-1.6-0.07c-0.43-0.06-0.85-0.15-1.29-0.26c-0.67-0.17-1.35-0.36-2.04-0.52
			c-0.13-0.04-0.29-0.08-0.44-0.1c-0.09-0.01-0.19-0.05-0.29-0.07c0.08,0.07,0.19,0.15,0.29,0.21c0.19,0.11,0.37,0.24,0.44,0.46
			l0.05,0.15l-0.05,0.02c-0.13,0.05-0.29,0.11-0.44,0.15c-0.16,0.05-0.31,0.09-0.48,0.13c-0.24,0.07-0.5,0.11-0.75,0.17
			C57.51,139.52,57.1,139.56,56.71,139.56"/>
		<path class="st9" d="M57.93,132.9h0.75c0.17,0,0.32,0,0.48-0.02c0.12,0,0.22-0.02,0.34-0.03c-0.1-0.02-0.22-0.02-0.34-0.04
			c-0.14-0.02-0.31-0.02-0.48-0.03c-0.24,0-0.5-0.02-0.75-0.04c-0.15,0-0.32-0.02-0.48-0.05C57.53,132.85,57.71,132.74,57.93,132.9"
			/>
		<path class="st9" d="M59.16,128.51l-0.17,0.09l0.17,0.18c0.13,0.09,0.29,0.17,0.44,0.23c0.32,0.11,0.68,0.15,0.88,0.11
			c0.22,0,0.26,0.33,0.07,0.41c-0.27,0.28-0.53,0.28-0.78,0.56c0.6-0.13,1.24-0.39,1.87-0.73c0.46-0.22,0.88-0.49,1.29-0.75
			c0.32-0.2,0.63-0.43,0.92-0.63c-0.3-0.02-0.6-0.05-0.92-0.05c-0.41-0.04-0.85-0.04-1.29,0c-0.7,0.04-1.38,0.15-2.04,0.39
			C59.47,128.38,59.31,128.45,59.16,128.51"/>
		<path class="st9" d="M59.6,127.76l-0.05,0.09l0.05-0.02c0.77-0.35,1.43-0.8,2.04-1.31c0.46-0.37,0.88-0.76,1.29-1.18
			c0.27-0.26,0.53-0.54,0.8-0.82c-0.27-0.05-0.53-0.09-0.8-0.07c-0.44,0.02-0.87,0.15-1.29,0.36c-0.73,0.35-1.43,0.91-2.04,1.42
			c-0.12,0.11-0.24,0.2-0.36,0.3c0.12,0.07,0.24,0.07,0.36,0.04c0.29-0.09,0.58-0.33,0.85-0.15
			C60.28,127.04,59.96,127.26,59.6,127.76"/>
		<path class="st9" d="M58.68,136.49c-0.24,0-0.5,0-0.75-0.02c-0.41,0-0.81,0.02-1.22,0c-0.32-0.02-0.63-0.06-0.94-0.12
			c0.21,0.26,0.58,0.34,0.94,0.32c0.44,0,0.88-0.09,1.11-0.08c-0.04,0.45-0.63,0.5-0.63,0.95c0.22-0.02,0.49-0.03,0.75-0.06
			c0.25-0.03,0.51-0.07,0.75-0.11c0.17-0.03,0.32-0.08,0.48-0.13c0.15-0.04,0.3-0.09,0.44-0.15c0.24-0.11,0.44-0.24,0.63-0.41
			c-0.21-0.03-0.41-0.09-0.63-0.11c-0.13-0.02-0.29-0.04-0.44-0.06C59,136.51,58.85,136.51,58.68,136.49"/>
		<path class="st9" d="M61.64,134.12c-0.27,0.09-0.54,0.17-0.78,0.17c0.28,0,0.53,0.04,0.78,0.09c0.44,0.06,0.85,0.17,1.29,0.24
			h0.13c-0.03,0.14-0.07,0.23-0.13,0.3c-0.27,0.41-0.94,0.45-1.24,0.69c0.4-0.02,0.83-0.08,1.24-0.17c2.25-0.5,4.23-1.92,5.51-3.75
			c-1.56,0.64-3.77,0.6-4.96,1.4c-0.17,0.13-0.36,0.26-0.54,0.38C62.52,133.73,62.08,133.97,61.64,134.12"/>
		<path class="st7" d="M60.02,167.06c0-0.58,0.58-1.51,0.46-1.73c-0.36-0.24-0.62,0.69-0.56,1.08
			C59.92,166.69,59.96,166.88,60.02,167.06"/>
		<path class="st9" d="M61.64,132.29c-0.24,0.09-0.48,0.17-0.68,0.23c0.13,0.07,0.39,0.11,0.68,0.15c0.44,0.05,0.97,0.11,1.29,0.19
			l0.19,0.03c0.65-0.3,0.95-0.5,1.92-0.76c2.91-2.81,5.27-4.08,6.48-6.56c-1.31,0.69-2.57,1.38-3.64,1.69
			c-1.26,1.05-2.64,1.94-4.95,3.34c-0.09,0.07-0.19,0.13-0.29,0.19l0.29,0.08c0.29,0.05,0.54,0.09,0.7,0.39
			c-0.2,0.2-0.44,0.37-0.7,0.5C62.52,131.97,62.08,132.14,61.64,132.29"/>
		<path class="st9" d="M58.68,137.64l-0.29,0.07c0.08,0.03,0.19,0.06,0.29,0.08c0.17,0.01,0.32,0.01,0.48,0.03
			c0.15,0.02,0.3,0.04,0.44,0.08l0.22,0.06c0.54,0.03,1.17,0.03,1.82-0.02c0.42-0.02,0.87-0.07,1.29-0.14
			c1.68-0.25,3.4-0.8,4.52-1.8c-1.53,0.2-2.99,0.32-4.52,0.28c-0.41-0.02-0.85-0.03-1.29-0.09c-0.36-0.02-0.71-0.08-1.09-0.13
			c-0.37,0.11-0.59,0.11-0.85,0.11c0.42,0.08,0.85,0.13,1.16,0.45c-0.31,0.41-0.75,0.61-1.26,0.78c-0.13,0.04-0.29,0.09-0.44,0.13
			C59,137.57,58.85,137.6,58.68,137.64"/>
		<path class="st9" d="M61.64,129.72c-0.46,0.23-0.94,0.43-1.41,0.6c0.44,0.13,0.85,0,1.29,0.28l0.12-0.04
			c0.44-0.13,0.87-0.3,1.29-0.49c4.25-1.93,8.55-6.89,10.43-10.93c-3.03,3.05-6.16,5.79-9.42,8.5c0.17,0.18,0.48-0.28,0.48,0.18
			c-0.45,0.45-0.94,0.84-1.48,1.17C62.52,129.25,62.1,129.5,61.64,129.72"/>
		<path class="st9" d="M61.64,126.92c-0.27,0.23-0.56,0.45-0.82,0.65c0.28,0.04,0.56,0.06,0.82,0.04c0.46-0.02,0.88-0.09,1.29-0.21
			c2.77-0.76,4.71-3.54,6.62-5.68c0.98-1.82,2.18-3.32,2.62-5.51c-2.56,3.19-5.97,5.12-9.23,7.53c-0.15,0.11-0.31,0.22-0.44,0.33
			c0.13,0,0.29,0,0.44,0.02c0.47,0.02,1,0.09,1.43-0.13c-0.3,0.67-0.81,1.29-1.43,1.84C62.54,126.2,62.08,126.57,61.64,126.92"/>
		<path class="st9" d="M58.68,131.86c-0.29,0.21-0.54,0.37-0.6,0.43c0.19,0.04,0.39,0.06,0.6,0.08h0.48c0.15,0,0.3,0,0.44-0.02
			c0.7-0.04,1.37-0.19,2.04-0.39c0.46-0.13,0.88-0.31,1.29-0.5l0.13-0.07l-0.13-0.04c-0.41-0.15-0.84-0.26-1.29-0.35
			c-0.67-0.13-1.35-0.22-2.04-0.26c-0.13,0-0.29,0-0.44-0.02h-0.48c-0.24,0-0.5,0-0.75,0.02h-0.22l0.22,0.21
			c0.22,0.13,0.5,0.24,0.75,0.28c0.17,0.02,0.34,0,0.48-0.05l0.23-0.15c0.19,0.12,0.04,0.32-0.23,0.52
			C59.02,131.64,58.85,131.77,58.68,131.86"/>
		<path class="st9" d="M57.93,161.3c-0.08-0.1-0.17-0.19-0.27-0.28c-0.14,0.3-0.14,0.99-0.68,0.88c0.22,0.26,0.61,0.21,0.95,0.24
			c0.21,0.02,0.39,0.07,0.53,0.24l0.22-0.02l0.19-0.19l-0.19-0.08C58.39,161.94,58.2,161.6,57.93,161.3"/>
		<path class="st7" d="M57.03,161.45c0.37,0.05,0.36-0.52,0.15-0.67c-0.2-0.2-0.63-0.19-0.97-0.05
			C56.67,161.04,56.93,161.28,57.03,161.45"/>
		<path class="st9" d="M54.74,140.75c-0.21-0.06-0.39-0.15-0.58-0.28c0.15,0.22,0.36,0.37,0.58,0.49c0.56,0.29,1.27,0.4,1.97,0.54
			c0.18,0.03,0.36,0.07,0.54,0.11h0.68c0.25,0,0.51-0.02,0.75-0.04c0.17-0.02,0.32-0.02,0.48-0.04c0.15-0.02,0.3-0.03,0.44-0.08
			c0.46-0.07,0.89-0.18,1.31-0.35c-0.43-0.06-0.87-0.11-1.31-0.14c-0.13-0.02-0.29-0.02-0.44-0.04c-0.16-0.02-0.31-0.04-0.48-0.06
			c-0.24-0.04-0.5-0.07-0.75-0.13c-0.17-0.04-0.36-0.07-0.53-0.13c-0.22,0.07-0.44,0.15-0.7,0.21
			C56.1,140.94,55.38,140.96,54.74,140.75"/>
		<path class="st7" d="M43.24,161.21c0.31-0.19,0.48-0.87,0.48-1.32c-0.12-0.6-0.63-0.58-0.78-0.16
			C42.97,160.24,43.41,160.46,43.24,161.21"/>
		<path class="st9" d="M53.45,141.24c0.27,0.04,0.51,0.02,0.71-0.07c-0.29-0.1-0.49-0.32-0.71-0.53c-0.38-0.39-0.75-0.8-1.46-0.61
			c-0.22-0.05-0.43-0.13-0.65-0.21c-0.3-0.11-0.61-0.26-0.76-0.5c0.14,0.28,0.42,0.6,0.76,0.9
			C51.95,140.72,52.76,141.16,53.45,141.24"/>
		<path class="st10" d="M47.29,123.1c0.26-0.06,0.41-0.19,0.63-0.34c-0.12-0.18-0.37-0.18-0.63-0.18
			C47.36,122.77,47.36,122.86,47.29,123.1"/>
		<path class="st7" d="M39.28,161.21c0-0.54,0.56-0.87,0.53-1.28c-0.37-0.26-0.63-0.12-0.75,0.07
			C38.9,160.52,39.01,160.85,39.28,161.21"/>
		<path class="st9" d="M39.33,153.05c-0.1,0.24,0.1,0.65-0.2,0.74c-0.36,0.18-0.78,0-0.85,0.24c0.37,0.23,0.83,0.35,1.22,0.64
			c0.22,0.12,0.41,0.31,0.56,0.55c0.12,0.08,0.27,0.14,0.27,0.14c0.1,0,0.21,0,0.36-0.06c-0.4-0.3-0.94-0.54-0.94-1.27
			c-0.12-0.41,0.16-0.74-0.06-0.91l-0.19-0.05L39.33,153.05"/>
		<path class="st7" d="M38.55,153.46h0.31c-0.08-0.17,0.12-0.52-0.21-0.52c-0.48-0.04-0.99-0.04-1.21,0.1
			C37.87,152.94,38.12,153.22,38.55,153.46"/>
		<path class="st7" d="M63.89,165.05c0.15-0.24,0.36-0.77,0.25-1.1c-0.08-0.33-0.63-0.52-0.65,0
			C63.55,164.32,63.82,164.47,63.89,165.05"/>
		<path class="st9" d="M39.5,158.34c-0.09,0.22-0.24,0.41-0.37,0.52c-0.33,0-0.41,0.21-0.36,0.45c0.19,0.1,0.47-0.02,0.73-0.05
			c0.22-0.04,0.42-0.02,0.53,0.19c0.15,0.22,0.15,0.49,0.34,0.55c0.6-0.18-0.26-1.54,0.22-1.99c0.32-0.13,0.51,0.09,0.78,0.17
			c0.12,0.04,0.25,0.04,0.42-0.02c0.51,0.35,0,1.15,0.36,1.46c0.49-0.54,0.93-0.6,1.61-0.37c-0.56-0.56-1.29-1.18-1.49-2.22
			c1.08-0.97,3.02-1.55,4.33-0.97c0.41,0.11,0.53,0.69,0.88,0.69c0.03-0.18,0.07-0.43,0.1-0.69c0.1-0.58,0.24-1.21,0.68-1.49
			c0.37-0.11,0.42,0.1,0.65,0.1c0.18-0.63,0.46-1.48,0.95-2.03c0.31-0.33,0.66-0.58,1.14-0.63c0.15,0.05,0.05,0.28,0.08,0.5
			l0.24-0.2c0.58-0.44,1.35-0.8,2.11-1.04l0.24-0.08c0.25,0.22-0.08,0.52-0.16,0.87c0.28-0.29,0.75-0.45,1.21-0.62
			c0.34-0.11,0.66-0.22,0.88-0.42c-0.05-1.1,0.22-2.13-0.16-2.94c-0.23-0.06-0.48-0.11-0.72-0.17c-0.43-0.09-0.86-0.18-1.29-0.26
			c-0.7-0.12-1.4-0.21-2.11-0.22c-0.47-0.02-0.97,0-1.46,0.04c-0.77,0.09-1.53,0.26-2.28,0.56c-0.48,0.2-0.95,0.45-1.42,0.75
			c-0.15,0-0.24,0-0.36,0.08c0.04,0.39,0.56,0,0.75,0.33c-0.27,0.41-0.9,0.58-1.22,0.99c-0.3,0.11-0.53,0.11-0.73,0.2
			c0.05,0.3,0.63,0.19,0.78,0.08c0.05,0.74-0.41,2.01-0.51,3.09c-0.27,1.1-1.32,1.55-2.21,1.66c-0.44,0.07-0.87,0.19-1.31,0.31
			c-0.63,0.21-1.26,0.43-1.87,0.54c-0.73,0.11-1.45,0.04-2.06-0.56c-0.22-0.24-0.48-0.17-0.56-0.41c-0.44,0.52,0.51,0.85,0.15,1.6
			c-0.15,0.07-0.37,0.3-0.27,0.48c0.7,0.28,1.89-0.54,2.74-0.03l0.08,0.03C39.7,157.6,39.65,158.01,39.5,158.34"/>
		<path class="st7" d="M39.99,148.98c0.36-0.35,0.51-1,0.44-1.3c-0.2-0.52-0.84-0.52-0.77-0.05
			C39.82,148.04,39.89,148.39,39.99,148.98"/>
		<path class="st9" d="M36.71,143.75c-1.02-0.08-1.94-0.4-2.52-1.45c-0.19-0.34-0.71-0.04-0.82,0.16c0.24,0.19,0.56,0.53,0.31,0.86
			c-0.17,0.28-0.33,0.35-0.39,0.52c0.34,0.22,0.71-0.45,1-0.08c0.42,0.98,1.36,0.29,1.96,0.69c-0.32,0.93-1.63,1.1-2.16,1.6
			c0.21,0,0.7-0.07,0.75,0.3c0.03,0.36-0.12,0.25,0.03,0.61c0.7-0.3,1-1.51,1.84-1.67l0.17-0.02c0.42,0.75,1.51,0.63,1.72,1.44
			c0.05,0.43,0.05,0.78,0.3,0.96c0.56,0.02,0.44-0.71,0.85-0.74c0.17-0.02,0.53,0.19,0.58,0.05c-0.27-0.46-1.21-0.55-1.32-1.37
			c0-0.45,0.3-0.67,0.54-0.69c0.51-0.04,0.71,0.06,1.07,0.1c0.12-0.52,0.22-0.88,0.7-1.18C40.01,143.38,38.24,143.85,36.71,143.75"
			/>
		<path class="st7" d="M33.68,147.89c0-0.56,0.83-0.61,0.78-1.17c-0.27-0.25-0.73-0.06-0.68,0.16
			C33.56,147.27,33.63,147.55,33.68,147.89"/>
		<path class="st7" d="M33.73,130.56c0.33,0,0.73,0.04,0.89-0.24c0.22-0.34-0.05-0.39-0.05-0.58
			C34.47,130.22,33.89,130.32,33.73,130.56"/>
		<path class="st9" d="M36.71,120.98c-0.06,0.05-0.17,0.09-0.3,0.08c-0.22-0.06-0.68-0.3-0.68,0.05c0.03,0.69,0.56,1.06,0.41,1.81
			c-0.03,0.24,0.12,0.35,0.17,0.52c-0.47,0.35-1.43-0.3-1.83,0.24c0.51,0.52-0.27,0.97-0.12,1.55c0.63,0,1.28-0.8,1.91-0.17
			c0.29,0.45-0.15,0.56-0.32,0.75c-1,0.56-0.27,2.12-1.24,2.8c-0.34,0.18-0.49,0.35-0.49,0.63c0.22,0,0.32-0.28,0.6-0.17
			c0.25,0.3,0.3,0.8,0.52,0.91c0.31-0.91,0.25-2.4,1.19-2.85c0.09,0.11,0.15,0.21,0.21,0.33c0.44,0.93-0.15,2.48,0.25,3.5
			c0.07-0.13,0.07-0.41,0.22-0.41c0.3,0.17,0.15,0.58,0.58,0.63c0.1-0.47,0-1.1,0.24-1.45c0.44,0.19,0.49,0.65,0.77,0.99
			c-0.68-2.35-2.18-5.25-0.56-7.44c0.53-0.71,1.7-0.32,2.02-1.05c-0.17-0.44-0.95-0.05-1-0.52c-0.05-0.22-0.1-0.39-0.1-0.52
			c-0.58,0.05-0.58,1.21-1.41,1.21c-0.32,0.06-0.32,0.8-0.63,0.56c-0.27-0.39-0.15-0.96,0.1-1.3c0.15-0.3,0.47-0.91,0.15-0.99
			C36.96,120.61,36.9,120.85,36.71,120.98"/>
		<path class="st7" d="M40.23,121.56c0.2-0.3,0.05-0.99-0.17-1.29c-0.15,0.3-0.42,0.49-0.51,1.06
			C39.45,121.67,39.96,121.78,40.23,121.56"/>
		<path class="st8" d="M42.27,140.17c0-0.04,0.03-0.15,0.03-0.26C42.3,139.97,42.27,140.06,42.27,140.17"/>
		<path class="st10" d="M46.61,123.14h0.31c-0.41,0-0.31-0.73-0.46-0.73c-0.15-0.06-0.22-0.06-0.28-0.13
			C46.18,122.66,46.3,122.92,46.61,123.14"/>
		<path class="st9" d="M49.87,119.66c-0.25,0.32-0.51,0.71-0.75,1.15c0.19,0.09,0.46,0.15,0.75,0.25c0.25,0.05,0.53,0.13,0.81,0.22
			c0.2-0.18,0.42-0.46,0.65-0.76c0.43-0.54,0.89-1.14,1.43-1.47c0.27-0.58,0.54-0.91,0.68-1.51l0.05-0.17l-0.05,0.02
			c-0.82,0.35-1.5,0.64-2.11,0.99C50.81,118.71,50.33,119.1,49.87,119.66"/>
		<path class="st9" d="M47.6,120.85c-1.01-0.18-2.01-0.26-2.98,0.08c0.49,1.1,1.87,1.01,2.98,1.23c0.29,0.07,0.56,0.15,0.8,0.26
			c0.53,0.08,1.04-0.04,1.48-0.3c0.25-0.15,0.49-0.35,0.7-0.61c-0.24-0.02-0.46-0.08-0.7-0.13C49.14,121.22,48.37,121,47.6,120.85"
			/>
		<path class="st9" d="M49.87,133.97L49.85,134c-0.1-0.33-0.06-0.76-0.25-1.15c-0.17,0.33-0.37,1.1-0.12,1.49
			c0.05,0.24,0.22,0.34,0.39,0.37c0.25,0.06,0.54,0.04,0.61,0.19c-0.17,0.19-0.26,0.54-0.6,0.65c0,0.17,0.37,0,0.37,0.34
			c0,0.28-0.1,0.36-0.22,0.41c0.53-0.17,0.63,0.32,0.9,0.75c0.12-0.06,0.26-0.15,0.39-0.25c0.63-0.41,1.29-0.97,2.11-1.08
			c0.12-0.02,0.22-0.04,0.34-0.04c0.25-0.15,0.63-0.45,0.95-1.08c0.34-0.63,0.64-1.58,0.82-3.04c0.14-1.21,0.56-2.25,1.16-3.17
			c0.36-0.54,0.78-1.03,1.22-1.48c0.25-0.24,0.5-0.46,0.75-0.68c0.17-0.13,0.32-0.27,0.48-0.39c0.15-0.11,0.3-0.22,0.44-0.33
			c0.68-0.51,1.39-0.97,2.04-1.4c0.46-0.3,0.9-0.59,1.29-0.88c0.1-0.06,0.19-0.11,0.27-0.19c1.33-0.99,2.06-2.23,2.84-3.67
			c-0.88,1.14-1.91,2.33-3.11,3.37c-0.41,0.37-0.84,0.73-1.29,1.04c-0.41,0.3-0.85,0.6-1.29,0.84c0.37-0.36,0.81-0.84,1.29-1.38
			c0.42-0.48,0.87-1.01,1.29-1.56c1.48-1.88,2.94-4.1,3.57-5.79c-1.24,1.19-2.38,2.61-3.57,3.99c-0.41,0.49-0.85,0.96-1.29,1.41
			c-0.63,0.67-1.31,1.3-2.04,1.82c-0.13,0.11-0.29,0.21-0.44,0.3c-0.16,0.11-0.31,0.21-0.48,0.3c-0.24,0.15-0.48,0.28-0.75,0.39
			c-0.1,0.06-0.22,0.11-0.34,0.15c0.12-0.07,0.24-0.17,0.34-0.24c0.27-0.21,0.53-0.41,0.75-0.63c0.17-0.17,0.34-0.32,0.48-0.48
			c0.17-0.17,0.3-0.36,0.44-0.54c0.56-0.71,0.99-1.54,1.31-2.53c-0.37,0.58-0.81,1.06-1.31,1.49c-0.13,0.13-0.29,0.24-0.44,0.37
			c-0.16,0.11-0.31,0.22-0.48,0.35c-0.24,0.17-0.5,0.34-0.75,0.49c-0.39,0.26-0.8,0.5-1.22,0.75c-0.68,0.41-1.35,0.84-1.97,1.33
			c-0.46,0.37-0.9,0.8-1.29,1.28c-0.26,0.34-0.5,0.71-0.68,1.12c-0.05,0.69-0.16,1.44-0.65,1.68c-0.42,0.64-0.36,1.66-0.78,2.31
			c-0.1,0.15-0.22,0.3-0.39,0.39c-0.2-0.13-0.05-0.38-0.27-0.49C50.43,131.81,50.43,133.15,49.87,133.97"/>
		<path class="st9" d="M54.74,138.92c0.17,0,0.34-0.02,0.51-0.05c-0.19-0.06-0.34-0.13-0.51-0.22c-0.56-0.34-1.02-0.88-1.21-1.55
			c0.33,0,0.77,0.17,1.21,0.32c0.68,0.2,1.41,0.4,1.97,0.05c0.13-0.08,0.25-0.17,0.37-0.31c-0.12-0.02-0.24-0.02-0.37-0.04
			c-0.58-0.06-1.28-0.09-1.6-0.77c0.27-0.37,0.95-0.39,1.6-0.52c0.48-0.08,0.93-0.22,1.22-0.58l0.11-0.11l-0.11,0.02
			c-0.42,0.07-0.85,0-1.22-0.21c-0.22-0.13-0.43-0.29-0.56-0.5c-0.12-0.17-0.12-0.33-0.12-0.45c0.22,0,0.44-0.02,0.68-0.02
			c0.41-0.04,0.83-0.08,1.22-0.19c0.27-0.08,0.51-0.19,0.75-0.33l0.24-0.17l-0.24,0.04c-0.24,0.04-0.5,0.01-0.75-0.02
			c-0.48-0.08-0.92-0.28-1.22-0.6l-0.14-0.2c-0.17-0.32-0.05-0.52,0.14-0.54l0.18,0.02c0.4,0,0.75,0.02,1.04-0.09
			c0.17-0.08,0.32-0.16,0.46-0.32c-0.15-0.03-0.31-0.09-0.46-0.17c-0.39-0.17-0.73-0.41-0.95-0.82c-0.17-0.5,0.37-0.62,0.54-0.37
			c0.14,0.02,0.27,0.02,0.41,0.02c0.27,0,0.53-0.04,0.75-0.09c0.17-0.02,0.32-0.08,0.48-0.13c0.15-0.06,0.3-0.14,0.44-0.23
			c0.12-0.06,0.22-0.13,0.32-0.21c-0.12-0.02-0.22-0.05-0.32-0.09c-0.13-0.06-0.29-0.11-0.44-0.17c-0.16-0.08-0.31-0.13-0.48-0.15
			c-0.22-0.05-0.48-0.04-0.75,0.07l-0.07,0.04c-0.05,0-0.16-0.16-0.16-0.33l0.22-0.19c0.25-0.21,0.51-0.39,0.75-0.6
			c0.17-0.15,0.34-0.28,0.48-0.43c0.17-0.15,0.32-0.32,0.44-0.49c0.1-0.11,0.19-0.24,0.27-0.37c-0.1,0.02-0.18,0.02-0.27,0.04
			c-0.13,0.02-0.29,0.04-0.44,0.08c-0.16,0.04-0.31,0.09-0.48,0.17c-0.25,0.11-0.51,0.26-0.75,0.43c-0.49,0.37-0.9,0.88-1.22,1.47
			c-0.09,0.17-0.15,0.36-0.22,0.52c-0.8,1.96-0.65,4.34-1.75,5.7c-0.24,0.32-0.56,0.58-0.95,0.77c-0.12,0-0.24,0.02-0.34,0.02
			c-0.95,0.11-1.41,0.91-2.11,1.27c-0.15,0.08-0.34,0.14-0.55,0.14c-0.36-0.17-0.3-0.89-0.75-0.74l-0.17,0.11
			c-0.42,0.32-0.77,0.66-0.7,1.1c-0.1,1.11,0.03,1.97,0.7,2.51c0.08,0.06,0.18,0.13,0.29,0.17c0.27-0.5-0.21-1.43,0.07-1.81
			c0.34,0.19,0.71,0.39,1.11,0.56c0.43,0.19,0.89,0.32,1.38,0.33c-0.26-0.28-0.41-0.85-0.53-1.41c0.36,0.11,0.8,0.28,1.26,0.41
			C53.87,138.83,54.31,138.92,54.74,138.92"/>
		<polyline class="st8" points="55.63,164.46 55.62,164.47 55.63,164.46 		"/>
		<path class="st7" d="M35.19,156.85c0.27-0.55,1.21-0.18,1.46-0.52c-0.12-0.24-0.15-0.63-0.36-0.69c-0.58,0.11-0.9,0.58-1.11,0.97
			V156.85z"/>
		<path class="st7" d="M32.03,143.84c0.51-0.44,1.07-0.11,1.24-0.56c0.02-0.46-0.33-0.59-0.6-0.46
			C32.25,142.99,32.1,143.4,32.03,143.84"/>
		<path class="st7" d="M36.2,140.6c0.19-0.05,0.46-0.3,0.3-0.46c-0.2-0.26-0.63-0.65-0.95-0.65
			C35.84,139.84,35.94,140.58,36.2,140.6"/>
		<path class="st7" d="M33.94,124.65c0.26,0.02,0.36-0.28,0.12-0.52c-0.48-0.36-1.12-0.17-1.5-0.07
			C33.02,124.24,33.48,124.3,33.94,124.65"/>
		<path class="st7" d="M36.28,120.5c0.14,0.28,0.68,0.11,0.41-0.41c-0.34-0.45-0.77-0.87-1.23-0.87
			C35.93,119.42,36.01,119.98,36.28,120.5"/>
		<path class="st11" d="M53.41,119.96c0.43-0.26,0.87-0.43,1.24-0.54c-0.36,0.59-0.78,0.93-1.09,1.71c-0.05,0.09-0.1,0.19-0.15,0.28
			c-0.32,0.63-0.83,1.24-1.51,1.17c-0.37-0.04-0.25-0.61-0.05-1.02C52.2,120.85,52.8,120.31,53.41,119.96 M49.84,122.47l-0.23,0.22
			c-0.85-0.02-1.38,0.48-2.01,0.77c-0.34,0.16-0.73,0.24-1.21,0.11c-0.46-0.13-0.56-0.88-0.66-1.33c-0.54,0.11-0.8-0.28-1.18-0.52
			c-0.87-0.22-1.95,0.21-2.06,0.75c-0.1,0.46,0.05,1.05,0.42,1.3c-0.03-0.3,0.17-0.73,0.58-0.75c1.33,0,2.08,2.81,4.1,2.55l0.1-0.02
			c0.04,0.15-0.02,0.24-0.1,0.3c-0.07,0.06-0.19,0.06-0.31,0.06c-0.98-0.3-2.35,0.58-3.38,0.13c0.63,1.01,2.33,1.01,3.69,0.93
			c0.47-0.04,0.92-0.08,1.26-0.1c-0.37,0.41-0.77,0.51-1.26,0.51c-0.12,0-0.27-0.02-0.41-0.04c-0.8,0.06-1.84,0.1-2.19,0.91
			c0.05,0,0.36,0,0.25,0.41c-0.36,0.78-1.36,1.03-2.09,1.42c0.1,0.22,0.46,0.06,0.53,0.3c-0.47,0.58-1.48,0.69-1.48,1.43
			c0.17,0,0.47-0.39,0.79-0.13c-0.37,0.8-1.33,1.44-1.62,2.29c-0.07,0.22-0.1,0.46-0.05,0.71l0.05-0.02
			c0.24-0.15,0.39-0.43,0.68-0.28c-0.3,0.74-0.8,1.85-0.53,2.7c0.27-0.24,0.37-0.63,0.75-0.63c-0.17,0.99-0.63,1.99-0.17,2.98
			c0.21-0.24,0.27-0.57,0.58-0.61c0.04,0.78-0.2,1.64,0.12,2.27c0.29-0.22,0.29-0.69,0.68-0.69c-0.32,0.5-0.75,1.19-0.32,1.98
			c0.39-0.22,0.68-0.09,1.19-0.03c-0.08-1.44-0.73-3.25,0.05-4.9c0.32-0.47,0.78-0.84,1.21-0.6c-0.05,0.35-0.46,0.06-0.68,0.41
			c-1.36,1.49-0.58,3.78-0.15,5.43c-0.37,0.13-1.09-0.39-1.41-0.06l0.12,0.19c-0.05,0.09,0.09,0.33,0,0.58
			c-0.68-0.28-1.39-0.45-2.11-0.41c-0.15,0-0.33,0.03-0.48,0.05c0.04,0.34,0.26,0.41,0.48,0.56c0.1,0.06,0.18,0.15,0.27,0.24
			c-0.04,0.2-0.13,0.33-0.27,0.47c-0.21,0.22-0.46,0.47-0.41,0.97c0.13,0.07,0.27,0.07,0.41,0.06c0.51-0.11,1.02-0.61,1.47-0.58
			c-0.26,0.3-0.16,0.75-0.41,0.99c0.79,0.09,1.56-0.5,2.1-0.82c-0.06,0.39-0.07,0.67-0.26,0.97c0.95-0.35,1.14-1.06,1.82-1.47
			c0,0.41-0.14,0.78-0.14,1.08c0.56-0.39,0.92-0.86,1.24-1.66c0.24-0.09,0.34,0.08,0.41,0.24c0.07,0.11,0.12,0.22,0.2,0.26
			c-0.1-0.21,0-0.67-0.15-1.13c0.33-0.8,1.33-1.32,1.36-2.37c0.6,1.12-1.24,1.7-0.87,3c0.34,0.61,1.04,1.27,1.65,1.32
			c-0.16-0.29-0.16-0.41-0.19-0.71l0.27,0.02c0.54,0.09,0.97,0.64,1.46,0.89c0.12,0.06,0.22,0.12,0.34,0.13
			c0.15-0.18-0.07-0.45,0.2-0.67c0.75,0,0.99,0.9,1.57,1.14l0.08,0.02c0.26-0.08-0.03-0.37,0.16-0.67c0.12-0.52,0.42,0.17,1.06,0.76
			c0.24,0.2,0.51,0.39,0.83,0.53c1.05,2.31-0.41,5.83,1.05,8.53c0.27,0.95-0.59,1.47-1,1.94c0.41,0.05,0.78-0.17,1.09-0.34
			c0.17-0.07,0.32-0.15,0.48-0.18c-0.1,0.35-0.15,0.46-0.15,0.87c0.15,0.45,0.42,0.9,0.78,0.9c-0.12-0.3-0.05-0.78,0.12-1.16
			c0.08-0.16,0.19-0.32,0.31-0.43c0.1,0.22,0.26,0.37,0.44,0.48c0.15,0.09,0.31,0.18,0.48,0.26c0.15,0.06,0.3,0.13,0.44,0.2
			c0.13,0.07,0.29,0.15,0.42,0.22c0.46,0.3,0.46,1.1,0.22,1.86c-0.15,0.48-0.34,1.03-0.64,1.81c-0.07,0.2-0.17,0.43-0.25,0.65
			c-0.07,0.11-0.12,0.21-0.19,0.28c-0.14,0.18-0.29,0.31-0.48,0.41c-0.22,0.13-0.48,0.19-0.75,0.21c-0.39,0.05-0.81,0.02-1.22,0.07
			l-0.24,0.02c0.07,0.09,0.15,0.15,0.24,0.22c0.08,0.07,0.17,0.17,0.27,0.28c0.17,0.11,0.1,0.64-0.05,1.04
			c-0.04,0.28,0.15,0.28,0.32,0.28c0.2-0.36,0.27-0.82,0.68-1.03v0.02c0.31,0.13,0.53,0.06,0.75-0.07c0.17-0.09,0.32-0.2,0.48-0.3
			c0.15-0.08,0.29-0.11,0.44-0.11c0.1,0,0.21,0.02,0.32,0.05c0.31,0.5-0.1,0.95-0.32,1.34c-0.1,0.18-0.17,0.37-0.05,0.54l0.05-0.11
			c0.05-0.08,0.1-0.17,0.22-0.3c0.31-0.78,1.26,0.37,1.41-0.45c-0.22-0.12-0.27-0.56-0.49-0.91c-0.03-0.5,0.37-0.64,0.65-0.97
			l0.25-0.09c0.3-0.04,0.68,0.11,0.94,0.32c0.53,0.22,0.24,0.69,0.36,1.01l0.08,0.09c0.16-0.13,0.16-0.35,0.31-0.63
			c0.15-0.41,0.48,0.04,0.66-0.08v-0.2c0-0.49-0.68-0.32-1.04-0.71c-0.63-0.71-0.68-1.99-0.46-3.22c0.18-0.21,0.18-0.69,0.44-0.9
			l0.08-0.05c0.41,0.09,0.31,0.57,0.51,0.78c0.21-0.61,0.05-1.36-0.25-2.16c-0.17-0.24,0.08-0.24,0.3-0.3
			c-0.13-0.54-0.36-1.08-0.64-1.52c-0.24-0.38-0.51-0.7-0.82-0.93c0.05-0.45,0.53-0.07,0.68-0.24c-0.27-0.61-1.21-1.01-1-1.64
			c0.1,0.09,0.22,0.09,0.32,0.09c-0.07-0.41-0.27-0.75-0.48-1.1c-0.14-0.24-0.27-0.5-0.31-0.84c0.1-0.08,0.2-0.06,0.31,0
			c0.17,0.09,0.32,0.26,0.48,0.28c-0.05-0.58-0.27-1.17-0.48-1.73c-0.09-0.26-0.15-0.52-0.19-0.78l0.19,0.06
			c0.12,0.07,0.22,0.17,0.37,0.05c-0.07-0.28-0.24-0.5-0.37-0.74c-0.12-0.21-0.2-0.41-0.15-0.67l0.15,0.11
			c0.53,0.3,0.94,0.73,1.29,1.21c0.63,0.84,1.11,1.83,1.74,2.68c1.05,1.83,3.25,1.18,5.08,0.69c0.58-0.19,1.12,0.03,1.31,0.49
			c0.48-0.56-0.31-1.01-0.53-1.48c1.58-3.04-0.95-6.45-0.51-9.99c0.24-2.01,1.77-2.35,2.14-3.69c-0.37,0.25-0.63,0.54-1.05,0.58
			c0.6-1.6,2.28-3.67,1.41-6.11c-0.17-0.43-0.68-0.6-1.24-0.54c-0.34,0.13-0.68,0.54-0.53,0.69c0.27-0.09,0.82-0.08,0.95,0.39
			c0.7,2.61-1.44,4.45-2.31,6.54c-1,2.38-0.73,5.44,0.15,7.73c-0.29-0.09-1.04-0.04-1.04,0.35c1.48,0.52,1.91,1.94,1.04,3.3
			c-0.63,1.36-2.82,1.96-3.73,0.86c-0.85-1.03-2.09-2.77-2.89-3.82c-0.22-0.29-0.41-0.54-0.54-0.69c-0.13-0.11-0.39-0.36-0.75-0.64
			c-0.51-0.43-1.22-0.97-2.04-1.53c-0.13-0.11-0.29-0.2-0.44-0.3c-0.16-0.11-0.31-0.21-0.48-0.32c-0.24-0.15-0.5-0.3-0.75-0.45
			c-0.39-0.24-0.81-0.47-1.22-0.65c-0.64-0.31-1.29-0.56-1.87-0.71l-0.1,0.02c-0.45,0-0.87-0.03-1.29-0.13
			c-0.75-0.17-1.43-0.5-2.11-0.88c-0.27-0.15-0.54-0.32-0.8-0.48c-0.31,0.17,0,0.63-0.15,0.91c-0.2,0-0.36-0.05-0.51-0.13
			c-0.48-0.28-0.72-0.87-1.06-1.36c-0.27-0.17-0.22,0.35-0.49,0.13c1-0.93,0.1-2.59,1.31-3.52c0.25-0.45-0.63-0.45-0.37-0.92
			c0.22-0.11,0.53,0.13,0.53-0.16c-0.26-0.06-0.26-0.28-0.56-0.39c-0.48-0.93,0-1.96,0.25-2.7c0.34-0.05,0.33,0.29,0.37,0.54v0.15
			c0.59-0.93,0.34-2.16,0.54-3.15c0.63-0.17,0.36,0.78,0.66,1.02c0.11-0.15,0.19-0.3,0.24-0.49c0.42-1.11-0.05-2.66,0.44-3.4
			c0.33,0.33,0.15,0.91,0.46,1.15c0,0,0.07-0.07,0.1-0.18c0.48-1.14,0.13-2.68-0.65-3.8c0.61-0.17,1.31-0.28,1.75-0.65
			c0.12-0.07,0.2-0.19,0.29-0.32c-0.03-0.07-0.15-0.13-0.29-0.24l-0.07-0.09l0.07-0.08c0.49-0.47,1.04-0.56,1.29-1.23l0.05-0.11
			c0-0.09-0.02-0.13-0.05-0.15c-0.08-0.06-0.27,0.04-0.27-0.28c0.08-0.09,0.19-0.21,0.27-0.32c0.58-0.65,1.05-1.45,1.46-2.26h-0.31
			c-0.41,0.07-0.8,0.19-1.16,0.32c-0.46,0.16-0.88,0.39-1.29,0.65c-0.78,0.5-1.44,1.16-2.11,1.82c-0.48,0.5-0.95,1.03-1.46,1.53
			V122.47z"/>
		<path class="st6" d="M115.7,40.31c-0.05,0.21,0.15,0.19,0.27,0.41c-0.78,0.06-1.89-0.22-2.84,0c-0.13,0.19,0.07,0.3,0.22,0.35
			c-1,0.08-2.59,0.39-3.28-0.58c-0.65-0.8,0.85-2.53-0.51-2.63c-0.39-0.52-1.38-1.04-1.85-0.86c0.24,0.35,0.63,0.62,0.75,1.51
			c-0.54,1.38,0.44,1.58,0.61,2.63c-0.42,0.2-1.15-0.24-1.39-0.62c-0.46-0.8-1.14-1.27-1.75-0.28c-0.8,0.04-1.55,0.88-1.36,1.75
			c0.31-0.13,0.71-0.28,1.19-0.35c0.15,0.24,0.02,0.52,0.42,0.52c0.22-0.17,0.65-0.33,0.78-0.11c0.38,0.56,1,0.63,1.46,0.5
			c-0.3,0.86-2.14,0.6-1.89,1.45c-0.37,0.63-0.64,1.71,0,2.23c0.04-0.06,0.19-0.71,0.85-1.14c0.34,0.24,0.68-0.06,1.04-0.56
			c0.29-0.33,0.37-0.78,1.05-1.01c0.38,0.56,1.11,0.67,1.52,1.02c0.05,0.56,0.05,1.12,0.49,1.29c0.41,0.19,0.34-0.17,0.79-0.04
			c0.19,0.63,0.31,0.99,0.27,1.49c0.59,0.02,1.1-1.38,0.82-2.18c0.43-0.74-1.04-0.91-1.16-1.66c0.33-0.5,0.71-0.41,1.33-0.15
			c0.39,0.61,1.46-0.36,1.72-0.41c0.1,0.39-0.43,0.56-0.33,0.97c0.73,0.17,1.48-0.15,1.99-0.47c-0.16,0.19-0.26,0.36-0.43,0.58
			c0.58,0.22,1.33-0.35,1.8-0.75c0.08,0.22-0.17,0.3-0.06,0.6c0.78-0.3,1.41-0.93,1.83-1.84c0.48,0.11,0.27,0.73,0.58,1.01
			c0.38,0,0.1-0.56,0.33-0.56c0.63,0.52,1.29,1.02,2.07,1.1c0.17-0.13,0.27-0.3,0.27-0.3c-0.27-0.11-0.53-0.19-0.65-0.56
			c0.78,0.17,1.33,0.95,2.23,0.92c0.19-0.3-0.19-0.3-0.19-0.64c0.68,0,1.17,1.45,2.01,1.04c0-0.17-0.25-0.54-0.03-0.71
			c0.37,0.91,1.79,1.08,1.7,2.25c-2.93-0.58-6.43-1.29-9.1,0.47c-0.65,0.24-1.1,0.18-1.62,0.26c0.19,0.32,0.57,0.56,0.97,0.78
			c-0.34,0.93-1.6,0.76-2.38,0.99c0.09,0.69,1.24,0.34,1.45,0.8c-0.25,1.19-0.15,3.28-1.21,3.45c-1.04,0.28-2.46,0.91-3.35,0.2
			c-0.61-0.5,0.73-2.34-1.22-1.9c-1.48-0.45-1.94-0.11-2.4,0.52c0.46,0.1,0.58,0.06,1.19,0.24c0.15,0.33-0.34,0.52,0.03,0.8
			c0.75,0.41,1.43,0.45,1.79,1.16c-1.67,1-3.2-2.09-3.57-0.17c-0.99,0.23-1.36,1.01-1.38,2.05c0.38-0.21,1.01-0.6,1.56-0.37
			c0.07,0.45,0.14,0.78,0.72,0.73c0.73-0.41,1.41-0.49,2.24-0.28c0.07,0.44-0.15,1.08-0.48,1.13c-0.41,0.11-0.66,0.91-0.16,1.3
			c-0.13,0.69-0.1,1.51,0.63,2.03c0.36,0.34,0.22-0.13,0.43-0.13c-0.21-0.06-0.21-0.39-0.21-0.56c0.21-0.3,0.21-0.87,0.63-0.87
			c0.41,0.06,0.67-0.11,0.71-0.45c0-0.58-0.3-1.1-0.05-1.44c0.3,0.11,0.79-0.17,0.9,0.3c-0.22,0.39-0.11,0.86,0.12,1.14
			c0.41,0.28,0.71-0.17,0.82,0.17c0.48,0.52,0.38,1.15,0.12,1.55c0.41,0.17,0.83-0.2,0.99-0.58c0.3-0.74,0.51-1.83,0.15-2.24
			c-0.63-0.33-1-0.78-1.26-1.58c2.86-2.44,4.63-0.32,4.92,0.2c0.41-1.32,0.32-2.18,0.73-2.51c0.37-0.05,0.49,0.33,0.78,0.33
			c0.12-1.19,0.65-2.33,1.64-2.87c0.21,0.19,0,0.54,0.16,0.86c0.46-0.73,1.34-1.3,2.38-1.6c0,0.3-0.31,0.99,0.15,1.05
			c0.42-0.62,1.39-0.95,2.18-1.12c-0.1,3.07,1.04,3.63,0.64,4.1c-0.29,0.67-1.04,1.33-1.25,1.44c0.12,0.36,0.63,0.39,1,0.28
			c0.3-0.15,0.47-0.39,0.78-0.21c-0.03,0.5,0.2,0.95,0.48,1.23c0.34,0.19,0.95,0.69,1.1,0.19c-0.37-0.19-0.37-1.04-0.22-1.42
			c0.48,0.67,1.87,0.52,2.01,1.51c0.03,0.58-0.62,2.81-1.11,3.2c-0.66-0.5-1.02-1.56-1.46-1.28c-0.8-0.58-1.72-0.26-1.8,0.2
			c-0.07,0.02,0.77,0.67,1,0.84c-0.2,0.22-0.27,0.62,0.12,0.73c0.51,0.11,1.03,0.04,1.41,0.34c-0.49,0.63-2.52-0.54-2.23,0.76
			c-0.5,0.43-1.14,0.78-0.92,1.88c0.25-0.28,0.73-0.86,1.24-0.63c0.27,0.24,0.22,0.8,0.58,0.69c0.73,0,0.6-1.16,1.16-1.03
			c0.73,0.28,0.85-0.45,1.48-0.52c0.34,0.56-0.7,0.86-0.53,1.66c0.83,0.41,0.25,1.79,1.09,2.05c0.1,0,0.22-0.03,0.37-0.08
			c-0.49-0.37,0-1.28,0.19-1.73c0.27-0.41,0.95-0.69,0.64-1.34c-0.15-0.28-0.53-0.48-0.27-0.91c0.27-0.39,0.58-0.56,1-0.39
			c0.68,0.17,0.19,1.03,0.68,1.3c0.27,0.08,0.53-0.17,0.63,0.21c0.17,0.34,0.29,0.73,0.46,1.03c0.59-0.69,0.61-1.57,0.46-2.11
			c0.1-0.34,0.13-0.73-0.36-0.95c-0.56-0.11-1.04-0.22-1.14-0.86c-0.32-1.04-0.27-2.18,0.17-3.04c0.18,0.28,0.3,0.86,0.3,1.25
			c0.99-0.28,0.22-2.61,0.41-2.78c0.41-0.5-0.44-2.12-0.99-2.65c0.17-0.35,0.32,0.23,0.58,0c-0.05-0.8-0.94-0.98-1.02-1.73
			c0.19,0,0.49,0.39,0.61,0c-0.41-0.51-0.85-1.16-1.22-2.01c0.27,0,0.47,0.58,0.8,0.24c0.07-0.84-0.43-1.62-0.7-2.41
			c0.17,0.23,0.37,0.39,0.7,0.56c0.25-0.41-0.38-0.97-0.53-1.42c1.77,1.08,2.06,4.57,4.8,4.64c2.94-0.11,2.94-0.93,4-0.24
			c0.05,0.3,0.05,0.58,0.27,0.58c0.41-0.35,0.29-1.02,0.26-1.43c-0.12-0.35-0.63-0.39-0.4-0.69c1.71-4.42-2.49-8.74,0.39-11.98
			c0.71-0.82,1.36-1.21,1.51-2.55c-0.34,0.08-0.44,0.56-0.93,0.69c0.78-1.43,1.68-3.67,0.95-5.51c-0.25-0.67-1.21-0.84-1.77-0.63
			c-0.54,0.24-0.86,0.78-0.7,1.34c0.36,0.35,0.58-0.41,0.95-0.11c0.63,1.03,0.15,2.18-0.26,3.15c-1.19,2.01-3.89,5.18-1.9,10.88
			c-0.51,0.13-0.99,0.33-1.14,0.8c0.61,0.22,1.43,0.45,1.67,1.23c0.58,1.99-1.72,3.67-3.35,2.87c-0.75-0.37-2.94-4.08-3.91-4.97
			c-0.95-0.91-2.42-1.94-5.36-3.82c1.61,0,3.45-0.13,4.86-1.08c-0.27-0.2-1.17-0.06-1.75-0.24c1.41-0.32,3.84-0.39,5.02-1.58
			c-1.28-0.22-2.67-0.06-3.93-0.65c1.36-0.26,5.75-0.64,6.69-2.79c-1.72,0.28-3.5,0.56-5.27,0.34c2.24-0.8,4.59-2.11,6.02-4.06
			c0.03-0.19,0-0.36,0.1-0.45l-3.32,0.73c0.78-0.6,6.84-5.57,6.55-7.05c-1.19,0.32-2.28,1.3-3.93,1.75
			c2.13-2.23,4.27-4.58,5.49-7.73c0.06-0.33,0.39-0.58,0.12-0.61c-1.24,1.3-2.52,2.27-4.13,3.89c0.47-1.16,1.26-2.07,1.83-3.32
			c0.83-1.04,1.14-2.7,1.14-3.86c-0.4,0.17-0.4,0.71-0.87,1.1c-2.01,2.29-4.45,4.06-6.88,5.5c0.75-0.91,1.5-1.98,1.85-3.28
			c-1.24,1.08-1.6,1.82-3.88,3.97c1.38-2.09,3.64-5.01,4.22-7.49c-2.16,2.11-4.27,4.92-7.04,7.42c0.63-0.88,1.15-2.18,1.46-3.41
			c-2.79,3.73-5.99,3.88-8.57,6.97c-0.05-0.56-0.26-1.36-0.7-2c0.88-0.18,2.52-1.06,1.89-1.54c0.59-0.41,1.49-1.49,1.19-1.9
			c0.56-0.75,1.38-2.18,1.33-2.63c-0.1-0.54-2.23,0.3-3.1,0.8c0.1-0.39,0.42-1.04,0.48-1.49c-0.43-0.8-5.14,1.99-5.26,3.43
			c-1.68-0.35-4.88-0.5-4.46,0.52c-0.54,0.19-1.55,0.36-1.89,1.04c-0.22,0.56-0.05,1.68,0.78,1.96c0.07-0.3,0-0.82,0.35-0.86
			c1.24,0.17,1.61,1.64,2.65,2.22c-0.78,0.35-1.99,0.54-2.52-0.15c-0.19,0.56-0.05,0.93,0.27,1.25c0.48,0.47,1.09,0.5,1.51,0.75
			c-0.42,0.34-0.95,0.61-1.21,1.27c0.15,0.21,0.37,0.21,0.41,0.17c-0.29,0.89-1.57,0.58-2.13,1.31c0.1,0.24,0.29,0.24,0.46,0.37
			c-0.58,0.48-1.36,1.06-1.47,2.03c0.1,0.13,0.25,0.13,0.25,0.13c0.07,0.41-0.35,0.17-0.56,0.17c-0.47-0.52-0.37-1.42-0.68-2.02
			c-0.15,0.24-0.2,0.6-0.41,0.86c-0.56-0.08,0.04-1.53-0.44-1.68c-0.26-0.08-0.31,0.5-0.58,0.13c-0.84-2.16-1.96-4.66-0.75-6.5
			c0.56-0.85,1.8-0.3,2.28-1.17c0.15-0.63-0.17-0.24-0.01-0.71c0.22-1.02-0.12-1.73-0.55-2.01c-0.19,0,0.24,0.23-0.56,1.01
			c-0.99-0.18-0.78,1.27-1.97,1.31c0.07-0.45,1.01-1.58-0.22-1.85c-0.58-0.72-0.8-1-1.65-1.36c-0.37,0-0.83,0.04-0.61,0.32
			c0.56,0.22,0.85,0.86,1.05,1.4c-0.78-0.09-0.92,0.35-0.7,0.86c0.3,0.49,0.66,1.27,0.34,1.68c-1.04-0.28-1.5,0.19-1.67,0.54
			c-0.54-0.04-2.09,0.04-2.09,0.65c0.7,0.08,1.46,0.24,1.94,0.82c0.1,0.39,0.22,0.62,0.78,0.56c0.36-0.16,0.58-0.45,1.1-0.45
			c-1.1,0.62-0.37,2.79-1.66,3.37c-0.5,0.47-0.05,1.04-0.22,1.27c-0.33,0.65-1.05,0.11-1.39,0.35c0.34,0.5,1.29,0.75,1.9,0.75
			c0.37-0.45,1.31-0.45,1.38-1.1c0.16-0.91,0.16-1.85,0.78-2.35c0.31,1.32-0.21,2.63,0.15,3.93c-0.22,0.6-1.04,0.2-1.26,0.43
			c0.22,0.56,0.58,1.1,1.1,1.42c-0.36,0.56-1.09-0.06-1.26-0.06c0.15,0.8,0.88,1.16,1.51,1.62c-0.15,0.28-0.51,0.22-0.83,0.17
			c0.37,1.1,1.29,1.38,2.24,1.88c-0.17,0.18-0.51,0.07-0.83,0.18c0.26,0.67,1.1,1.43,2.06,1.49c-0.22,0.25-0.54,0.34-0.9,0.52
			c1,0.67,2.24,0.91,3.55,1.36c0.48,0.24,0.22,0.84,0.53,1.28C115.41,39.92,115.53,40.44,115.7,40.31"/>
		<path class="st7" d="M128.41,62.29c0.23-0.37,0.95,0.01,1.12-0.15c0.04-0.58-0.72-0.47-0.85-0.28
			C128.52,62.05,128.47,62.18,128.41,62.29"/>
		<polyline class="st8" points="122.65,30.47 122.65,30.51 122.67,30.51 122.65,30.47 		"/>
		<path class="st9" d="M112.28,28.15c-0.37,0.3-0.24,1.01-0.6,1.38c-0.35-0.26-0.41-1.02-0.73-1.47c-0.21,0.56,0.22,1.82-0.41,2.01
			c-0.05-0.41-0.27-0.71-0.43-1.1c-0.37,0.3-0.12,1.03-0.37,1.38c-0.31-0.28-0.56-0.52-1.09-0.47c0,0.74,0.94,0.86,1,1.49
			c-0.34,0.3-0.78,0.13-0.9,0.41c0.21,0.58,1.11,0.45,1.36,0.8c-0.18,0.33-0.63,0.45-0.83,0.63c0.36,0.91,1.5,0.78,1.99,1.53
			c-0.15,0.35-0.49,0.35-0.63,0.35c0.1,0.45,0.73,0.99,1.26,1.04c0.12,0,0.26-0.02,0.37-0.04c0.17-0.04,0.3-0.06,0.41,0.04
			c-0.14,0.17-0.24,0.34-0.41,0.5c-0.12,0.11-0.25,0.22-0.44,0.3c0.05,0.08,0.22,0.15,0.44,0.26c0.53,0.22,1.35,0.52,1.87,0.65
			c0.1,0.02,0.19,0.04,0.27,0.04c0.41-0.61-0.27-1.81,0.15-2.79c-0.32,0.17-0.15,0.93-0.42,1.08c-0.05,0.04-0.12,0.04-0.22,0
			c-0.08-1.02-0.02-2.01,0.22-3.11l0.05-0.15l-0.05,0.02c-0.26,0.15-0.24,0.67-0.41,0.95c-0.49-0.5,0.05-1.72,0.27-2.46
			c0.05-0.09,0.1-0.2,0.14-0.28l0.05-0.07h-0.05c-0.49,0-0.75-0.34-0.94-0.95c0-0.24-0.07-0.3-0.07-0.6c-0.14,0.13,0,0.46-0.31,0.63
			c-0.32-0.17-0.49-0.54-0.56-0.97c-0.04-0.26-0.04-0.56,0-0.86l0.05-0.23L112.28,28.15"/>
		<path class="st9" d="M109.49,38.53c-0.08,0.11-0.19,0.24-0.25,0.26c-0.24,0.08-0.54-0.02-0.53,0.09c0.09,0.79,0.63,1.32,0.79,2.09
			l0.05,0.18h0.73c-1.19-1.38-0.14-2.46-0.47-2.75C109.71,38.32,109.61,38.41,109.49,38.53"/>
		<path class="st9" d="M126.32,36.94c-0.24-0.06-0.48-0.13-0.73-0.28c0.05,0.41,0.34,0.73,0.73,0.99c0.37,0.22,0.83,0.39,1.29,0.52
			c0.75,0.17,1.51,0.22,1.97,0.15l0.07-0.02l-0.07-0.06c-0.46-0.59-1.24-0.72-1.97-1.04l-0.1-0.06
			C127.04,37.07,126.68,37.04,126.32,36.94"/>
		<path class="st9" d="M127.52,35.71l-0.27-0.11c0.06,0.13,0.17,0.24,0.27,0.34c0.37,0.32,0.88,0.52,1.41,0.52
			c0.15,0.3-0.05,0.43-0.3,0.49c0.24,0.04,0.54,0.07,0.87,0.09c0.41,0.02,0.83,0.02,1.23-0.02c0.29-0.04,0.54-0.09,0.75-0.17
			c0.11-0.04,0.2-0.09,0.3-0.15c-0.1-0.04-0.2-0.09-0.3-0.13c-0.24-0.09-0.48-0.19-0.75-0.24c-0.39-0.11-0.8-0.19-1.23-0.24
			C128.83,35.99,128.16,35.9,127.52,35.71"/>
		<path class="st9" d="M130.72,33.38c-0.26,0.21-0.54,0.37-0.9,0.58c0.29,0,0.6,0,0.9-0.02c0.25-0.04,0.51-0.06,0.75-0.09
			c0.17-0.02,0.32-0.04,0.48-0.07c0.15-0.02,0.3-0.06,0.44-0.08c0.7-0.15,1.4-0.35,2.04-0.59c0.27-0.09,0.53-0.19,0.78-0.3
			c-0.26-0.07-0.51-0.13-0.78-0.19c-0.64-0.11-1.34-0.13-2.04-0.04c-0.13,0.02-0.29,0.04-0.44,0.06c-0.15,0.04-0.31,0.08-0.48,0.11
			l-0.19,0.06C131.09,33.07,130.92,33.24,130.72,33.38"/>
		<path class="st9" d="M130.72,32.06c-0.14,0.06-0.27,0.09-0.41,0.11h0.41c0.27,0,0.51-0.02,0.75-0.02
			c0.17-0.02,0.32-0.04,0.48-0.06c0.15-0.02,0.3-0.02,0.44-0.06c0.7-0.09,1.35-0.24,2.04-0.49c0.39-0.11,0.78-0.26,1.21-0.43
			c-0.34-0.04-0.77-0.15-1.21-0.24c-0.73-0.19-1.53-0.31-2.02-0.03v-0.01l-0.01,0.01l-0.01,0v0.01c-0.13,0.2-0.28,0.37-0.44,0.52
			c-0.14,0.13-0.31,0.24-0.48,0.33C131.24,31.88,130.99,31.99,130.72,32.06"/>
		<path class="st9" d="M129.49,37.39h-0.09l0.09,0.13c0.32,0.32,0.77,0.39,1.23,0.47c0.25,0.04,0.51,0.08,0.75,0.13
			c0.1,0.02,0.2,0.06,0.3,0.08l0.17-0.02c0.15,0,0.3-0.02,0.44-0.04c0.66-0.06,1.36-0.09,2.04-0.21c0.44-0.06,0.88-0.13,1.29-0.24
			c0.56-0.15,1.09-0.36,1.6-0.65c-0.57,0.04-1.08,0-1.6-0.07c-0.43-0.06-0.85-0.15-1.29-0.26c-0.66-0.17-1.34-0.35-2.04-0.52
			c-0.13-0.04-0.29-0.07-0.44-0.09c-0.09-0.02-0.19-0.06-0.29-0.07c0.08,0.07,0.19,0.15,0.29,0.2c0.19,0.11,0.37,0.24,0.44,0.47
			l0.05,0.15l-0.05,0.02c-0.13,0.06-0.29,0.11-0.44,0.15c-0.15,0.06-0.31,0.09-0.48,0.13c-0.24,0.08-0.5,0.11-0.75,0.17
			C130.29,37.35,129.88,37.39,129.49,37.39"/>
		<path class="st9" d="M130.72,30.74h0.75c0.17,0,0.32,0,0.48-0.02c0.12,0,0.22-0.02,0.34-0.04c-0.1-0.02-0.22-0.02-0.34-0.04
			c-0.14-0.02-0.31-0.02-0.48-0.04c-0.24,0-0.49-0.02-0.75-0.04c-0.16,0-0.32-0.02-0.48-0.06
			C130.31,30.68,130.49,30.57,130.72,30.74"/>
		<path class="st9" d="M131.94,26.34l-0.17,0.09l0.17,0.19c0.13,0.09,0.29,0.17,0.44,0.22c0.33,0.11,0.68,0.15,0.88,0.11
			c0.22,0,0.26,0.33,0.07,0.41c-0.27,0.28-0.53,0.28-0.78,0.56c0.6-0.13,1.25-0.39,1.87-0.73c0.46-0.22,0.88-0.49,1.29-0.74
			c0.32-0.2,0.63-0.43,0.92-0.63c-0.3-0.02-0.6-0.06-0.92-0.06c-0.41-0.04-0.85-0.04-1.29,0c-0.7,0.04-1.38,0.15-2.04,0.39
			C132.24,26.21,132.09,26.28,131.94,26.34"/>
		<path class="st9" d="M132.38,25.6l-0.05,0.09l0.05-0.02c0.77-0.35,1.43-0.8,2.04-1.31c0.46-0.37,0.88-0.76,1.29-1.17
			c0.27-0.26,0.53-0.54,0.8-0.82c-0.27-0.06-0.53-0.09-0.8-0.07c-0.44,0.02-0.87,0.15-1.29,0.35c-0.73,0.35-1.43,0.91-2.04,1.42
			c-0.12,0.11-0.23,0.2-0.36,0.3c0.12,0.08,0.24,0.08,0.36,0.04c0.29-0.09,0.58-0.34,0.85-0.15
			C133.06,24.87,132.74,25.09,132.38,25.6"/>
		<path class="st9" d="M131.46,34.32c-0.24,0-0.49,0-0.75-0.02c-0.41,0-0.82,0.02-1.23,0c-0.32-0.02-0.63-0.05-0.94-0.11
			c0.2,0.26,0.58,0.34,0.94,0.32c0.45,0,0.88-0.09,1.11-0.07c-0.04,0.45-0.63,0.5-0.63,0.95c0.22-0.02,0.5-0.03,0.75-0.06
			c0.25-0.04,0.51-0.07,0.75-0.11c0.17-0.04,0.32-0.08,0.48-0.13c0.15-0.04,0.3-0.09,0.44-0.15c0.24-0.11,0.44-0.24,0.63-0.41
			c-0.21-0.04-0.41-0.09-0.63-0.11c-0.13-0.02-0.29-0.03-0.44-0.06C131.79,34.33,131.63,34.33,131.46,34.32"/>
		<path class="st9" d="M134.42,31.95c-0.27,0.09-0.54,0.17-0.79,0.17c0.28,0,0.53,0.04,0.79,0.09c0.44,0.05,0.85,0.16,1.29,0.24
			h0.13c-0.04,0.13-0.07,0.22-0.13,0.3c-0.27,0.41-0.94,0.45-1.24,0.69c0.41-0.02,0.83-0.07,1.24-0.17c2.25-0.5,4.24-1.92,5.51-3.74
			c-1.56,0.63-3.77,0.6-4.97,1.39c-0.17,0.13-0.36,0.26-0.54,0.37C135.3,31.56,134.86,31.8,134.42,31.95"/>
		<path class="st7" d="M132.81,64.89c0-0.58,0.58-1.51,0.46-1.73c-0.36-0.24-0.61,0.69-0.56,1.08
			C132.7,64.52,132.74,64.71,132.81,64.89"/>
		<path class="st9" d="M134.42,30.12c-0.24,0.09-0.48,0.17-0.68,0.22c0.13,0.08,0.39,0.11,0.68,0.15c0.44,0.06,0.97,0.11,1.29,0.19
			l0.19,0.04c0.65-0.3,0.95-0.5,1.92-0.76c2.91-2.81,5.27-4.08,6.48-6.56c-1.31,0.69-2.57,1.38-3.64,1.69
			c-1.26,1.04-2.64,1.94-4.95,3.34c-0.09,0.07-0.19,0.13-0.29,0.18l0.29,0.08c0.29,0.06,0.54,0.09,0.7,0.39
			c-0.21,0.21-0.44,0.37-0.7,0.5C135.3,29.81,134.86,29.97,134.42,30.12"/>
		<path class="st9" d="M131.46,35.47l-0.29,0.07c0.08,0.04,0.18,0.06,0.29,0.08c0.17,0.02,0.32,0.02,0.48,0.04
			c0.15,0.02,0.3,0.04,0.44,0.08l0.22,0.06c0.54,0.04,1.18,0.04,1.82-0.02c0.42-0.02,0.87-0.08,1.29-0.15
			c1.68-0.24,3.4-0.8,4.52-1.79c-1.53,0.2-2.99,0.32-4.52,0.28c-0.41-0.02-0.85-0.04-1.29-0.09c-0.36-0.02-0.71-0.07-1.09-0.13
			c-0.37,0.11-0.6,0.11-0.85,0.11c0.42,0.07,0.85,0.13,1.15,0.45c-0.3,0.41-0.75,0.61-1.26,0.78c-0.13,0.04-0.29,0.09-0.44,0.13
			C131.79,35.4,131.63,35.43,131.46,35.47"/>
		<path class="st9" d="M134.42,27.55c-0.46,0.22-0.94,0.43-1.41,0.59c0.44,0.13,0.85,0,1.29,0.28l0.12-0.04
			c0.44-0.13,0.87-0.3,1.29-0.49c4.25-1.94,8.55-6.89,10.42-10.94c-3.03,3.06-6.15,5.79-9.42,8.49c0.18,0.19,0.48-0.28,0.48,0.19
			c-0.44,0.45-0.94,0.84-1.48,1.17C135.3,27.09,134.88,27.33,134.42,27.55"/>
		<path class="st9" d="M134.42,24.76c-0.27,0.22-0.56,0.45-0.82,0.65c0.27,0.04,0.56,0.05,0.82,0.04c0.46-0.02,0.88-0.09,1.29-0.21
			c2.77-0.76,4.71-3.54,6.62-5.68c0.99-1.83,2.18-3.32,2.62-5.52c-2.57,3.19-5.97,5.13-9.23,7.53c-0.15,0.11-0.3,0.22-0.44,0.34
			c0.14,0,0.29,0,0.44,0.02c0.47,0.02,1,0.09,1.43-0.13c-0.3,0.67-0.81,1.29-1.43,1.85C135.32,24.03,134.86,24.4,134.42,24.76"/>
		<path class="st9" d="M131.46,29.69c-0.29,0.21-0.55,0.37-0.6,0.43c0.19,0.03,0.39,0.05,0.6,0.07h0.48c0.15,0,0.3,0,0.44-0.02
			c0.7-0.04,1.38-0.19,2.04-0.39c0.46-0.13,0.88-0.31,1.29-0.5l0.13-0.07l-0.13-0.04c-0.41-0.15-0.83-0.26-1.29-0.36
			c-0.66-0.13-1.34-0.22-2.04-0.26c-0.13,0-0.29,0-0.44-0.02h-0.48c-0.24,0-0.49,0-0.75,0.02h-0.22l0.22,0.21
			c0.22,0.13,0.49,0.24,0.75,0.28c0.17,0.02,0.34,0,0.48-0.06l0.24-0.15c0.18,0.11,0.03,0.31-0.24,0.52
			C131.8,29.47,131.63,29.6,131.46,29.69"/>
		<path class="st9" d="M130.72,59.13c-0.09-0.09-0.17-0.19-0.27-0.28c-0.14,0.3-0.14,0.99-0.68,0.87c0.22,0.26,0.61,0.21,0.95,0.24
			c0.2,0.02,0.39,0.08,0.52,0.24l0.22-0.02l0.18-0.19l-0.18-0.07C131.17,59.77,130.99,59.43,130.72,59.13"/>
		<path class="st7" d="M129.81,59.28c0.37,0.06,0.36-0.52,0.15-0.67c-0.2-0.21-0.62-0.19-0.97-0.06
			C129.45,58.87,129.71,59.11,129.81,59.28"/>
		<path class="st9" d="M127.52,38.58c-0.21-0.06-0.39-0.15-0.58-0.28c0.15,0.22,0.36,0.37,0.58,0.48c0.56,0.3,1.27,0.41,1.97,0.54
			c0.19,0.04,0.36,0.07,0.54,0.11h0.68c0.25,0,0.51-0.02,0.75-0.04c0.17-0.02,0.32-0.02,0.48-0.04c0.15-0.02,0.3-0.04,0.44-0.07
			c0.46-0.08,0.88-0.19,1.31-0.36c-0.43-0.06-0.87-0.11-1.31-0.15c-0.13-0.02-0.29-0.02-0.44-0.03c-0.15-0.02-0.31-0.04-0.48-0.06
			c-0.24-0.04-0.49-0.08-0.75-0.13c-0.17-0.04-0.36-0.07-0.53-0.13c-0.22,0.07-0.44,0.15-0.7,0.2
			C128.87,38.77,128.16,38.79,127.52,38.58"/>
		<path class="st7" d="M116.02,59.04c0.31-0.19,0.48-0.88,0.48-1.32c-0.12-0.6-0.63-0.58-0.78-0.17
			C115.75,58.07,116.19,58.29,116.02,59.04"/>
		<path class="st9" d="M126.22,39.07c0.27,0.04,0.51,0.02,0.72-0.07c-0.29-0.1-0.49-0.32-0.72-0.52c-0.37-0.39-0.75-0.8-1.46-0.62
			c-0.22-0.06-0.43-0.13-0.65-0.2c-0.31-0.11-0.61-0.26-0.77-0.5c0.13,0.28,0.43,0.59,0.77,0.89
			C124.73,38.55,125.54,39,126.22,39.07"/>
		<path class="st10" d="M120.06,20.94c0.26-0.06,0.41-0.19,0.63-0.33c-0.12-0.19-0.37-0.19-0.63-0.19
			C120.14,20.6,120.14,20.7,120.06,20.94"/>
		<path class="st7" d="M112.06,59.04c0-0.54,0.56-0.88,0.53-1.29c-0.37-0.26-0.63-0.11-0.74,0.08
			C111.68,58.35,111.79,58.69,112.06,59.04"/>
		<path class="st9" d="M112.11,50.88c-0.1,0.24,0.1,0.65-0.21,0.74c-0.36,0.19-0.78,0-0.85,0.24c0.37,0.22,0.83,0.35,1.22,0.63
			c0.22,0.13,0.41,0.32,0.56,0.56c0.12,0.08,0.27,0.13,0.27,0.13c0.11,0,0.21,0,0.36-0.05c-0.41-0.3-0.93-0.54-0.93-1.27
			c-0.12-0.41,0.15-0.75-0.07-0.91l-0.19-0.06L112.11,50.88"/>
		<path class="st7" d="M111.33,51.29h0.3c-0.08-0.17,0.12-0.52-0.2-0.52c-0.48-0.04-0.99-0.04-1.21,0.11
			C110.65,50.77,110.9,51.05,111.33,51.29"/>
		<path class="st7" d="M136.67,62.88c0.15-0.24,0.36-0.76,0.25-1.1c-0.08-0.34-0.63-0.52-0.64,0
			C136.33,62.15,136.6,62.3,136.67,62.88"/>
		<path class="st9" d="M112.28,56.17c-0.08,0.22-0.24,0.41-0.37,0.52c-0.32,0-0.41,0.21-0.36,0.45c0.19,0.09,0.48-0.02,0.73-0.06
			c0.22-0.04,0.42-0.02,0.53,0.19c0.16,0.22,0.16,0.49,0.34,0.56c0.59-0.19-0.25-1.55,0.22-2c0.33-0.13,0.51,0.1,0.78,0.17
			c0.12,0.04,0.25,0.04,0.42-0.02c0.51,0.36,0,1.16,0.36,1.45c0.49-0.54,0.93-0.59,1.62-0.37c-0.56-0.56-1.29-1.17-1.5-2.22
			c1.09-0.97,3.03-1.55,4.34-0.97c0.41,0.11,0.53,0.69,0.89,0.69c0.04-0.19,0.07-0.43,0.1-0.69c0.1-0.58,0.24-1.21,0.68-1.49
			c0.37-0.11,0.43,0.09,0.65,0.09c0.18-0.63,0.46-1.47,0.95-2.03c0.31-0.34,0.67-0.58,1.14-0.63c0.15,0.06,0.05,0.28,0.08,0.5
			l0.24-0.2c0.58-0.45,1.34-0.8,2.11-1.04l0.24-0.08c0.25,0.22-0.09,0.52-0.16,0.88c0.27-0.3,0.75-0.45,1.21-0.62
			c0.34-0.11,0.66-0.22,0.88-0.43c-0.05-1.1,0.22-2.12-0.15-2.95c-0.24-0.06-0.48-0.11-0.73-0.17c-0.43-0.09-0.85-0.19-1.3-0.26
			c-0.69-0.11-1.39-0.2-2.11-0.22c-0.48-0.02-0.97,0-1.47,0.04c-0.77,0.09-1.53,0.26-2.28,0.56c-0.48,0.2-0.95,0.45-1.41,0.75
			c-0.15,0-0.24,0-0.36,0.07c0.04,0.39,0.56,0,0.75,0.34c-0.27,0.41-0.9,0.58-1.23,0.99c-0.3,0.11-0.53,0.11-0.73,0.2
			c0.05,0.3,0.63,0.19,0.79,0.08c0.05,0.74-0.41,2.01-0.51,3.09c-0.28,1.1-1.33,1.55-2.21,1.66c-0.45,0.08-0.87,0.19-1.31,0.32
			c-0.63,0.2-1.26,0.43-1.87,0.54c-0.73,0.11-1.45,0.04-2.06-0.56c-0.22-0.24-0.48-0.17-0.56-0.41c-0.44,0.52,0.51,0.86,0.15,1.6
			c-0.15,0.07-0.37,0.29-0.27,0.49c0.7,0.28,1.89-0.54,2.74-0.04l0.08,0.04C112.48,55.43,112.43,55.83,112.28,56.17"/>
		<path class="st7" d="M112.77,46.82c0.36-0.35,0.51-1.01,0.45-1.3c-0.21-0.52-0.83-0.52-0.76-0.06
			C112.6,45.87,112.67,46.22,112.77,46.82"/>
		<path class="st9" d="M109.49,41.58c-1.02-0.07-1.94-0.39-2.52-1.45c-0.19-0.33-0.71-0.03-0.82,0.17c0.24,0.19,0.56,0.53,0.31,0.86
			c-0.17,0.28-0.32,0.36-0.39,0.52c0.34,0.23,0.71-0.45,1-0.07c0.42,0.99,1.36,0.3,1.96,0.69c-0.33,0.93-1.63,1.1-2.16,1.6
			c0.2,0,0.7-0.07,0.75,0.3c0.03,0.35-0.12,0.24,0.03,0.62c0.7-0.3,1.01-1.51,1.84-1.68l0.17-0.02c0.43,0.75,1.52,0.63,1.72,1.43
			c0.05,0.43,0.05,0.78,0.3,0.97c0.56,0.02,0.44-0.71,0.85-0.74c0.17-0.02,0.53,0.18,0.57,0.05c-0.27-0.46-1.21-0.56-1.33-1.38
			c0-0.45,0.31-0.67,0.55-0.69c0.51-0.04,0.71,0.06,1.07,0.09c0.12-0.52,0.22-0.87,0.7-1.17C112.79,41.21,111.02,41.67,109.49,41.58
			"/>
		<path class="st7" d="M106.46,45.72c0-0.56,0.83-0.61,0.78-1.17c-0.27-0.24-0.73-0.06-0.68,0.17
			C106.35,45.1,106.41,45.38,106.46,45.72"/>
		<path class="st7" d="M106.51,28.39c0.33,0,0.73,0.04,0.89-0.24c0.22-0.33-0.05-0.39-0.05-0.58
			C107.24,28.06,106.66,28.15,106.51,28.39"/>
		<path class="st9" d="M109.49,18.81c-0.07,0.06-0.17,0.09-0.31,0.08c-0.22-0.06-0.68-0.3-0.68,0.06c0.03,0.69,0.56,1.06,0.41,1.81
			c-0.03,0.24,0.12,0.35,0.17,0.52c-0.48,0.36-1.43-0.29-1.84,0.24c0.51,0.52-0.27,0.97-0.12,1.55c0.63,0,1.27-0.8,1.91-0.17
			c0.29,0.45-0.15,0.56-0.33,0.74c-1,0.56-0.27,2.12-1.24,2.79c-0.34,0.19-0.49,0.36-0.49,0.64c0.22,0,0.33-0.28,0.6-0.17
			c0.25,0.3,0.3,0.8,0.53,0.91c0.3-0.91,0.25-2.4,1.19-2.85c0.09,0.11,0.15,0.2,0.21,0.33c0.44,0.93-0.15,2.48,0.25,3.5
			c0.07-0.13,0.07-0.41,0.22-0.41c0.3,0.17,0.15,0.58,0.58,0.63c0.1-0.46,0-1.1,0.24-1.45c0.44,0.19,0.49,0.65,0.76,0.99
			c-0.68-2.35-2.18-5.25-0.56-7.44c0.53-0.71,1.7-0.32,2.02-1.04c-0.17-0.45-0.95-0.06-1-0.52c-0.05-0.22-0.11-0.39-0.11-0.52
			c-0.58,0.06-0.58,1.21-1.41,1.21c-0.32,0.05-0.32,0.8-0.63,0.56c-0.27-0.39-0.16-0.97,0.1-1.3c0.15-0.3,0.47-0.91,0.15-0.99
			C109.75,18.44,109.68,18.68,109.49,18.81"/>
		<path class="st7" d="M113.01,19.39c0.21-0.3,0.05-0.99-0.17-1.29c-0.15,0.3-0.42,0.48-0.51,1.06
			C112.23,19.5,112.73,19.62,113.01,19.39"/>
		<path class="st8" d="M115.05,38.01c0-0.04,0.04-0.15,0.04-0.26C115.08,37.8,115.05,37.89,115.05,38.01"/>
		<path class="st10" d="M119.39,20.98h0.31c-0.41,0-0.31-0.73-0.46-0.73c-0.15-0.06-0.22-0.06-0.27-0.13
			C118.96,20.49,119.08,20.75,119.39,20.98"/>
		<path class="st9" d="M122.65,17.49c-0.25,0.32-0.51,0.71-0.75,1.16c0.18,0.09,0.46,0.15,0.75,0.24c0.26,0.06,0.53,0.13,0.82,0.22
			c0.21-0.19,0.43-0.47,0.65-0.76c0.42-0.54,0.88-1.14,1.43-1.47c0.27-0.58,0.54-0.91,0.68-1.51l0.05-0.17l-0.05,0.02
			c-0.82,0.35-1.5,0.63-2.11,0.99C123.59,16.54,123.11,16.93,122.65,17.49"/>
		<path class="st9" d="M120.37,18.68c-1-0.19-2.01-0.26-2.98,0.08c0.49,1.1,1.87,1.01,2.98,1.23c0.29,0.07,0.56,0.15,0.8,0.26
			c0.53,0.07,1.04-0.04,1.48-0.3c0.26-0.15,0.5-0.35,0.7-0.61c-0.24-0.02-0.46-0.07-0.7-0.13
			C121.92,19.06,121.15,18.83,120.37,18.68"/>
		<path class="st9" d="M122.65,31.8l-0.01,0.04c-0.1-0.34-0.07-0.76-0.26-1.15c-0.17,0.33-0.37,1.1-0.12,1.49
			c0.05,0.25,0.22,0.33,0.39,0.38c0.26,0.06,0.54,0.04,0.61,0.19c-0.17,0.19-0.26,0.54-0.6,0.65c0,0.17,0.37,0,0.37,0.34
			c0,0.28-0.1,0.35-0.22,0.41c0.52-0.17,0.63,0.32,0.9,0.74c0.12-0.06,0.26-0.15,0.39-0.24c0.63-0.41,1.29-0.97,2.11-1.08
			c0.12-0.02,0.22-0.04,0.34-0.04c0.25-0.15,0.63-0.45,0.95-1.08c0.34-0.63,0.64-1.58,0.82-3.03c0.14-1.21,0.56-2.25,1.15-3.17
			c0.36-0.54,0.79-1.03,1.23-1.47c0.25-0.24,0.49-0.47,0.75-0.69c0.17-0.13,0.32-0.26,0.48-0.39c0.15-0.11,0.3-0.22,0.44-0.34
			c0.68-0.5,1.4-0.97,2.04-1.4c0.46-0.3,0.9-0.6,1.29-0.87c0.1-0.06,0.19-0.11,0.27-0.19c1.33-0.99,2.06-2.24,2.84-3.67
			c-0.88,1.14-1.91,2.33-3.11,3.37c-0.41,0.37-0.83,0.73-1.29,1.04c-0.41,0.3-0.85,0.6-1.29,0.84c0.37-0.35,0.82-0.84,1.29-1.38
			c0.42-0.48,0.87-1.01,1.29-1.56c1.48-1.88,2.94-4.1,3.57-5.8c-1.24,1.19-2.38,2.61-3.57,3.99c-0.41,0.48-0.85,0.97-1.29,1.42
			c-0.63,0.67-1.31,1.3-2.04,1.83c-0.13,0.11-0.29,0.2-0.44,0.3c-0.15,0.11-0.31,0.21-0.48,0.3c-0.24,0.15-0.48,0.28-0.75,0.39
			c-0.1,0.06-0.22,0.11-0.34,0.15c0.12-0.07,0.24-0.17,0.34-0.24c0.27-0.2,0.52-0.41,0.75-0.63c0.17-0.17,0.34-0.32,0.48-0.49
			c0.17-0.17,0.3-0.35,0.44-0.54c0.56-0.71,0.99-1.55,1.31-2.53c-0.37,0.58-0.82,1.06-1.31,1.49c-0.13,0.13-0.29,0.24-0.44,0.37
			c-0.15,0.11-0.31,0.22-0.48,0.35c-0.24,0.17-0.49,0.34-0.75,0.48c-0.39,0.26-0.8,0.5-1.23,0.74c-0.68,0.41-1.35,0.84-1.97,1.33
			c-0.46,0.37-0.9,0.8-1.3,1.28c-0.25,0.34-0.5,0.71-0.68,1.12c-0.05,0.69-0.16,1.43-0.65,1.68c-0.43,0.63-0.36,1.66-0.78,2.31
			c-0.1,0.15-0.22,0.3-0.39,0.39c-0.2-0.13-0.05-0.37-0.27-0.49C123.21,29.64,123.21,30.98,122.65,31.8"/>
		<path class="st9" d="M127.52,36.76c0.17,0,0.34-0.02,0.51-0.06c-0.19-0.06-0.34-0.13-0.51-0.22c-0.56-0.34-1.02-0.87-1.21-1.55
			c0.33,0,0.77,0.17,1.21,0.32c0.68,0.2,1.41,0.41,1.97,0.06c0.14-0.08,0.25-0.17,0.37-0.32c-0.12-0.02-0.24-0.02-0.37-0.04
			c-0.58-0.06-1.27-0.09-1.6-0.76c0.27-0.37,0.95-0.39,1.6-0.52c0.47-0.08,0.93-0.22,1.23-0.58l0.1-0.11l-0.1,0.02
			c-0.43,0.08-0.85,0-1.23-0.2c-0.22-0.13-0.43-0.3-0.56-0.5c-0.12-0.17-0.12-0.34-0.12-0.45c0.22,0,0.45-0.02,0.68-0.02
			c0.41-0.04,0.83-0.07,1.23-0.19c0.27-0.07,0.51-0.19,0.75-0.33l0.24-0.17l-0.24,0.04c-0.24,0.04-0.49,0.02-0.75-0.02
			c-0.48-0.07-0.92-0.28-1.23-0.6l-0.13-0.2c-0.17-0.32-0.05-0.52,0.13-0.54l0.19,0.02c0.39,0,0.75,0.02,1.04-0.09
			c0.17-0.07,0.32-0.17,0.46-0.32c-0.15-0.04-0.31-0.09-0.46-0.17c-0.39-0.17-0.73-0.41-0.95-0.82c-0.17-0.5,0.37-0.62,0.54-0.37
			c0.14,0.02,0.27,0.02,0.41,0.02c0.27,0,0.52-0.04,0.75-0.09c0.17-0.02,0.32-0.07,0.48-0.13c0.15-0.06,0.3-0.13,0.44-0.22
			c0.12-0.06,0.22-0.13,0.33-0.2c-0.12-0.02-0.22-0.06-0.33-0.09c-0.13-0.06-0.29-0.11-0.44-0.17c-0.15-0.07-0.31-0.13-0.48-0.15
			c-0.22-0.06-0.48-0.04-0.75,0.08l-0.07,0.04c-0.05,0-0.15-0.17-0.15-0.34l0.22-0.19c0.25-0.2,0.51-0.39,0.75-0.6
			c0.17-0.15,0.34-0.28,0.48-0.43c0.17-0.15,0.32-0.32,0.44-0.49c0.1-0.11,0.19-0.24,0.27-0.37c-0.1,0.02-0.19,0.02-0.27,0.04
			c-0.13,0.02-0.29,0.04-0.44,0.08c-0.15,0.04-0.31,0.09-0.48,0.17c-0.25,0.11-0.51,0.26-0.75,0.43c-0.5,0.37-0.9,0.87-1.23,1.47
			c-0.08,0.17-0.15,0.35-0.22,0.52c-0.79,1.95-0.64,4.34-1.75,5.7c-0.24,0.32-0.56,0.58-0.95,0.76c-0.12,0-0.23,0.02-0.34,0.02
			c-0.95,0.11-1.41,0.91-2.11,1.27c-0.16,0.07-0.34,0.15-0.55,0.15c-0.36-0.17-0.31-0.89-0.75-0.74l-0.17,0.11
			c-0.42,0.32-0.77,0.65-0.7,1.1c-0.1,1.12,0.04,1.98,0.7,2.51c0.09,0.06,0.19,0.13,0.29,0.17c0.27-0.5-0.2-1.43,0.07-1.81
			c0.34,0.19,0.71,0.39,1.11,0.56c0.42,0.19,0.88,0.32,1.38,0.34c-0.26-0.28-0.41-0.86-0.53-1.42c0.36,0.11,0.79,0.28,1.25,0.41
			C126.65,36.67,127.09,36.76,127.52,36.76"/>
		<polyline class="st8" points="128.41,62.29 128.4,62.3 128.41,62.29 		"/>
		<path class="st7" d="M107.98,54.68c0.27-0.56,1.21-0.18,1.46-0.52c-0.12-0.24-0.15-0.64-0.35-0.69c-0.58,0.11-0.9,0.58-1.11,0.97
			V54.68z"/>
		<path class="st7" d="M104.81,41.67c0.51-0.45,1.07-0.11,1.24-0.56c0.02-0.46-0.32-0.59-0.6-0.46
			C105.04,40.82,104.88,41.23,104.81,41.67"/>
		<path class="st7" d="M108.98,38.43c0.19-0.06,0.46-0.3,0.31-0.47c-0.2-0.26-0.63-0.65-0.95-0.65
			C108.62,37.67,108.72,38.42,108.98,38.43"/>
		<path class="st7" d="M106.72,22.49c0.26,0.02,0.36-0.28,0.12-0.52c-0.48-0.36-1.12-0.17-1.5-0.08
			C105.8,22.07,106.26,22.13,106.72,22.49"/>
		<path class="st7" d="M109.06,18.33c0.14,0.28,0.68,0.11,0.41-0.41c-0.34-0.45-0.77-0.88-1.23-0.88
			C108.7,17.25,108.79,17.81,109.06,18.33"/>
		<path class="st11" d="M126.19,17.79c0.42-0.26,0.87-0.43,1.24-0.54c-0.36,0.6-0.78,0.93-1.09,1.71c-0.05,0.09-0.1,0.19-0.15,0.28
			c-0.33,0.63-0.83,1.25-1.52,1.17c-0.37-0.04-0.25-0.61-0.05-1.02C124.98,18.68,125.58,18.14,126.19,17.79 M122.62,20.31
			l-0.23,0.22c-0.85-0.02-1.38,0.49-2.01,0.76c-0.34,0.17-0.73,0.24-1.21,0.11c-0.46-0.13-0.56-0.88-0.66-1.32
			c-0.54,0.11-0.8-0.28-1.17-0.52c-0.87-0.22-1.96,0.2-2.06,0.74c-0.1,0.47,0.05,1.04,0.42,1.3c-0.03-0.3,0.17-0.73,0.58-0.75
			c1.33,0,2.08,2.82,4.1,2.56l0.1-0.02c0.04,0.15-0.02,0.24-0.1,0.3c-0.07,0.06-0.19,0.06-0.31,0.06c-0.98-0.3-2.34,0.58-3.38,0.13
			c0.63,1.01,2.33,1.01,3.69,0.93c0.47-0.04,0.92-0.07,1.26-0.09c-0.38,0.41-0.77,0.5-1.26,0.5c-0.12,0-0.27-0.02-0.41-0.04
			c-0.8,0.05-1.84,0.09-2.19,0.91c0.05,0,0.36,0,0.26,0.41c-0.36,0.78-1.36,1.02-2.09,1.42c0.1,0.22,0.46,0.06,0.53,0.3
			c-0.47,0.58-1.48,0.69-1.48,1.43c0.17,0,0.48-0.39,0.78-0.13c-0.38,0.8-1.33,1.44-1.62,2.29c-0.07,0.22-0.1,0.47-0.05,0.71
			l0.05-0.02c0.24-0.15,0.39-0.43,0.68-0.28c-0.3,0.74-0.8,1.84-0.53,2.7c0.27-0.24,0.37-0.63,0.74-0.63
			c-0.17,0.99-0.62,1.99-0.17,2.98c0.2-0.24,0.27-0.58,0.58-0.61c0.03,0.78-0.21,1.64,0.12,2.27c0.29-0.22,0.29-0.69,0.68-0.69
			c-0.32,0.51-0.75,1.19-0.32,1.98c0.39-0.23,0.68-0.1,1.19-0.04c-0.08-1.44-0.73-3.24,0.06-4.9c0.32-0.47,0.78-0.84,1.21-0.59
			c-0.05,0.35-0.46,0.05-0.68,0.41c-1.36,1.49-0.58,3.78-0.16,5.42c-0.37,0.13-1.09-0.39-1.41-0.06l0.12,0.19
			c-0.05,0.09,0.09,0.33,0,0.57c-0.68-0.28-1.39-0.45-2.11-0.41c-0.15,0-0.32,0.04-0.48,0.05c0.04,0.34,0.26,0.41,0.48,0.56
			c0.1,0.06,0.19,0.15,0.27,0.24c-0.04,0.21-0.14,0.34-0.27,0.46c-0.2,0.23-0.46,0.47-0.41,0.97c0.13,0.08,0.27,0.08,0.41,0.06
			c0.51-0.11,1.02-0.62,1.46-0.58c-0.26,0.3-0.15,0.74-0.41,0.99c0.78,0.09,1.56-0.5,2.09-0.82c-0.05,0.39-0.07,0.67-0.25,0.97
			c0.95-0.35,1.14-1.06,1.82-1.47c0,0.41-0.14,0.78-0.14,1.08c0.56-0.39,0.92-0.86,1.24-1.66c0.24-0.09,0.34,0.07,0.41,0.24
			c0.07,0.11,0.12,0.22,0.21,0.26c-0.11-0.21,0-0.67-0.15-1.14c0.32-0.8,1.32-1.32,1.36-2.37c0.6,1.12-1.24,1.7-0.87,3
			c0.34,0.62,1.04,1.27,1.65,1.32c-0.15-0.3-0.15-0.41-0.19-0.71l0.27,0.02c0.55,0.09,0.97,0.63,1.47,0.9
			c0.12,0.05,0.22,0.11,0.34,0.13c0.15-0.19-0.07-0.45,0.21-0.67c0.75,0,0.98,0.89,1.56,1.14l0.08,0.02
			c0.26-0.07-0.03-0.37,0.16-0.67c0.12-0.52,0.42,0.17,1.05,0.76c0.24,0.2,0.51,0.39,0.83,0.52c1.06,2.31-0.41,5.83,1.06,8.54
			c0.27,0.95-0.6,1.47-1,1.94c0.41,0.06,0.78-0.17,1.09-0.33c0.17-0.07,0.32-0.15,0.47-0.19c-0.1,0.36-0.15,0.47-0.15,0.88
			c0.15,0.45,0.43,0.9,0.78,0.9c-0.12-0.3-0.05-0.78,0.12-1.16c0.08-0.17,0.18-0.32,0.31-0.43c0.1,0.22,0.25,0.37,0.44,0.48
			c0.15,0.09,0.31,0.19,0.48,0.26c0.15,0.06,0.3,0.13,0.44,0.21c0.14,0.08,0.29,0.15,0.43,0.22c0.46,0.3,0.46,1.1,0.22,1.86
			c-0.15,0.49-0.34,1.03-0.65,1.81c-0.07,0.21-0.17,0.43-0.25,0.65c-0.07,0.11-0.12,0.21-0.19,0.28c-0.14,0.19-0.29,0.32-0.48,0.41
			c-0.22,0.13-0.48,0.19-0.75,0.2c-0.39,0.06-0.82,0.02-1.23,0.08l-0.23,0.02c0.06,0.09,0.15,0.15,0.23,0.22
			c0.08,0.08,0.17,0.17,0.27,0.28c0.17,0.11,0.1,0.63-0.05,1.04c-0.03,0.28,0.15,0.28,0.32,0.28c0.21-0.35,0.27-0.82,0.68-1.02v0.01
			c0.31,0.13,0.52,0.06,0.75-0.07c0.17-0.09,0.32-0.2,0.48-0.3c0.15-0.08,0.29-0.11,0.44-0.11c0.1,0,0.21,0.02,0.33,0.06
			c0.31,0.5-0.1,0.95-0.33,1.34c-0.1,0.19-0.17,0.37-0.05,0.54l0.05-0.11c0.05-0.07,0.1-0.17,0.22-0.3c0.3-0.78,1.26,0.37,1.41-0.45
			c-0.22-0.11-0.27-0.56-0.49-0.91c-0.04-0.5,0.37-0.63,0.65-0.97l0.25-0.09c0.31-0.04,0.68,0.11,0.94,0.32
			c0.53,0.22,0.24,0.69,0.36,1.01l0.08,0.09c0.15-0.13,0.15-0.35,0.31-0.64c0.15-0.41,0.48,0.04,0.66-0.07V61
			c0-0.49-0.68-0.32-1.04-0.71c-0.63-0.71-0.68-1.99-0.46-3.22c0.19-0.21,0.19-0.69,0.44-0.9l0.08-0.06
			c0.41,0.09,0.31,0.58,0.51,0.78c0.21-0.62,0.06-1.36-0.25-2.16c-0.17-0.24,0.08-0.24,0.31-0.3c-0.14-0.54-0.36-1.08-0.65-1.53
			c-0.24-0.37-0.51-0.69-0.82-0.93c0.05-0.45,0.53-0.08,0.68-0.24c-0.27-0.62-1.21-1.01-1-1.64c0.1,0.09,0.22,0.09,0.32,0.09
			c-0.07-0.41-0.27-0.74-0.48-1.1c-0.13-0.24-0.27-0.5-0.31-0.84c0.1-0.08,0.2-0.06,0.31,0c0.17,0.09,0.32,0.26,0.48,0.28
			c-0.06-0.58-0.27-1.17-0.48-1.73c-0.08-0.26-0.15-0.52-0.19-0.78l0.19,0.06c0.11,0.07,0.22,0.17,0.37,0.06
			c-0.07-0.28-0.24-0.5-0.37-0.74c-0.12-0.21-0.21-0.41-0.15-0.67l0.15,0.11c0.53,0.3,0.94,0.73,1.29,1.21
			c0.63,0.84,1.1,1.83,1.74,2.69c1.05,1.83,3.25,1.17,5.08,0.69c0.58-0.19,1.12,0.04,1.31,0.49c0.48-0.56-0.31-1.01-0.52-1.47
			c1.58-3.04-0.95-6.45-0.51-9.99c0.24-2.01,1.77-2.35,2.14-3.69c-0.37,0.24-0.63,0.54-1.05,0.58c0.6-1.6,2.28-3.67,1.41-6.11
			c-0.17-0.43-0.68-0.6-1.24-0.54c-0.34,0.13-0.68,0.54-0.53,0.69c0.28-0.09,0.82-0.07,0.95,0.39c0.7,2.61-1.45,4.45-2.31,6.54
			c-1,2.38-0.73,5.44,0.16,7.73c-0.29-0.09-1.04-0.04-1.04,0.35c1.48,0.52,1.91,1.94,1.04,3.3c-0.63,1.36-2.83,1.96-3.73,0.86
			c-0.85-1.03-2.09-2.78-2.89-3.82c-0.22-0.3-0.41-0.54-0.54-0.69c-0.13-0.11-0.39-0.36-0.75-0.63c-0.51-0.43-1.22-0.97-2.04-1.53
			c-0.14-0.11-0.29-0.21-0.44-0.3c-0.15-0.11-0.31-0.2-0.48-0.32c-0.23-0.15-0.49-0.3-0.75-0.45c-0.39-0.24-0.82-0.47-1.23-0.65
			c-0.64-0.32-1.29-0.56-1.87-0.71l-0.1,0.02c-0.45,0-0.87-0.04-1.3-0.13c-0.75-0.17-1.43-0.5-2.11-0.87
			c-0.27-0.15-0.55-0.32-0.8-0.49c-0.31,0.17,0,0.63-0.16,0.91c-0.2,0-0.36-0.05-0.51-0.13c-0.47-0.28-0.71-0.88-1.05-1.36
			c-0.27-0.17-0.22,0.36-0.5,0.13c1-0.93,0.1-2.59,1.31-3.52c0.25-0.45-0.63-0.45-0.38-0.91c0.22-0.11,0.53,0.13,0.53-0.17
			c-0.26-0.06-0.26-0.28-0.56-0.39c-0.48-0.93,0-1.96,0.25-2.7c0.34-0.05,0.33,0.29,0.37,0.55v0.14c0.59-0.93,0.34-2.16,0.54-3.15
			c0.63-0.17,0.36,0.78,0.66,1.02c0.1-0.15,0.19-0.3,0.24-0.48c0.42-1.12-0.05-2.67,0.44-3.41c0.33,0.33,0.15,0.91,0.46,1.15
			c0,0,0.06-0.07,0.1-0.19c0.48-1.14,0.14-2.68-0.64-3.8c0.61-0.17,1.31-0.28,1.75-0.65c0.12-0.08,0.2-0.19,0.29-0.32
			c-0.04-0.08-0.15-0.13-0.29-0.24l-0.07-0.1l0.07-0.08c0.49-0.46,1.04-0.56,1.29-1.23l0.05-0.11c0-0.09-0.02-0.13-0.05-0.15
			c-0.08-0.06-0.27,0.04-0.27-0.28c0.08-0.09,0.19-0.2,0.27-0.32c0.58-0.65,1.05-1.45,1.46-2.25h-0.3c-0.41,0.07-0.8,0.19-1.16,0.32
			c-0.46,0.17-0.88,0.39-1.29,0.65c-0.79,0.5-1.45,1.16-2.11,1.83c-0.48,0.5-0.95,1.02-1.46,1.53V20.31z"/>
		<path class="st2" d="M51.61,55.34l3.94,1.48c-0.73,2.2-1.84,3.8-3.33,4.81c-1.48,1.01-3.33,1.46-5.52,1.34
			c-2.71-0.15-4.9-1.19-6.55-3.14c-1.65-1.95-2.4-4.53-2.22-7.75c0.18-3.4,1.2-6,3.05-7.79c1.86-1.8,4.22-2.61,7.08-2.46
			c2.51,0.13,4.5,0.98,5.98,2.54c0.88,0.92,1.52,2.22,1.9,3.88L51.8,49c-0.18-1.07-0.64-1.94-1.38-2.59
			c-0.74-0.65-1.65-1.01-2.75-1.07c-1.52-0.08-2.77,0.4-3.77,1.44c-1.01,1.04-1.57,2.78-1.7,5.22c-0.13,2.58,0.23,4.45,1.11,5.6
			c0.87,1.15,2.05,1.76,3.54,1.84c1.1,0.06,2.06-0.24,2.89-0.9C50.56,57.88,51.18,56.82,51.61,55.34"/>
		<path class="st2" d="M63.04,80l0.06-20.48l6.64,0.02c2.52,0.01,4.15,0.12,4.92,0.32c1.17,0.31,2.16,0.98,2.94,2.01
			c0.79,1.03,1.18,2.36,1.18,3.99c-0.01,1.26-0.24,2.31-0.7,3.17c-0.46,0.86-1.04,1.53-1.74,2.01c-0.71,0.49-1.42,0.81-2.15,0.97
			c-0.99,0.19-2.42,0.28-4.29,0.28l-2.7-0.01l-0.02,7.73L63.04,80z M67.23,62.99l-0.02,5.81l2.27,0.01c1.63,0,2.72-0.1,3.27-0.31
			c0.56-0.22,0.98-0.55,1.3-1c0.31-0.46,0.47-0.99,0.47-1.59c0-0.75-0.22-1.36-0.65-1.85c-0.44-0.49-0.99-0.79-1.66-0.91
			c-0.49-0.09-1.49-0.14-2.98-0.15L67.23,62.99z"/>
		<path class="st2" d="M112.27,108.74l4.01,1.26c-0.61,2.24-1.63,3.9-3.05,4.99c-1.43,1.09-3.24,1.64-5.43,1.64
			c-2.72,0.01-4.96-0.92-6.72-2.77c-1.75-1.85-2.64-4.39-2.64-7.62c-0.01-3.41,0.86-6.06,2.62-7.95c1.76-1.89,4.06-2.84,6.94-2.85
			c2.5-0.01,4.54,0.73,6.11,2.21c0.94,0.87,1.64,2.13,2.11,3.77l-4.09,0.99c-0.25-1.06-0.75-1.9-1.53-2.51
			c-0.77-0.61-1.7-0.92-2.8-0.91c-1.52,0-2.75,0.55-3.69,1.64c-0.94,1.09-1.41,2.86-1.4,5.3c0.01,2.59,0.48,4.43,1.41,5.53
			c0.94,1.1,2.15,1.65,3.64,1.64c1.1,0,2.04-0.35,2.83-1.06C111.36,111.34,111.93,110.24,112.27,108.74"/>
		
			<rect x="36.07" y="10.5" transform="matrix(0.9998 -0.018 0.018 0.9998 -0.2573 0.7301)" class="st2" width="8.86" height="8.37"/>
		
			<rect x="46.21" y="19.54" transform="matrix(0.9998 -0.0179 0.0179 0.9998 -0.4174 0.9123)" class="st2" width="8.87" height="8.37"/>
		
			<rect x="56.37" y="28.41" transform="matrix(0.9998 -0.0179 0.0179 0.9998 -0.5751 1.0963)" class="st2" width="8.86" height="8.37"/>
		
			<rect x="66.47" y="37.22" transform="matrix(0.9998 -0.018 0.018 0.9998 -0.7324 1.2804)" class="st2" width="8.86" height="8.38"/>
		
			<rect x="76.61" y="46.19" transform="matrix(0.9998 -0.0181 0.0181 0.9998 -0.899 1.4757)" class="st2" width="8.86" height="8.38"/>
		
			<rect x="86.83" y="55.11" transform="matrix(0.9998 -0.018 0.018 0.9998 -1.0501 1.6486)" class="st2" width="8.86" height="8.38"/>
		
			<rect x="96.99" y="64.12" transform="matrix(0.9998 -0.018 0.018 0.9998 -1.2105 1.8326)" class="st2" width="8.86" height="8.38"/>
		
			<rect x="107.12" y="72.91" transform="matrix(0.9998 -0.0181 0.0181 0.9998 -1.3773 2.0318)" class="st2" width="8.86" height="8.37"/>
		
			<rect x="116.95" y="81.72" transform="matrix(0.9998 -0.0181 0.0181 0.9998 -1.5354 2.2118)" class="st2" width="8.87" height="8.37"/>
		
			<rect x="127.01" y="90.53" transform="matrix(0.9998 -0.018 0.018 0.9998 -1.6863 2.3852)" class="st2" width="8.86" height="8.37"/>
		
			<rect x="136.89" y="99.23" transform="matrix(0.9998 -0.018 0.018 0.9998 -1.8428 2.5666)" class="st2" width="8.86" height="8.37"/>
		
			<rect x="146.96" y="108.07" transform="matrix(0.9998 -0.0179 0.0179 0.9998 -1.9836 2.7258)" class="st2" width="8.86" height="8.38"/>
		
			<rect x="11.03" y="52.31" transform="matrix(0.9998 -0.018 0.018 0.9998 -1.0122 0.2868)" class="st2" width="8.86" height="8.37"/>
		
			<rect x="21.45" y="61.35" transform="matrix(0.9998 -0.0183 0.0183 0.9998 -1.1925 0.4835)" class="st2" width="8.86" height="8.37"/>
		
			<rect x="31.61" y="70.64" transform="matrix(0.9998 -0.0181 0.0181 0.9998 -1.3501 0.6654)" class="st2" width="8.86" height="8.37"/>
		
			<rect x="41.7" y="79.3" transform="matrix(0.9998 -0.0178 0.0178 0.9998 -1.4785 0.8341)" class="st2" width="8.86" height="8.38"/>
		
			<rect x="51.98" y="88.42" transform="matrix(0.9998 -0.0183 0.0183 0.9998 -1.6898 1.0508)" class="st2" width="8.86" height="8.37"/>
		
			<rect x="62.21" y="97.47" transform="matrix(0.9998 -0.018 0.018 0.9998 -1.8211 1.2173)" class="st2" width="8.86" height="8.38"/>
		
			<rect x="72.37" y="106.35" transform="matrix(0.9998 -0.0182 0.0182 0.9998 -1.9993 1.4162)" class="st2" width="8.86" height="8.37"/>
		
			<rect x="82.49" y="115.28" transform="matrix(0.9998 -0.018 0.018 0.9998 -2.1393 1.5861)" class="st2" width="8.86" height="8.38"/>
		
			<rect x="92.33" y="123.94" transform="matrix(0.9998 -0.0179 0.0179 0.9998 -2.2753 1.7503)" class="st2" width="8.86" height="8.38"/>
		
			<rect x="102.38" y="132.47" transform="matrix(0.9998 -0.0182 0.0182 0.9998 -2.4669 1.9645)" class="st2" width="8.86" height="8.38"/>
		
			<rect x="112.26" y="141.32" transform="matrix(0.9998 -0.0179 0.0179 0.9998 -2.5828 2.1095)" class="st2" width="8.86" height="8.38"/>
		
			<rect x="122.33" y="150.16" transform="matrix(0.9998 -0.0178 0.0178 0.9998 -2.7346 2.287)" class="st2" width="8.87" height="8.38"/>
		<path class="st2" d="M79.04,89.95l4-0.39c0.24,1.34,0.73,2.33,1.47,2.96c0.73,0.63,1.73,0.94,2.98,0.94
			c1.32,0,2.32-0.28,2.99-0.84c0.67-0.56,1.01-1.21,1.01-1.96c0-0.48-0.14-0.89-0.42-1.23c-0.28-0.34-0.78-0.63-1.48-0.88
			c-0.48-0.17-1.58-0.46-3.29-0.89c-2.2-0.54-3.75-1.22-4.64-2.01c-1.25-1.12-1.88-2.49-1.88-4.1c0-1.04,0.3-2.01,0.88-2.91
			c0.59-0.9,1.43-1.59,2.54-2.06c1.11-0.47,2.45-0.71,4.01-0.71c2.56,0,4.48,0.56,5.77,1.68c1.29,1.12,1.97,2.62,2.03,4.49
			l-4.11,0.18c-0.18-1.05-0.55-1.8-1.13-2.26c-0.58-0.46-1.45-0.69-2.6-0.69c-1.19,0-2.13,0.25-2.81,0.74
			c-0.44,0.31-0.65,0.74-0.65,1.26c0,0.48,0.21,0.89,0.61,1.23c0.52,0.43,1.78,0.89,3.78,1.36c2,0.47,3.48,0.96,4.43,1.46
			c0.96,0.5,1.71,1.2,2.25,2.07c0.54,0.87,0.81,1.96,0.81,3.24c0,1.17-0.32,2.26-0.97,3.28c-0.65,1.02-1.56,1.78-2.75,2.27
			c-1.18,0.49-2.66,0.74-4.43,0.74c-2.57,0-4.55-0.59-5.93-1.78C80.13,93.96,79.3,92.23,79.04,89.95"/>
	</g>
</g>
</svg>
